<svg xmlns="http://www.w3.org/2000/svg" xmlns:xlink="http://www.w3.org/1999/xlink" width="900" zoomAndPan="magnify" viewBox="0 0 675 119.999999" height="160" preserveAspectRatio="xMidYMid meet" version="1.0"><defs><clipPath id="f7cd209db8"><path d="M 13 28 L 665 28 L 665 92.722656 L 13 92.722656 Z M 13 28 " clip-rule="nonzero"/></clipPath></defs><g clip-path="url(#f7cd209db8)"><path fill="#e1b757" d="M 310.050781 74.589844 C 289.988281 75.582031 269.933594 76.757812 249.886719 78.09375 C 297.210938 67.4375 346.011719 65.832031 394.339844 67.542969 C 420.308594 68.457031 446.234375 70.253906 472.15625 72.050781 C 467.359375 71.972656 462.566406 71.902344 457.769531 71.855469 C 408.507812 71.363281 359.257812 72.152344 310.050781 74.589844 Z M 663.675781 68.605469 C 644.976562 60.277344 625.101562 55.667969 605.074219 52.441406 C 584.417969 49.113281 563.628906 46.558594 542.863281 44.109375 C 500.492188 39.097656 457.992188 35.296875 415.417969 32.789062 C 330.117188 27.765625 244.5625 27.699219 159.25 32.523438 C 111.402344 35.226562 63.632812 39.476562 16.023438 45.207031 C 13.003906 45.574219 11.953125 49.675781 15.722656 49.226562 C 99.757812 39.25 184.304688 34.066406 268.878906 33.65625 C 353.84375 33.25 438.84375 37.558594 523.375 46.546875 C 546.617188 49.019531 569.867188 51.699219 593.003906 55.082031 C 613.230469 58.039062 633.488281 61.957031 652.640625 69.492188 C 598.253906 75.410156 543.402344 72.207031 488.960938 68.464844 C 432.496094 64.582031 375.789062 59.839844 319.203125 63.726562 C 287.753906 65.882812 256.460938 70.851562 226.105469 79.839844 C 223.785156 80.527344 221.609375 84.65625 225.472656 84.378906 C 273.179688 80.902344 320.9375 79.25 368.742188 78.339844 C 416.914062 77.417969 465.105469 77.789062 513.261719 79.449219 C 526.824219 79.917969 540.382812 80.480469 553.9375 81.15625 C 561.828125 81.550781 570.6875 81.941406 577.867188 85.757812 C 505.914062 90.542969 433.839844 93.886719 361.847656 97.953125 C 340.753906 99.136719 319.664062 100.3125 298.570312 101.476562 C 297.007812 101.570312 295.082031 102.546875 294.480469 104.179688 C 293.960938 105.605469 294.535156 106.933594 296.128906 106.921875 C 359.527344 106.511719 423.242188 106.109375 486.1875 115.191406 C 503.21875 117.648438 520.085938 120.96875 536.882812 124.753906 C 534.921875 126.496094 532.957031 128.234375 530.980469 129.960938 C 527.824219 132.71875 531.546875 135.132812 534.125 132.878906 C 537.34375 130.070312 540.59375 127.304688 543.820312 124.515625 C 544.746094 123.71875 546.09375 121.246094 544.0625 120.707031 C 493.417969 107.289062 440.722656 103.171875 388.425781 101.890625 C 433.1875 99.464844 477.945312 97.042969 522.710938 94.621094 C 543.84375 93.476562 564.980469 92.183594 586.128906 91.292969 C 587.972656 91.210938 591.796875 87.824219 589.96875 85.726562 C 586.160156 81.351562 581.371094 78.761719 576.191406 77.195312 C 604.710938 77.453125 633.238281 76.253906 661.5625 72.585938 C 662.910156 72.410156 666.0625 69.667969 663.675781 68.605469 " fill-opacity="1" fill-rule="nonzero"/></g></svg>