<svg xmlns="http://www.w3.org/2000/svg" xmlns:xlink="http://www.w3.org/1999/xlink" width="400" zoomAndPan="magnify" viewBox="0 0 300 299.999988" height="400" preserveAspectRatio="xMidYMid meet" version="1.0"><defs><g/><clipPath id="baa9c9e8f0"><path d="M 20.710938 20.710938 L 279.289062 20.710938 L 279.289062 279.289062 L 20.710938 279.289062 Z M 20.710938 20.710938 " clip-rule="nonzero"/></clipPath><clipPath id="f93cf94c14"><path d="M 150 20.710938 C 78.59375 20.710938 20.710938 78.59375 20.710938 150 C 20.710938 221.40625 78.59375 279.289062 150 279.289062 C 221.40625 279.289062 279.289062 221.40625 279.289062 150 C 279.289062 78.59375 221.40625 20.710938 150 20.710938 Z M 150 20.710938 " clip-rule="nonzero"/></clipPath><clipPath id="8a4b49a539"><path d="M 0.710938 0.710938 L 259.289062 0.710938 L 259.289062 259.289062 L 0.710938 259.289062 Z M 0.710938 0.710938 " clip-rule="nonzero"/></clipPath><clipPath id="96884f5878"><path d="M 130 0.710938 C 58.59375 0.710938 0.710938 58.59375 0.710938 130 C 0.710938 201.40625 58.59375 259.289062 130 259.289062 C 201.40625 259.289062 259.289062 201.40625 259.289062 130 C 259.289062 58.59375 201.40625 0.710938 130 0.710938 Z M 130 0.710938 " clip-rule="nonzero"/></clipPath><clipPath id="87af359a70"><rect x="0" width="260" y="0" height="260"/></clipPath><clipPath id="e22de0c8fb"><path d="M 53 71 L 227 71 L 227 246 L 53 246 Z M 53 71 " clip-rule="nonzero"/></clipPath><clipPath id="b252bc7165"><path d="M 40.257812 84.707031 L 207.605469 57.78125 L 235.605469 231.792969 L 68.257812 258.71875 Z M 40.257812 84.707031 " clip-rule="nonzero"/></clipPath><clipPath id="62bc039715"><path d="M 40.257812 84.707031 L 207.605469 57.78125 L 235.605469 231.792969 L 68.257812 258.71875 Z M 40.257812 84.707031 " clip-rule="nonzero"/></clipPath><clipPath id="2905d98d89"><path d="M 104.558594 47.679688 L 263.382812 47.679688 L 263.382812 210 L 104.558594 210 Z M 104.558594 47.679688 " clip-rule="nonzero"/></clipPath><clipPath id="9fccb957da"><path d="M 183.96875 47.679688 C 140.113281 47.679688 104.558594 84.015625 104.558594 128.835938 C 104.558594 173.660156 140.113281 209.996094 183.96875 209.996094 C 227.828125 209.996094 263.382812 173.660156 263.382812 128.835938 C 263.382812 84.015625 227.828125 47.679688 183.96875 47.679688 Z M 183.96875 47.679688 " clip-rule="nonzero"/></clipPath><clipPath id="16176fec2e"><path d="M 0.558594 0.679688 L 159.382812 0.679688 L 159.382812 163 L 0.558594 163 Z M 0.558594 0.679688 " clip-rule="nonzero"/></clipPath><clipPath id="968737f450"><path d="M 79.96875 0.679688 C 36.113281 0.679688 0.558594 37.015625 0.558594 81.835938 C 0.558594 126.660156 36.113281 162.996094 79.96875 162.996094 C 123.828125 162.996094 159.382812 126.660156 159.382812 81.835938 C 159.382812 37.015625 123.828125 0.679688 79.96875 0.679688 Z M 79.96875 0.679688 " clip-rule="nonzero"/></clipPath><clipPath id="b0bacb50d4"><rect x="0" width="160" y="0" height="163"/></clipPath><clipPath id="30da9979b3"><rect x="0" width="43" y="0" height="130"/></clipPath><clipPath id="6a822d4904"><rect x="0" width="111" y="0" height="130"/></clipPath><clipPath id="b835e3bf6f"><path d="M 175.058594 69.503906 L 222 69.503906 L 222 116.554688 L 175.058594 116.554688 Z M 175.058594 69.503906 " clip-rule="nonzero"/></clipPath><clipPath id="00948b0d02"><path d="M 199.335938 70.453125 C 199.761719 82.324219 209.285156 91.847656 221.15625 92.273438 C 221.5625 92.289062 221.886719 92.621094 221.886719 93.027344 C 221.886719 93.433594 221.5625 93.769531 221.15625 93.785156 C 209.285156 94.210938 199.761719 103.734375 199.335938 115.601562 C 199.320312 116.011719 198.988281 116.332031 198.582031 116.332031 C 198.175781 116.332031 197.839844 116.011719 197.824219 115.601562 C 197.402344 103.734375 187.875 94.210938 176.007812 93.785156 C 175.601562 93.769531 175.277344 93.433594 175.277344 93.027344 C 175.277344 92.621094 175.601562 92.289062 176.007812 92.273438 C 187.875 91.847656 197.402344 82.324219 197.824219 70.453125 C 197.839844 70.046875 198.175781 69.726562 198.582031 69.726562 C 198.988281 69.726562 199.320312 70.046875 199.335938 70.453125 Z M 199.335938 70.453125 " clip-rule="nonzero"/></clipPath><clipPath id="3f8a4483d9"><path d="M 0.199219 0.601562 L 47 0.601562 L 47 47.398438 L 0.199219 47.398438 Z M 0.199219 0.601562 " clip-rule="nonzero"/></clipPath><clipPath id="910374382d"><path d="M 24.335938 1.453125 C 24.761719 13.324219 34.285156 22.847656 46.15625 23.273438 C 46.5625 23.289062 46.886719 23.621094 46.886719 24.027344 C 46.886719 24.433594 46.5625 24.769531 46.15625 24.785156 C 34.285156 25.210938 24.761719 34.734375 24.335938 46.601562 C 24.320312 47.011719 23.988281 47.332031 23.582031 47.332031 C 23.175781 47.332031 22.839844 47.011719 22.824219 46.601562 C 22.402344 34.734375 12.875 25.210938 1.007812 24.785156 C 0.601562 24.769531 0.277344 24.433594 0.277344 24.027344 C 0.277344 23.621094 0.601562 23.289062 1.007812 23.273438 C 12.875 22.847656 22.402344 13.324219 22.824219 1.453125 C 22.839844 1.046875 23.175781 0.726562 23.582031 0.726562 C 23.988281 0.726562 24.320312 1.046875 24.335938 1.453125 Z M 24.335938 1.453125 " clip-rule="nonzero"/></clipPath><clipPath id="2862473715"><rect x="0" width="47" y="0" height="48"/></clipPath><clipPath id="82a3fbbb80"><path d="M 175.082031 69.539062 L 222 69.539062 L 222 116.53125 L 175.082031 116.53125 Z M 175.082031 69.539062 " clip-rule="nonzero"/></clipPath><clipPath id="7761dca436"><path d="M 199.332031 70.464844 C 199.757812 82.332031 209.28125 91.855469 221.148438 92.28125 C 221.554688 92.296875 221.878906 92.628906 221.878906 93.035156 C 221.878906 93.441406 221.554688 93.777344 221.148438 93.789062 C 209.28125 94.214844 199.757812 103.738281 199.332031 115.609375 C 199.316406 116.015625 198.984375 116.335938 198.578125 116.335938 C 198.171875 116.335938 197.835938 116.015625 197.820312 115.609375 C 197.394531 103.738281 187.871094 94.214844 176.003906 93.789062 C 175.597656 93.777344 175.277344 93.441406 175.277344 93.035156 C 175.277344 92.628906 175.597656 92.296875 176.003906 92.28125 C 187.871094 91.855469 197.394531 82.332031 197.820312 70.464844 C 197.835938 70.054688 198.171875 69.734375 198.578125 69.734375 C 198.984375 69.734375 199.316406 70.054688 199.332031 70.464844 Z M 199.332031 70.464844 " clip-rule="nonzero"/></clipPath></defs><path fill="#8e36a1" d="M 140.1875 7.707031 C 145.558594 0.421875 154.347656 0.421875 159.71875 7.707031 C 160.039062 8.140625 160.382812 8.554688 160.742188 8.953125 C 161.105469 9.355469 161.484375 9.734375 161.882812 10.097656 C 162.28125 10.457031 162.699219 10.800781 163.132812 11.121094 C 163.5625 11.441406 164.011719 11.742188 164.472656 12.019531 C 164.933594 12.296875 165.40625 12.550781 165.894531 12.78125 C 166.382812 13.015625 166.878906 13.21875 167.382812 13.402344 C 167.890625 13.585938 168.40625 13.742188 168.929688 13.875 C 169.449219 14.007812 169.976562 14.113281 170.511719 14.191406 C 171.042969 14.273438 171.578125 14.328125 172.117188 14.355469 C 172.652344 14.382812 173.191406 14.382812 173.730469 14.359375 C 174.269531 14.332031 174.804688 14.28125 175.335938 14.207031 C 175.871094 14.128906 176.398438 14.023438 176.921875 13.894531 C 177.445312 13.765625 177.960938 13.613281 178.46875 13.433594 C 178.976562 13.253906 179.472656 13.046875 179.960938 12.820312 C 180.449219 12.589844 180.925781 12.339844 181.386719 12.066406 C 181.851562 11.789062 182.296875 11.492188 182.734375 11.175781 C 190.011719 5.796875 198.410156 8.386719 201.398438 16.929688 C 201.578125 17.4375 201.78125 17.9375 202.007812 18.425781 C 202.234375 18.914062 202.488281 19.386719 202.761719 19.851562 C 203.035156 20.3125 203.332031 20.761719 203.648438 21.199219 C 203.96875 21.632812 204.308594 22.050781 204.667969 22.449219 C 205.027344 22.851562 205.402344 23.234375 205.800781 23.597656 C 206.195312 23.960938 206.609375 24.304688 207.042969 24.628906 C 207.472656 24.953125 207.917969 25.253906 208.375 25.535156 C 208.835938 25.8125 209.308594 26.070312 209.792969 26.304688 C 210.277344 26.539062 210.773438 26.746094 211.28125 26.933594 C 211.785156 27.117188 212.300781 27.277344 212.820312 27.410156 C 213.339844 27.546875 213.867188 27.65625 214.398438 27.738281 C 214.933594 27.820312 215.464844 27.878906 216.003906 27.910156 C 216.542969 27.941406 217.078125 27.945312 217.617188 27.921875 C 218.15625 27.902344 218.691406 27.851562 219.222656 27.777344 C 219.757812 27.703125 220.285156 27.605469 220.808594 27.476562 C 221.332031 27.351562 221.847656 27.199219 222.355469 27.023438 C 230.898438 24.03125 238.160156 28.980469 238.496094 38.039062 C 238.515625 38.574219 238.566406 39.109375 238.640625 39.640625 C 238.714844 40.175781 238.8125 40.703125 238.941406 41.226562 C 239.066406 41.75 239.21875 42.265625 239.394531 42.773438 C 239.570312 43.28125 239.769531 43.777344 239.996094 44.265625 C 240.222656 44.753906 240.46875 45.230469 240.742188 45.695312 C 241.015625 46.160156 241.308594 46.609375 241.625 47.042969 C 241.9375 47.480469 242.277344 47.898438 242.632812 48.300781 C 242.988281 48.703125 243.363281 49.085938 243.757812 49.453125 C 244.152344 49.820312 244.566406 50.164062 244.992188 50.488281 C 245.421875 50.816406 245.863281 51.121094 246.324219 51.402344 C 246.78125 51.683594 247.25 51.941406 247.734375 52.179688 C 248.21875 52.414062 248.710938 52.625 249.214844 52.8125 C 249.71875 53 250.230469 53.164062 250.75 53.300781 C 251.269531 53.441406 251.796875 53.550781 252.328125 53.636719 C 252.859375 53.722656 253.390625 53.785156 253.929688 53.816406 C 254.464844 53.851562 255.003906 53.859375 255.539062 53.839844 C 264.585938 53.5 270.066406 60.367188 267.71875 69.113281 C 267.582031 69.632812 267.46875 70.160156 267.382812 70.691406 C 267.296875 71.222656 267.234375 71.753906 267.203125 72.292969 C 267.167969 72.828125 267.160156 73.367188 267.175781 73.90625 C 267.195312 74.441406 267.242188 74.980469 267.3125 75.511719 C 267.382812 76.046875 267.480469 76.574219 267.601562 77.097656 C 267.722656 77.625 267.871094 78.140625 268.046875 78.648438 C 268.21875 79.160156 268.414062 79.660156 268.636719 80.148438 C 268.859375 80.640625 269.105469 81.117188 269.375 81.585938 C 269.644531 82.050781 269.933594 82.503906 270.25 82.941406 C 270.5625 83.378906 270.894531 83.800781 271.25 84.203125 C 271.605469 84.609375 271.976562 84.996094 272.371094 85.363281 C 272.761719 85.734375 273.171875 86.082031 273.597656 86.410156 C 274.027344 86.738281 274.46875 87.046875 274.921875 87.332031 C 275.378906 87.617188 275.851562 87.878906 276.332031 88.117188 C 276.8125 88.355469 277.308594 88.570312 277.808594 88.761719 C 278.3125 88.953125 278.824219 89.117188 279.34375 89.257812 C 288.085938 91.597656 291.296875 99.78125 286.484375 107.441406 C 286.199219 107.898438 285.933594 108.367188 285.695312 108.847656 C 285.457031 109.332031 285.242188 109.824219 285.050781 110.328125 C 284.859375 110.832031 284.691406 111.34375 284.550781 111.863281 C 284.410156 112.382812 284.296875 112.90625 284.207031 113.4375 C 284.117188 113.96875 284.054688 114.503906 284.015625 115.039062 C 283.980469 115.578125 283.96875 116.113281 283.984375 116.652344 C 284 117.191406 284.039062 117.726562 284.109375 118.261719 C 284.175781 118.796875 284.269531 119.324219 284.390625 119.851562 C 284.507812 120.375 284.65625 120.890625 284.824219 121.402344 C 284.996094 121.914062 285.191406 122.414062 285.410156 122.90625 C 285.628906 123.398438 285.875 123.878906 286.140625 124.34375 C 286.40625 124.8125 286.695312 125.265625 287.007812 125.707031 C 287.316406 126.144531 287.648438 126.570312 288 126.976562 C 288.355469 127.382812 288.726562 127.773438 289.117188 128.140625 C 289.507812 128.511719 289.914062 128.863281 290.339844 129.195312 C 290.761719 129.523438 291.203125 129.835938 291.660156 130.121094 C 299.324219 134.933594 299.980469 143.699219 293.117188 149.597656 C 292.710938 149.949219 292.324219 150.320312 291.953125 150.710938 C 291.582031 151.101562 291.230469 151.511719 290.898438 151.933594 C 290.570312 152.359375 290.257812 152.800781 289.972656 153.253906 C 289.683594 153.707031 289.417969 154.175781 289.175781 154.65625 C 288.933594 155.140625 288.714844 155.628906 288.523438 156.132812 C 288.328125 156.636719 288.160156 157.144531 288.015625 157.664062 C 287.871094 158.183594 287.753906 158.707031 287.660156 159.238281 C 287.570312 159.769531 287.503906 160.300781 287.460938 160.839844 C 287.421875 161.375 287.410156 161.914062 287.421875 162.453125 C 287.433594 162.988281 287.472656 163.527344 287.535156 164.0625 C 287.601562 164.59375 287.691406 165.125 287.808594 165.652344 C 287.925781 166.175781 288.070312 166.695312 288.238281 167.207031 C 288.402344 167.71875 288.597656 168.21875 288.8125 168.714844 C 289.03125 169.207031 289.269531 169.6875 289.535156 170.15625 C 289.796875 170.625 290.085938 171.082031 290.394531 171.523438 C 290.703125 171.960938 291.03125 172.386719 291.382812 172.796875 C 297.296875 179.652344 295.328125 188.222656 287.035156 191.839844 C 286.539062 192.054688 286.058594 192.296875 285.589844 192.558594 C 285.121094 192.824219 284.664062 193.109375 284.222656 193.417969 C 283.78125 193.726562 283.355469 194.054688 282.949219 194.40625 C 282.539062 194.753906 282.148438 195.125 281.773438 195.511719 C 281.402344 195.898438 281.046875 196.304688 280.714844 196.726562 C 280.382812 197.152344 280.070312 197.589844 279.78125 198.042969 C 279.488281 198.496094 279.222656 198.960938 278.976562 199.441406 C 278.734375 199.921875 278.511719 200.410156 278.316406 200.914062 C 278.117188 201.414062 277.945312 201.921875 277.800781 202.441406 C 277.652344 202.960938 277.53125 203.484375 277.4375 204.011719 C 277.339844 204.542969 277.273438 205.074219 277.230469 205.613281 C 277.183594 206.148438 277.167969 206.6875 277.179688 207.226562 C 277.1875 207.761719 277.222656 208.300781 277.285156 208.835938 C 277.347656 209.367188 277.433594 209.898438 277.546875 210.425781 C 277.664062 210.953125 277.800781 211.472656 277.964844 211.984375 C 278.132812 212.496094 278.320312 213 278.535156 213.492188 C 282.15625 221.789062 277.761719 229.402344 268.769531 230.421875 C 268.234375 230.480469 267.703125 230.570312 267.175781 230.683594 C 266.648438 230.796875 266.132812 230.9375 265.617188 231.101562 C 265.105469 231.265625 264.601562 231.453125 264.109375 231.667969 C 263.613281 231.882812 263.132812 232.117188 262.660156 232.378906 C 262.191406 232.640625 261.734375 232.925781 261.289062 233.230469 C 260.847656 233.535156 260.417969 233.863281 260.007812 234.210938 C 259.597656 234.558594 259.203125 234.925781 258.828125 235.3125 C 258.453125 235.695312 258.097656 236.101562 257.761719 236.519531 C 257.425781 236.941406 257.113281 237.378906 256.820312 237.832031 C 256.527344 238.28125 256.257812 238.746094 256.011719 239.226562 C 255.761719 239.703125 255.539062 240.191406 255.339844 240.691406 C 255.140625 241.191406 254.964844 241.699219 254.816406 242.21875 C 254.667969 242.734375 254.542969 243.257812 254.445312 243.789062 C 254.347656 244.316406 254.273438 244.851562 254.226562 245.386719 C 254.179688 245.921875 254.160156 246.460938 254.167969 247 C 254.175781 247.535156 254.207031 248.074219 254.265625 248.609375 C 255.285156 257.601562 248.839844 263.578125 239.945312 261.894531 C 239.417969 261.792969 238.886719 261.722656 238.347656 261.675781 C 237.8125 261.628906 237.273438 261.609375 236.738281 261.613281 C 236.199219 261.621094 235.660156 261.652344 235.125 261.710938 C 234.589844 261.769531 234.058594 261.855469 233.53125 261.964844 C 233.007812 262.074219 232.484375 262.210938 231.972656 262.371094 C 231.457031 262.535156 230.953125 262.722656 230.457031 262.933594 C 229.964844 263.144531 229.480469 263.378906 229.007812 263.636719 C 228.535156 263.894531 228.078125 264.175781 227.632812 264.476562 C 227.1875 264.78125 226.757812 265.105469 226.34375 265.453125 C 225.933594 265.796875 225.535156 266.160156 225.160156 266.546875 C 224.78125 266.929688 224.425781 267.332031 224.085938 267.75 C 223.75 268.167969 223.433594 268.605469 223.136719 269.054688 C 222.839844 269.503906 222.566406 269.96875 222.316406 270.445312 C 222.066406 270.921875 221.84375 271.410156 221.640625 271.90625 C 221.4375 272.40625 221.261719 272.914062 221.109375 273.429688 C 220.957031 273.949219 220.828125 274.46875 220.726562 275 C 219.046875 283.890625 211.128906 287.703125 203.128906 283.472656 C 202.652344 283.222656 202.164062 282.996094 201.664062 282.792969 C 201.164062 282.589844 200.65625 282.414062 200.140625 282.257812 C 199.625 282.105469 199.101562 281.980469 198.574219 281.878906 C 198.046875 281.773438 197.511719 281.699219 196.976562 281.648438 C 196.441406 281.601562 195.902344 281.578125 195.367188 281.578125 C 194.828125 281.582031 194.289062 281.613281 193.753906 281.667969 C 193.21875 281.722656 192.6875 281.804688 192.160156 281.914062 C 191.632812 282.019531 191.113281 282.152344 190.597656 282.3125 C 190.082031 282.472656 189.578125 282.65625 189.082031 282.863281 C 188.582031 283.070312 188.097656 283.304688 187.625 283.558594 C 187.152344 283.8125 186.691406 284.09375 186.246094 284.394531 C 185.796875 284.695312 185.367188 285.015625 184.953125 285.359375 C 184.539062 285.703125 184.140625 286.0625 183.761719 286.445312 C 183.382812 286.828125 183.019531 287.226562 182.679688 287.644531 C 182.339844 288.0625 182.019531 288.496094 181.722656 288.941406 C 181.425781 289.390625 181.148438 289.855469 180.898438 290.328125 C 176.667969 298.332031 167.980469 299.644531 161.582031 293.242188 C 161.199219 292.863281 160.800781 292.5 160.382812 292.160156 C 159.96875 291.820312 159.535156 291.5 159.085938 291.203125 C 158.636719 290.902344 158.175781 290.628906 157.703125 290.375 C 157.226562 290.121094 156.738281 289.894531 156.242188 289.6875 C 155.746094 289.480469 155.238281 289.300781 154.722656 289.144531 C 154.207031 288.988281 153.6875 288.859375 153.15625 288.753906 C 152.628906 288.652344 152.097656 288.570312 151.5625 288.519531 C 151.027344 288.464844 150.488281 288.441406 149.949219 288.441406 C 149.414062 288.441406 148.875 288.464844 148.339844 288.519531 C 147.804688 288.570312 147.273438 288.652344 146.742188 288.753906 C 146.214844 288.859375 145.695312 288.988281 145.179688 289.144531 C 144.664062 289.300781 144.15625 289.480469 143.660156 289.6875 C 143.160156 289.894531 142.675781 290.121094 142.199219 290.375 C 141.726562 290.628906 141.261719 290.902344 140.816406 291.203125 C 140.367188 291.5 139.933594 291.820312 139.519531 292.160156 C 139.101562 292.5 138.703125 292.863281 138.320312 293.242188 C 131.921875 299.644531 123.226562 298.339844 119.003906 290.328125 C 118.753906 289.855469 118.476562 289.390625 118.179688 288.941406 C 117.878906 288.496094 117.5625 288.0625 117.222656 287.644531 C 116.882812 287.226562 116.519531 286.828125 116.140625 286.445312 C 115.761719 286.0625 115.363281 285.703125 114.949219 285.359375 C 114.535156 285.015625 114.105469 284.695312 113.65625 284.394531 C 113.210938 284.09375 112.75 283.8125 112.277344 283.558594 C 111.804688 283.304688 111.316406 283.070312 110.820312 282.863281 C 110.324219 282.65625 109.820312 282.472656 109.304688 282.3125 C 108.789062 282.152344 108.269531 282.019531 107.742188 281.914062 C 107.214844 281.804688 106.683594 281.722656 106.148438 281.667969 C 105.613281 281.613281 105.074219 281.582031 104.535156 281.578125 C 104 281.578125 103.460938 281.601562 102.925781 281.648438 C 102.390625 281.699219 101.855469 281.773438 101.328125 281.878906 C 100.800781 281.980469 100.277344 282.105469 99.761719 282.257812 C 99.246094 282.414062 98.738281 282.589844 98.238281 282.792969 C 97.738281 282.996094 97.25 283.222656 96.773438 283.472656 C 88.777344 287.703125 80.855469 283.878906 79.175781 275 C 79.074219 274.46875 78.949219 273.949219 78.796875 273.429688 C 78.644531 272.914062 78.464844 272.40625 78.265625 271.90625 C 78.0625 271.410156 77.835938 270.921875 77.585938 270.445312 C 77.335938 269.96875 77.0625 269.503906 76.769531 269.054688 C 76.472656 268.605469 76.15625 268.167969 75.816406 267.75 C 75.480469 267.332031 75.121094 266.929688 74.746094 266.546875 C 74.367188 266.160156 73.972656 265.796875 73.558594 265.453125 C 73.144531 265.105469 72.71875 264.78125 72.273438 264.476562 C 71.828125 264.175781 71.367188 263.894531 70.898438 263.636719 C 70.425781 263.378906 69.941406 263.144531 69.445312 262.933594 C 68.949219 262.722656 68.445312 262.535156 67.933594 262.371094 C 67.417969 262.210938 66.898438 262.074219 66.371094 261.964844 C 65.84375 261.855469 65.3125 261.769531 64.777344 261.710938 C 64.242188 261.652344 63.707031 261.621094 63.167969 261.613281 C 62.628906 261.609375 62.09375 261.628906 61.554688 261.675781 C 61.019531 261.722656 60.488281 261.792969 59.957031 261.894531 C 51.066406 263.578125 44.621094 257.609375 45.636719 248.609375 C 45.699219 248.074219 45.730469 247.535156 45.738281 247 C 45.742188 246.460938 45.722656 245.921875 45.675781 245.386719 C 45.628906 244.851562 45.558594 244.316406 45.460938 243.789062 C 45.363281 243.257812 45.238281 242.734375 45.085938 242.21875 C 44.9375 241.699219 44.761719 241.191406 44.5625 240.691406 C 44.363281 240.191406 44.140625 239.703125 43.894531 239.222656 C 43.644531 238.746094 43.375 238.28125 43.082031 237.828125 C 42.789062 237.378906 42.476562 236.941406 42.140625 236.519531 C 41.804688 236.101562 41.449219 235.695312 41.074219 235.308594 C 40.699219 234.925781 40.304688 234.558594 39.894531 234.210938 C 39.484375 233.863281 39.054688 233.535156 38.613281 233.230469 C 38.167969 232.925781 37.710938 232.640625 37.242188 232.378906 C 36.769531 232.117188 36.289062 231.882812 35.792969 231.667969 C 35.300781 231.453125 34.796875 231.265625 34.285156 231.101562 C 33.769531 230.9375 33.25 230.796875 32.726562 230.683594 C 32.199219 230.570312 31.667969 230.480469 31.132812 230.421875 C 22.140625 229.402344 17.746094 221.796875 21.367188 213.492188 C 21.582031 213 21.769531 212.496094 21.933594 211.984375 C 22.097656 211.472656 22.238281 210.953125 22.351562 210.425781 C 22.464844 209.902344 22.554688 209.371094 22.617188 208.835938 C 22.675781 208.300781 22.710938 207.765625 22.722656 207.226562 C 22.730469 206.6875 22.714844 206.152344 22.671875 205.617188 C 22.628906 205.078125 22.558594 204.546875 22.464844 204.015625 C 22.367188 203.488281 22.246094 202.964844 22.101562 202.445312 C 21.953125 201.929688 21.78125 201.417969 21.585938 200.917969 C 21.386719 200.417969 21.167969 199.925781 20.921875 199.445312 C 20.679688 198.96875 20.410156 198.5 20.121094 198.046875 C 19.832031 197.59375 19.519531 197.15625 19.183594 196.734375 C 18.851562 196.3125 18.5 195.90625 18.125 195.519531 C 17.753906 195.128906 17.363281 194.761719 16.953125 194.410156 C 16.546875 194.0625 16.121094 193.734375 15.679688 193.425781 C 15.238281 193.117188 14.78125 192.832031 14.3125 192.566406 C 13.84375 192.304688 13.363281 192.0625 12.871094 191.847656 C 4.574219 188.238281 2.617188 179.660156 8.523438 172.804688 C 8.875 172.394531 9.203125 171.972656 9.511719 171.53125 C 9.820312 171.089844 10.109375 170.632812 10.371094 170.164062 C 10.636719 169.695312 10.875 169.214844 11.09375 168.722656 C 11.308594 168.226562 11.503906 167.726562 11.667969 167.214844 C 11.835938 166.703125 11.980469 166.183594 12.097656 165.660156 C 12.214844 165.132812 12.304688 164.601562 12.371094 164.070312 C 12.433594 163.535156 12.472656 162.996094 12.484375 162.460938 C 12.496094 161.921875 12.484375 161.382812 12.445312 160.847656 C 12.402344 160.308594 12.335938 159.777344 12.246094 159.246094 C 12.152344 158.714844 12.035156 158.191406 11.890625 157.671875 C 11.746094 157.152344 11.578125 156.640625 11.382812 156.140625 C 11.1875 155.636719 10.972656 155.144531 10.730469 154.664062 C 10.488281 154.183594 10.222656 153.714844 9.933594 153.261719 C 9.644531 152.808594 9.335938 152.367188 9.003906 151.941406 C 8.675781 151.519531 8.324219 151.109375 7.953125 150.71875 C 7.582031 150.328125 7.191406 149.957031 6.785156 149.605469 C -0.0742188 143.707031 0.582031 134.941406 8.246094 130.128906 C 8.699219 129.84375 9.140625 129.535156 9.566406 129.203125 C 9.992188 128.871094 10.398438 128.519531 10.789062 128.152344 C 11.179688 127.78125 11.550781 127.390625 11.902344 126.984375 C 12.257812 126.578125 12.585938 126.152344 12.898438 125.714844 C 13.210938 125.273438 13.5 124.820312 13.765625 124.355469 C 14.03125 123.886719 14.273438 123.40625 14.496094 122.914062 C 14.714844 122.421875 14.910156 121.921875 15.078125 121.410156 C 15.25 120.902344 15.394531 120.382812 15.515625 119.859375 C 15.636719 119.332031 15.730469 118.804688 15.796875 118.269531 C 15.863281 117.734375 15.90625 117.199219 15.921875 116.660156 C 15.9375 116.121094 15.925781 115.585938 15.890625 115.046875 C 15.851562 114.511719 15.789062 113.976562 15.699219 113.445312 C 15.609375 112.914062 15.492188 112.390625 15.351562 111.871094 C 15.210938 111.351562 15.046875 110.839844 14.855469 110.335938 C 14.664062 109.832031 14.449219 109.339844 14.207031 108.859375 C 13.96875 108.375 13.707031 107.90625 13.421875 107.449219 C 8.605469 99.789062 11.816406 91.605469 20.558594 89.269531 C 21.078125 89.128906 21.589844 88.960938 22.09375 88.769531 C 22.597656 88.578125 23.089844 88.363281 23.570312 88.125 C 24.054688 87.886719 24.523438 87.625 24.980469 87.339844 C 25.4375 87.054688 25.878906 86.746094 26.304688 86.417969 C 26.730469 86.089844 27.140625 85.742188 27.535156 85.375 C 27.925781 85.003906 28.300781 84.617188 28.652344 84.214844 C 29.007812 83.808594 29.34375 83.386719 29.65625 82.949219 C 29.96875 82.511719 30.261719 82.058594 30.527344 81.59375 C 30.796875 81.125 31.042969 80.648438 31.265625 80.15625 C 31.488281 79.667969 31.6875 79.167969 31.859375 78.65625 C 32.03125 78.148438 32.179688 77.632812 32.304688 77.105469 C 32.425781 76.582031 32.523438 76.054688 32.59375 75.519531 C 32.664062 74.988281 32.707031 74.449219 32.726562 73.914062 C 32.746094 73.375 32.738281 72.835938 32.703125 72.300781 C 32.667969 71.761719 32.609375 71.230469 32.519531 70.699219 C 32.433594 70.167969 32.324219 69.640625 32.183594 69.121094 C 29.839844 60.378906 35.320312 53.507812 44.363281 53.847656 C 44.898438 53.867188 45.4375 53.859375 45.976562 53.828125 C 46.511719 53.792969 47.046875 53.734375 47.578125 53.648438 C 48.109375 53.5625 48.636719 53.449219 49.15625 53.3125 C 49.675781 53.171875 50.1875 53.011719 50.691406 52.824219 C 51.199219 52.636719 51.691406 52.421875 52.175781 52.1875 C 52.660156 51.949219 53.128906 51.691406 53.589844 51.410156 C 54.046875 51.125 54.492188 50.820312 54.917969 50.496094 C 55.347656 50.171875 55.757812 49.824219 56.152344 49.457031 C 56.550781 49.09375 56.925781 48.707031 57.28125 48.304688 C 57.640625 47.902344 57.976562 47.480469 58.292969 47.046875 C 58.605469 46.609375 58.902344 46.160156 59.171875 45.695312 C 59.445312 45.230469 59.691406 44.753906 59.917969 44.265625 C 60.144531 43.773438 60.34375 43.277344 60.519531 42.769531 C 60.695312 42.257812 60.847656 41.742188 60.972656 41.21875 C 61.097656 40.695312 61.199219 40.167969 61.273438 39.632812 C 61.347656 39.101562 61.394531 38.566406 61.414062 38.027344 C 61.75 28.980469 69.011719 24.03125 77.554688 27.023438 C 78.0625 27.203125 78.578125 27.351562 79.101562 27.480469 C 79.625 27.605469 80.152344 27.707031 80.6875 27.78125 C 81.222656 27.855469 81.757812 27.902344 82.292969 27.925781 C 82.832031 27.945312 83.371094 27.941406 83.910156 27.910156 C 84.445312 27.878906 84.980469 27.824219 85.511719 27.738281 C 86.046875 27.65625 86.570312 27.546875 87.09375 27.414062 C 87.613281 27.277344 88.128906 27.117188 88.632812 26.933594 C 89.140625 26.746094 89.636719 26.539062 90.121094 26.304688 C 90.605469 26.070312 91.078125 25.8125 91.539062 25.535156 C 92 25.253906 92.445312 24.953125 92.875 24.628906 C 93.304688 24.304688 93.71875 23.960938 94.117188 23.597656 C 94.511719 23.234375 94.890625 22.851562 95.25 22.449219 C 95.609375 22.046875 95.949219 21.628906 96.265625 21.195312 C 96.585938 20.761719 96.882812 20.3125 97.15625 19.847656 C 97.429688 19.386719 97.679688 18.910156 97.910156 18.421875 C 98.136719 17.933594 98.339844 17.433594 98.519531 16.925781 C 101.503906 8.382812 109.902344 5.792969 117.183594 11.171875 C 117.617188 11.488281 118.066406 11.785156 118.527344 12.058594 C 118.992188 12.335938 119.46875 12.585938 119.953125 12.8125 C 120.441406 13.042969 120.941406 13.246094 121.449219 13.425781 C 121.953125 13.605469 122.46875 13.757812 122.992188 13.886719 C 123.515625 14.015625 124.042969 14.121094 124.574219 14.199219 C 125.109375 14.273438 125.644531 14.328125 126.179688 14.351562 C 126.71875 14.375 127.257812 14.375 127.792969 14.347656 C 128.332031 14.320312 128.867188 14.265625 129.398438 14.183594 C 129.933594 14.105469 130.460938 14 130.980469 13.867188 C 131.503906 13.734375 132.015625 13.578125 132.523438 13.398438 C 133.03125 13.214844 133.527344 13.007812 134.011719 12.777344 C 134.5 12.546875 134.972656 12.292969 135.433594 12.015625 C 135.898438 11.738281 136.34375 11.4375 136.777344 11.117188 C 137.207031 10.796875 137.625 10.457031 138.023438 10.09375 C 138.421875 9.734375 138.800781 9.351562 139.164062 8.953125 C 139.523438 8.554688 139.867188 8.140625 140.1875 7.707031 Z M 140.1875 7.707031 " fill-opacity="1" fill-rule="nonzero"/><g clip-path="url(#baa9c9e8f0)"><g clip-path="url(#f93cf94c14)"><g transform="matrix(1, 0, 0, 1, 20, 20)"><g clip-path="url(#87af359a70)"><g clip-path="url(#8a4b49a539)"><g clip-path="url(#96884f5878)"><path fill="#f8faf0" d="M 0.710938 0.710938 L 259.289062 0.710938 L 259.289062 259.289062 L 0.710938 259.289062 Z M 0.710938 0.710938 " fill-opacity="1" fill-rule="nonzero"/></g></g></g></g></g></g><g clip-path="url(#e22de0c8fb)"><g clip-path="url(#b252bc7165)"><g clip-path="url(#62bc039715)"><path fill="#c2bfe1" d="M 226.785156 177.894531 C 216.253906 188.070312 202.613281 195.238281 187.0625 197.742188 C 146.617188 204.25 108.550781 176.734375 102.042969 136.289062 C 98.054688 111.515625 106.828125 87.640625 123.519531 71.359375 C 77.523438 80.714844 46.710938 124.800781 54.234375 171.570312 C 61.957031 219.558594 107.117188 252.203125 155.105469 244.480469 C 191.328125 238.652344 218.804688 211.496094 226.785156 177.894531 Z M 226.785156 177.894531 " fill-opacity="1" fill-rule="evenodd"/></g></g></g><g clip-path="url(#2905d98d89)"><g clip-path="url(#9fccb957da)"><g transform="matrix(1, 0, 0, 1, 104, 47)"><g clip-path="url(#b0bacb50d4)"><g clip-path="url(#16176fec2e)"><g clip-path="url(#968737f450)"><path fill="#f8faf0" d="M 0.558594 0.679688 L 159.382812 0.679688 L 159.382812 163.222656 L 0.558594 163.222656 Z M 0.558594 0.679688 " fill-opacity="1" fill-rule="nonzero"/></g></g></g></g></g></g><g transform="matrix(1, 0, 0, 1, 126, 28)"><g clip-path="url(#30da9979b3)"><g fill="#32148a" fill-opacity="1"><g transform="translate(0.991138, 101.270112)"><g><path d="M 32.828125 -16.46875 C 32.828125 -14.425781 33.175781 -12.804688 33.875 -11.609375 C 34.582031 -10.410156 35.375 -9.40625 36.25 -8.59375 C 37.132812 -7.789062 37.910156 -7.019531 38.578125 -6.28125 C 39.242188 -5.539062 39.507812 -4.644531 39.375 -3.59375 C 39.300781 -2.601562 38.453125 -1.84375 36.828125 -1.3125 C 35.210938 -0.789062 33.316406 -0.40625 31.140625 -0.15625 C 28.960938 0.0898438 26.90625 0.25 24.96875 0.3125 C 23.03125 0.382812 21.675781 0.421875 20.90625 0.421875 C 20.125 0.421875 18.765625 0.382812 16.828125 0.3125 C 14.898438 0.25 12.84375 0.0742188 10.65625 -0.203125 C 8.476562 -0.492188 6.5625 -0.898438 4.90625 -1.421875 C 3.25 -1.953125 2.351562 -2.675781 2.21875 -3.59375 C 2.070312 -4.644531 2.316406 -5.539062 2.953125 -6.28125 C 3.585938 -7.019531 4.378906 -7.789062 5.328125 -8.59375 C 6.273438 -9.40625 7.117188 -10.425781 7.859375 -11.65625 C 8.597656 -12.894531 8.96875 -14.5 8.96875 -16.46875 L 8.96875 -47.5 C 8.96875 -51.019531 8.664062 -53.5 8.0625 -54.9375 C 7.46875 -56.382812 6.578125 -57.25 5.390625 -57.53125 C 4.117188 -57.8125 3.203125 -58.351562 2.640625 -59.15625 C 2.078125 -59.96875 1.988281 -60.8125 2.375 -61.6875 C 2.757812 -62.570312 3.65625 -63.226562 5.0625 -63.65625 C 8.019531 -64.632812 10.585938 -65.476562 12.765625 -66.1875 C 14.953125 -66.894531 17.117188 -67.703125 19.265625 -68.609375 C 21.410156 -69.523438 23.820312 -70.722656 26.5 -72.203125 C 27.90625 -72.972656 28.992188 -73.359375 29.765625 -73.359375 C 31.109375 -73.359375 31.988281 -72.65625 32.40625 -71.25 C 32.832031 -69.84375 33.046875 -68.117188 33.046875 -66.078125 C 33.046875 -64.035156 33.007812 -62.03125 32.9375 -60.0625 C 32.863281 -59.082031 32.828125 -57.34375 32.828125 -54.84375 C 32.828125 -52.34375 32.828125 -49.421875 32.828125 -46.078125 C 32.828125 -42.734375 32.828125 -39.226562 32.828125 -35.5625 C 32.828125 -31.90625 32.828125 -28.421875 32.828125 -25.109375 C 32.828125 -21.804688 32.828125 -18.925781 32.828125 -16.46875 Z M 32.828125 -16.46875 "/></g></g></g></g></g><g transform="matrix(1, 0, 0, 1, 126, 85)"><g clip-path="url(#6a822d4904)"><g fill="#32148a" fill-opacity="1"><g transform="translate(0.991138, 101.231227)"><g><path d="M 100.8125 -16.46875 C 100.8125 -14.425781 101.160156 -12.804688 101.859375 -11.609375 C 102.566406 -10.410156 103.359375 -9.40625 104.234375 -8.59375 C 105.117188 -7.789062 105.894531 -7.019531 106.5625 -6.28125 C 107.226562 -5.539062 107.492188 -4.644531 107.359375 -3.59375 C 107.285156 -2.601562 106.4375 -1.84375 104.8125 -1.3125 C 103.195312 -0.789062 101.296875 -0.40625 99.109375 -0.15625 C 96.929688 0.0898438 94.875 0.25 92.9375 0.3125 C 91.007812 0.382812 89.660156 0.421875 88.890625 0.421875 C 85.296875 0.421875 82.65625 -0.4375 80.96875 -2.15625 C 79.28125 -3.882812 78.1875 -6.050781 77.6875 -8.65625 C 77.195312 -11.257812 76.953125 -13.863281 76.953125 -16.46875 L 76.953125 -27.234375 C 76.953125 -29.554688 76.914062 -31.910156 76.84375 -34.296875 C 76.78125 -36.691406 76.429688 -38.695312 75.796875 -40.3125 C 75.160156 -41.9375 73.960938 -42.710938 72.203125 -42.640625 C 70.722656 -42.640625 69.578125 -41.972656 68.765625 -40.640625 C 67.960938 -39.304688 67.421875 -37.632812 67.140625 -35.625 C 66.859375 -33.625 66.679688 -31.601562 66.609375 -29.5625 C 66.609375 -28.007812 66.609375 -26.210938 66.609375 -24.171875 C 66.609375 -22.128906 66.570312 -19.5625 66.5 -16.46875 C 66.5 -14.425781 66.847656 -12.804688 67.546875 -11.609375 C 68.253906 -10.410156 69.046875 -9.40625 69.921875 -8.59375 C 70.804688 -7.789062 71.582031 -7.019531 72.25 -6.28125 C 72.925781 -5.539062 73.226562 -4.644531 73.15625 -3.59375 C 73.082031 -2.601562 72.234375 -1.84375 70.609375 -1.3125 C 68.992188 -0.789062 67.097656 -0.40625 64.921875 -0.15625 C 62.742188 0.0898438 60.6875 0.25 58.75 0.3125 C 56.8125 0.382812 55.457031 0.421875 54.6875 0.421875 C 51.09375 0.421875 48.453125 -0.4375 46.765625 -2.15625 C 45.078125 -3.882812 43.984375 -6.050781 43.484375 -8.65625 C 42.992188 -11.257812 42.75 -13.863281 42.75 -16.46875 L 42.75 -27.234375 C 42.75 -29.554688 42.710938 -31.910156 42.640625 -34.296875 C 42.578125 -36.691406 42.207031 -38.695312 41.53125 -40.3125 C 40.863281 -41.9375 39.6875 -42.710938 38 -42.640625 C 36.59375 -42.640625 35.484375 -42.003906 34.671875 -40.734375 C 33.867188 -39.472656 33.304688 -37.890625 32.984375 -35.984375 C 32.671875 -34.085938 32.476562 -32.15625 32.40625 -30.1875 C 32.40625 -28.425781 32.40625 -26.421875 32.40625 -24.171875 C 32.40625 -21.921875 32.40625 -19.351562 32.40625 -16.46875 C 32.40625 -14.425781 32.753906 -12.804688 33.453125 -11.609375 C 34.160156 -10.410156 34.953125 -9.40625 35.828125 -8.59375 C 36.710938 -7.789062 37.488281 -7.019531 38.15625 -6.28125 C 38.820312 -5.539062 39.085938 -4.644531 38.953125 -3.59375 C 38.878906 -2.601562 38.066406 -1.84375 36.515625 -1.3125 C 34.972656 -0.789062 33.128906 -0.40625 30.984375 -0.15625 C 28.835938 0.0898438 26.8125 0.25 24.90625 0.3125 C 23.007812 0.382812 21.675781 0.421875 20.90625 0.421875 C 20.125 0.421875 18.765625 0.382812 16.828125 0.3125 C 14.898438 0.25 12.84375 0.0742188 10.65625 -0.203125 C 8.476562 -0.492188 6.5625 -0.898438 4.90625 -1.421875 C 3.25 -1.953125 2.351562 -2.675781 2.21875 -3.59375 C 2.070312 -4.644531 2.316406 -5.539062 2.953125 -6.28125 C 3.585938 -7.019531 4.378906 -7.789062 5.328125 -8.59375 C 6.273438 -9.40625 7.117188 -10.425781 7.859375 -11.65625 C 8.597656 -12.894531 8.96875 -14.5 8.96875 -16.46875 L 8.96875 -27.234375 C 8.96875 -30.753906 8.664062 -33.234375 8.0625 -34.671875 C 7.46875 -36.117188 6.578125 -36.945312 5.390625 -37.15625 C 4.117188 -37.4375 3.203125 -37.984375 2.640625 -38.796875 C 2.078125 -39.609375 1.988281 -40.453125 2.375 -41.328125 C 2.757812 -42.203125 3.65625 -42.851562 5.0625 -43.28125 C 8.019531 -44.269531 10.46875 -45.128906 12.40625 -45.859375 C 14.34375 -46.597656 16.117188 -47.425781 17.734375 -48.34375 C 19.347656 -49.257812 21.144531 -50.421875 23.125 -51.828125 C 24.457031 -52.742188 25.582031 -53.203125 26.5 -53.203125 C 27.625 -53.203125 28.484375 -52.707031 29.078125 -51.71875 C 29.679688 -50.738281 30.175781 -49.457031 30.5625 -47.875 C 30.945312 -46.289062 31.316406 -44.65625 31.671875 -42.96875 C 33.492188 -46.476562 35.972656 -48.882812 39.109375 -50.1875 C 42.242188 -51.488281 45.640625 -52.140625 49.296875 -52.140625 C 53.304688 -52.140625 56.753906 -51.347656 59.640625 -49.765625 C 62.523438 -48.179688 64.53125 -45.878906 65.65625 -42.859375 C 67.28125 -46.234375 69.476562 -48.609375 72.25 -49.984375 C 75.03125 -51.359375 78.179688 -52.046875 81.703125 -52.046875 C 87.398438 -52.046875 92.007812 -50.515625 95.53125 -47.453125 C 99.050781 -44.390625 100.8125 -40.359375 100.8125 -35.359375 C 100.8125 -34.097656 100.8125 -32.957031 100.8125 -31.9375 C 100.8125 -30.914062 100.8125 -29.785156 100.8125 -28.546875 C 100.8125 -27.316406 100.8125 -25.75 100.8125 -23.84375 C 100.8125 -21.945312 100.8125 -19.488281 100.8125 -16.46875 Z M 100.8125 -16.46875 "/></g></g></g></g></g><g clip-path="url(#b835e3bf6f)"><g clip-path="url(#00948b0d02)"><g transform="matrix(1, 0, 0, 1, 175, 69)"><g clip-path="url(#2862473715)"><g clip-path="url(#3f8a4483d9)"><g clip-path="url(#910374382d)"><rect x="-241" width="432" fill="#a03d9d" height="431.999983" y="-134.999997" fill-opacity="1"/></g></g></g></g></g></g><g clip-path="url(#82a3fbbb80)"><g clip-path="url(#7761dca436)"><path stroke-linecap="butt" transform="matrix(0.75, 0, 0, 0.75, 154.942172, 49.389308)" fill="none" stroke-linejoin="miter" d="M 59.186484 28.100717 C 59.754193 43.923635 72.45211 56.621552 88.275028 57.189261 C 88.816695 57.210094 89.248987 57.652802 89.248987 58.194469 C 89.248987 58.736136 88.816695 59.184053 88.275028 59.199678 C 72.45211 59.767386 59.754193 72.465304 59.186484 88.29343 C 59.165651 88.835097 58.722942 89.26218 58.181276 89.26218 C 57.639609 89.26218 57.191692 88.835097 57.170859 88.29343 C 56.603151 72.465304 43.905233 59.767386 28.082315 59.199678 C 27.540648 59.184053 27.113565 58.736136 27.113565 58.194469 C 27.113565 57.652802 27.540648 57.210094 28.082315 57.189261 C 43.905233 56.621552 56.603151 43.923635 57.170859 28.100717 C 57.191692 27.553842 57.639609 27.126758 58.181276 27.126758 C 58.722942 27.126758 59.165651 27.553842 59.186484 28.100717 Z M 59.186484 28.100717 " stroke="#a03d9d" stroke-width="2" stroke-opacity="1" stroke-miterlimit="4"/></g></g></svg>