<svg xmlns="http://www.w3.org/2000/svg" xmlns:xlink="http://www.w3.org/1999/xlink" width="200" zoomAndPan="magnify" viewBox="0 0 150 149.999998" height="200" preserveAspectRatio="xMidYMid meet" version="1.0"><defs><clipPath id="e8d15f72dd"><path d="M 17.746094 2.183594 L 132.496094 2.183594 L 132.496094 147.683594 L 17.746094 147.683594 Z M 17.746094 2.183594 " clip-rule="nonzero"/></clipPath></defs><g clip-path="url(#e8d15f72dd)"><path fill="#a173af" d="M 106.203125 43.789062 C 105.179688 43.789062 104.167969 43.683594 103.164062 43.484375 C 102.160156 43.28125 101.1875 42.984375 100.242188 42.589844 C 99.296875 42.195312 98.398438 41.714844 97.546875 41.148438 C 96.695312 40.578125 95.910156 39.929688 95.183594 39.207031 C 94.460938 38.484375 93.816406 37.695312 93.246094 36.84375 C 92.675781 35.992188 92.195312 35.097656 91.800781 34.152344 C 91.410156 33.207031 91.109375 32.230469 90.910156 31.226562 C 90.707031 30.222656 90.605469 29.210938 90.601562 28.1875 L 90.601562 2.183594 L 33.390625 2.183594 C 32.367188 2.183594 31.351562 2.289062 30.347656 2.488281 C 29.347656 2.691406 28.371094 2.988281 27.425781 3.382812 C 26.480469 3.773438 25.582031 4.257812 24.734375 4.824219 C 23.882812 5.394531 23.09375 6.042969 22.371094 6.765625 C 21.648438 7.488281 21 8.277344 20.429688 9.128906 C 19.863281 9.976562 19.378906 10.875 18.988281 11.820312 C 18.59375 12.765625 18.296875 13.742188 18.09375 14.742188 C 17.894531 15.746094 17.789062 16.761719 17.789062 17.785156 L 17.789062 132.207031 C 17.789062 133.230469 17.894531 134.246094 18.09375 135.25 C 18.296875 136.253906 18.59375 137.226562 18.988281 138.171875 C 19.378906 139.117188 19.863281 140.015625 20.429688 140.867188 C 21 141.714844 21.648438 142.503906 22.371094 143.226562 C 23.09375 143.953125 23.882812 144.597656 24.734375 145.167969 C 25.582031 145.738281 26.480469 146.21875 27.425781 146.609375 C 28.371094 147.003906 29.347656 147.300781 30.351562 147.503906 C 31.351562 147.707031 32.367188 147.808594 33.390625 147.8125 L 116.605469 147.8125 C 117.628906 147.808594 118.644531 147.707031 119.648438 147.503906 C 120.652344 147.300781 121.625 147.003906 122.570312 146.609375 C 123.515625 146.21875 124.414062 145.738281 125.265625 145.167969 C 126.117188 144.597656 126.902344 143.953125 127.625 143.226562 C 128.351562 142.503906 128.996094 141.714844 129.566406 140.867188 C 130.136719 140.015625 130.617188 139.117188 131.011719 138.171875 C 131.402344 137.226562 131.699219 136.253906 131.902344 135.25 C 132.105469 134.246094 132.207031 133.230469 132.210938 132.207031 L 132.210938 43.789062 Z M 59.394531 28.1875 C 60.421875 28.1875 61.433594 28.285156 62.441406 28.488281 C 63.445312 28.6875 64.421875 28.984375 65.367188 29.375 C 66.3125 29.765625 67.210938 30.246094 68.0625 30.816406 C 68.917969 31.386719 69.703125 32.03125 70.429688 32.757812 C 71.152344 33.480469 71.800781 34.269531 72.367188 35.121094 C 72.9375 35.972656 73.417969 36.871094 73.8125 37.820312 C 74.203125 38.765625 74.5 39.742188 74.699219 40.746094 C 74.898438 41.75 75 42.765625 75 43.789062 C 75 44.816406 74.898438 45.828125 74.699219 46.835938 C 74.5 47.839844 74.203125 48.816406 73.8125 49.761719 C 73.417969 50.707031 72.9375 51.605469 72.367188 52.457031 C 71.800781 53.3125 71.152344 54.097656 70.429688 54.824219 C 69.703125 55.546875 68.917969 56.195312 68.0625 56.761719 C 67.210938 57.332031 66.3125 57.8125 65.367188 58.207031 C 64.421875 58.597656 63.445312 58.894531 62.441406 59.09375 C 61.433594 59.292969 60.421875 59.394531 59.394531 59.394531 C 58.371094 59.394531 57.355469 59.292969 56.351562 59.09375 C 55.347656 58.894531 54.371094 58.597656 53.425781 58.207031 C 52.476562 57.8125 51.578125 57.332031 50.726562 56.761719 C 49.875 56.195312 49.085938 55.546875 48.363281 54.824219 C 47.636719 54.097656 46.992188 53.3125 46.421875 52.457031 C 45.851562 51.605469 45.371094 50.707031 44.980469 49.761719 C 44.589844 48.816406 44.292969 47.839844 44.09375 46.835938 C 43.890625 45.828125 43.792969 44.816406 43.792969 43.789062 C 43.796875 42.765625 43.898438 41.753906 44.101562 40.75 C 44.300781 39.746094 44.597656 38.769531 44.992188 37.824219 C 45.386719 36.882812 45.867188 35.984375 46.4375 35.132812 C 47.003906 34.28125 47.652344 33.496094 48.375 32.769531 C 49.101562 32.046875 49.886719 31.398438 50.738281 30.832031 C 51.589844 30.261719 52.488281 29.78125 53.433594 29.386719 C 54.375 28.992188 55.351562 28.695312 56.355469 28.496094 C 57.359375 28.292969 58.371094 28.191406 59.394531 28.1875 Z M 38.589844 80.199219 C 38.59375 79.171875 38.695312 78.160156 38.898438 77.15625 C 39.101562 76.152344 39.398438 75.179688 39.792969 74.234375 C 40.183594 73.289062 40.664062 72.390625 41.234375 71.539062 C 41.804688 70.6875 42.449219 69.902344 43.175781 69.175781 C 43.898438 68.453125 44.6875 67.808594 45.535156 67.238281 C 46.386719 66.667969 47.285156 66.1875 48.230469 65.792969 C 49.175781 65.402344 50.148438 65.101562 51.152344 64.902344 C 52.15625 64.699219 53.171875 64.597656 54.195312 64.59375 L 64.597656 64.59375 C 65.621094 64.597656 66.632812 64.699219 67.636719 64.902344 C 68.640625 65.105469 69.617188 65.402344 70.5625 65.792969 C 71.503906 66.1875 72.402344 66.667969 73.253906 67.238281 C 74.105469 67.808594 74.890625 68.453125 75.617188 69.175781 C 76.339844 69.902344 76.988281 70.6875 77.554688 71.539062 C 78.125 72.390625 78.605469 73.289062 79 74.234375 C 79.394531 75.179688 79.691406 76.152344 79.890625 77.15625 C 80.09375 78.160156 80.195312 79.171875 80.199219 80.199219 L 80.199219 90.597656 C 80.199219 90.941406 80.164062 91.277344 80.097656 91.613281 C 80.03125 91.949219 79.929688 92.273438 79.800781 92.585938 C 79.667969 92.902344 79.507812 93.203125 79.320312 93.484375 C 79.128906 93.769531 78.914062 94.03125 78.671875 94.273438 C 78.429688 94.515625 78.167969 94.730469 77.882812 94.917969 C 77.601562 95.109375 77.300781 95.269531 76.988281 95.402344 C 76.671875 95.53125 76.347656 95.628906 76.011719 95.699219 C 75.679688 95.765625 75.339844 95.800781 75 95.800781 L 43.792969 95.800781 C 43.453125 95.800781 43.113281 95.765625 42.777344 95.699219 C 42.445312 95.628906 42.121094 95.53125 41.804688 95.402344 C 41.488281 95.269531 41.191406 95.109375 40.90625 94.917969 C 40.625 94.730469 40.359375 94.515625 40.121094 94.273438 C 39.878906 94.03125 39.664062 93.769531 39.472656 93.484375 C 39.28125 93.203125 39.121094 92.902344 38.992188 92.585938 C 38.859375 92.273438 38.761719 91.949219 38.695312 91.613281 C 38.625 91.277344 38.59375 90.941406 38.589844 90.597656 Z M 106.203125 121.804688 L 43.792969 121.804688 C 43.449219 121.804688 43.113281 121.773438 42.777344 121.707031 C 42.441406 121.640625 42.117188 121.539062 41.800781 121.410156 C 41.488281 121.277344 41.1875 121.117188 40.902344 120.929688 C 40.617188 120.738281 40.355469 120.523438 40.113281 120.28125 C 39.875 120.039062 39.65625 119.777344 39.46875 119.492188 C 39.277344 119.210938 39.117188 118.910156 38.988281 118.59375 C 38.855469 118.28125 38.757812 117.953125 38.691406 117.621094 C 38.625 117.285156 38.589844 116.945312 38.589844 116.605469 C 38.589844 116.261719 38.625 115.925781 38.691406 115.589844 C 38.757812 115.253906 38.855469 114.929688 38.988281 114.613281 C 39.117188 114.296875 39.277344 114 39.46875 113.714844 C 39.65625 113.429688 39.875 113.167969 40.113281 112.925781 C 40.355469 112.683594 40.617188 112.46875 40.902344 112.28125 C 41.1875 112.089844 41.488281 111.929688 41.800781 111.800781 C 42.117188 111.667969 42.441406 111.570312 42.777344 111.503906 C 43.113281 111.4375 43.449219 111.402344 43.792969 111.402344 L 106.203125 111.402344 C 106.546875 111.402344 106.882812 111.4375 107.21875 111.503906 C 107.554688 111.570312 107.878906 111.667969 108.195312 111.800781 C 108.511719 111.929688 108.808594 112.089844 109.09375 112.28125 C 109.378906 112.46875 109.640625 112.683594 109.882812 112.925781 C 110.125 113.167969 110.339844 113.429688 110.53125 113.714844 C 110.71875 114 110.878906 114.296875 111.011719 114.613281 C 111.140625 114.929688 111.238281 115.253906 111.304688 115.589844 C 111.371094 115.925781 111.40625 116.261719 111.40625 116.605469 C 111.40625 116.945312 111.371094 117.285156 111.304688 117.621094 C 111.238281 117.953125 111.140625 118.28125 111.011719 118.59375 C 110.878906 118.910156 110.71875 119.210938 110.53125 119.492188 C 110.339844 119.777344 110.125 120.039062 109.882812 120.28125 C 109.640625 120.523438 109.378906 120.738281 109.09375 120.929688 C 108.808594 121.117188 108.511719 121.277344 108.195312 121.410156 C 107.878906 121.539062 107.554688 121.640625 107.21875 121.707031 C 106.882812 121.773438 106.546875 121.804688 106.203125 121.804688 Z M 106.203125 95.800781 L 95.804688 95.800781 C 95.460938 95.800781 95.125 95.765625 94.789062 95.699219 C 94.453125 95.632812 94.128906 95.535156 93.8125 95.40625 C 93.496094 95.273438 93.195312 95.113281 92.914062 94.925781 C 92.628906 94.734375 92.367188 94.519531 92.125 94.277344 C 91.882812 94.035156 91.667969 93.773438 91.476562 93.488281 C 91.289062 93.203125 91.128906 92.90625 90.996094 92.589844 C 90.867188 92.273438 90.769531 91.949219 90.703125 91.613281 C 90.636719 91.277344 90.601562 90.941406 90.601562 90.597656 C 90.601562 90.257812 90.636719 89.917969 90.703125 89.585938 C 90.769531 89.25 90.867188 88.925781 90.996094 88.609375 C 91.128906 88.292969 91.289062 87.992188 91.476562 87.710938 C 91.667969 87.425781 91.882812 87.164062 92.125 86.921875 C 92.367188 86.679688 92.628906 86.464844 92.914062 86.273438 C 93.195312 86.085938 93.496094 85.925781 93.8125 85.792969 C 94.128906 85.664062 94.453125 85.566406 94.789062 85.5 C 95.125 85.433594 95.460938 85.398438 95.804688 85.398438 L 106.203125 85.398438 C 106.546875 85.398438 106.882812 85.433594 107.21875 85.5 C 107.554688 85.566406 107.878906 85.664062 108.195312 85.792969 C 108.511719 85.925781 108.808594 86.085938 109.09375 86.273438 C 109.378906 86.464844 109.640625 86.679688 109.882812 86.921875 C 110.125 87.164062 110.339844 87.425781 110.53125 87.710938 C 110.71875 87.992188 110.878906 88.292969 111.011719 88.609375 C 111.140625 88.925781 111.238281 89.25 111.304688 89.585938 C 111.371094 89.917969 111.40625 90.257812 111.40625 90.597656 C 111.40625 90.941406 111.371094 91.277344 111.304688 91.613281 C 111.238281 91.949219 111.140625 92.273438 111.011719 92.589844 C 110.878906 92.90625 110.71875 93.203125 110.53125 93.488281 C 110.339844 93.773438 110.125 94.035156 109.882812 94.277344 C 109.640625 94.519531 109.378906 94.734375 109.09375 94.925781 C 108.808594 95.113281 108.511719 95.273438 108.195312 95.40625 C 107.878906 95.535156 107.554688 95.632812 107.21875 95.699219 C 106.882812 95.765625 106.546875 95.800781 106.203125 95.800781 Z M 106.203125 69.796875 L 95.804688 69.796875 C 95.460938 69.796875 95.125 69.761719 94.789062 69.695312 C 94.453125 69.628906 94.128906 69.53125 93.8125 69.398438 C 93.496094 69.269531 93.195312 69.109375 92.914062 68.917969 C 92.628906 68.730469 92.367188 68.511719 92.125 68.273438 C 91.882812 68.03125 91.667969 67.769531 91.476562 67.484375 C 91.289062 67.199219 91.128906 66.898438 90.996094 66.585938 C 90.867188 66.269531 90.769531 65.945312 90.703125 65.609375 C 90.636719 65.273438 90.601562 64.9375 90.601562 64.59375 C 90.601562 64.253906 90.636719 63.914062 90.703125 63.578125 C 90.769531 63.246094 90.867188 62.917969 90.996094 62.605469 C 91.128906 62.289062 91.289062 61.988281 91.476562 61.703125 C 91.667969 61.421875 91.882812 61.15625 92.125 60.917969 C 92.367188 60.675781 92.628906 60.460938 92.914062 60.269531 C 93.195312 60.078125 93.496094 59.917969 93.8125 59.789062 C 94.128906 59.660156 94.453125 59.558594 94.789062 59.492188 C 95.125 59.425781 95.460938 59.394531 95.804688 59.394531 L 106.203125 59.394531 C 106.546875 59.394531 106.882812 59.425781 107.21875 59.492188 C 107.554688 59.558594 107.878906 59.660156 108.195312 59.789062 C 108.511719 59.917969 108.808594 60.078125 109.09375 60.269531 C 109.378906 60.460938 109.640625 60.675781 109.882812 60.917969 C 110.125 61.15625 110.339844 61.421875 110.53125 61.703125 C 110.71875 61.988281 110.878906 62.289062 111.011719 62.605469 C 111.140625 62.917969 111.238281 63.246094 111.304688 63.578125 C 111.371094 63.914062 111.40625 64.253906 111.40625 64.59375 C 111.40625 64.9375 111.371094 65.273438 111.304688 65.609375 C 111.238281 65.945312 111.140625 66.269531 111.011719 66.585938 C 110.878906 66.898438 110.71875 67.199219 110.53125 67.484375 C 110.339844 67.769531 110.125 68.03125 109.882812 68.273438 C 109.640625 68.511719 109.378906 68.730469 109.09375 68.917969 C 108.808594 69.109375 108.511719 69.269531 108.195312 69.398438 C 107.878906 69.53125 107.554688 69.628906 107.21875 69.695312 C 106.882812 69.761719 106.546875 69.796875 106.203125 69.796875 Z M 101.003906 28.1875 L 101.003906 5.199219 L 129.195312 33.386719 L 106.203125 33.386719 C 105.863281 33.386719 105.527344 33.351562 105.191406 33.285156 C 104.855469 33.21875 104.53125 33.117188 104.21875 32.988281 C 103.902344 32.855469 103.601562 32.695312 103.320312 32.507812 C 103.035156 32.316406 102.773438 32.101562 102.53125 31.859375 C 102.289062 31.617188 102.074219 31.355469 101.886719 31.074219 C 101.695312 30.789062 101.535156 30.488281 101.402344 30.175781 C 101.273438 29.859375 101.171875 29.535156 101.105469 29.199219 C 101.039062 28.867188 101.003906 28.527344 101.003906 28.1875 Z M 101.003906 28.1875 " fill-opacity="1" fill-rule="nonzero"/></g></svg>