<svg xmlns="http://www.w3.org/2000/svg" xmlns:xlink="http://www.w3.org/1999/xlink" width="200" zoomAndPan="magnify" viewBox="0 0 150 149.999998" height="200" preserveAspectRatio="xMidYMid meet" version="1.0"><defs><clipPath id="0f367ef25a"><path d="M 0 1.960938 L 150 1.960938 L 150 148.039062 L 0 148.039062 Z M 0 1.960938 " clip-rule="nonzero"/></clipPath><clipPath id="244511c6b4"><path d="M 30.75 1.960938 L 119.25 1.960938 C 136.234375 1.960938 150 15.726562 150 32.710938 L 150 117.289062 C 150 134.273438 136.234375 148.039062 119.25 148.039062 L 30.75 148.039062 C 13.765625 148.039062 0 134.273438 0 117.289062 L 0 32.710938 C 0 15.726562 13.765625 1.960938 30.75 1.960938 Z M 30.75 1.960938 " clip-rule="nonzero"/></clipPath><clipPath id="6fe1c890b1"><path d="M 0 0.960938 L 150 0.960938 L 150 147.039062 L 0 147.039062 Z M 0 0.960938 " clip-rule="nonzero"/></clipPath><clipPath id="d93e9a70a8"><path d="M 30.75 0.960938 L 119.25 0.960938 C 136.234375 0.960938 150 14.726562 150 31.710938 L 150 116.289062 C 150 133.273438 136.234375 147.039062 119.25 147.039062 L 30.75 147.039062 C 13.765625 147.039062 0 133.273438 0 116.289062 L 0 31.710938 C 0 14.726562 13.765625 0.960938 30.75 0.960938 Z M 30.75 0.960938 " clip-rule="nonzero"/></clipPath><clipPath id="ff9564375d"><rect x="0" width="150" y="0" height="148"/></clipPath><clipPath id="517641400c"><path d="M 21.53125 21.53125 L 128.78125 21.53125 L 128.78125 128.78125 L 21.53125 128.78125 Z M 21.53125 21.53125 " clip-rule="nonzero"/></clipPath></defs><g clip-path="url(#0f367ef25a)"><g clip-path="url(#244511c6b4)"><g transform="matrix(1, 0, 0, 1, 0, 1)"><g clip-path="url(#ff9564375d)"><g clip-path="url(#6fe1c890b1)"><g clip-path="url(#d93e9a70a8)"><path fill="#cbc5e5" d="M 0 0.960938 L 150.074219 0.960938 L 150.074219 147.039062 L 0 147.039062 Z M 0 0.960938 " fill-opacity="1" fill-rule="nonzero"/></g></g></g></g></g></g><g clip-path="url(#517641400c)"><path fill="#ffffff" d="M 52.839844 21.898438 C 47.152344 22.164062 43.269531 23.078125 39.875 24.40625 C 36.359375 25.777344 33.382812 27.609375 30.421875 30.585938 C 27.453125 33.5625 25.632812 36.546875 24.277344 40.066406 C 22.960938 43.472656 22.070312 47.355469 21.816406 53.046875 C 21.566406 58.742188 21.511719 60.5625 21.535156 75.078125 C 21.5625 89.589844 21.625 91.414062 21.898438 97.113281 C 22.171875 102.800781 23.078125 106.679688 24.40625 110.078125 C 25.777344 113.59375 27.609375 116.566406 30.585938 119.535156 C 33.5625 122.5 36.546875 124.320312 40.066406 125.679688 C 43.464844 126.992188 47.355469 127.890625 53.042969 128.136719 C 58.742188 128.390625 60.5625 128.445312 75.074219 128.414062 C 89.589844 128.390625 91.40625 128.324219 97.109375 128.050781 C 102.796875 127.78125 106.675781 126.867188 110.074219 125.542969 C 113.589844 124.167969 116.566406 122.339844 119.527344 119.363281 C 122.492188 116.386719 124.3125 113.402344 125.675781 109.882812 C 126.988281 106.484375 127.886719 102.59375 128.132812 96.914062 C 128.378906 91.210938 128.4375 89.386719 128.414062 74.875 C 128.390625 60.367188 128.320312 58.546875 128.050781 52.84375 C 127.78125 47.152344 126.871094 43.273438 125.542969 39.875 C 124.167969 36.359375 122.339844 33.386719 119.363281 30.421875 C 116.386719 27.460938 113.402344 25.632812 109.882812 24.277344 C 106.484375 22.960938 102.59375 22.066406 96.910156 21.816406 C 91.207031 21.566406 89.382812 21.511719 74.871094 21.535156 C 60.359375 21.5625 58.542969 21.625 52.839844 21.898438 M 53.464844 118.511719 C 48.257812 118.285156 45.425781 117.417969 43.539062 116.691406 C 41.039062 115.726562 39.261719 114.566406 37.382812 112.710938 C 35.507812 110.839844 34.351562 109.0625 33.371094 106.574219 C 32.640625 104.691406 31.761719 101.863281 31.515625 96.652344 C 31.246094 91.019531 31.1875 89.328125 31.160156 75.058594 C 31.136719 60.792969 31.1875 59.101562 31.433594 53.464844 C 31.65625 48.257812 32.527344 45.425781 33.25 43.542969 C 34.21875 41.042969 35.371094 39.265625 37.234375 37.386719 C 39.105469 35.511719 40.882812 34.355469 43.375 33.378906 C 45.261719 32.640625 48.085938 31.765625 53.292969 31.519531 C 58.929688 31.253906 60.617188 31.195312 74.886719 31.167969 C 89.15625 31.136719 90.847656 31.1875 96.484375 31.4375 C 101.691406 31.664062 104.523438 32.527344 106.40625 33.257812 C 108.90625 34.222656 110.6875 35.371094 112.5625 37.242188 C 114.4375 39.109375 115.601562 40.882812 116.574219 43.382812 C 117.308594 45.261719 118.183594 48.089844 118.429688 53.292969 C 118.699219 58.929688 118.757812 60.621094 118.785156 74.886719 C 118.808594 89.15625 118.757812 90.847656 118.511719 96.480469 C 118.285156 101.6875 117.417969 104.523438 116.691406 106.40625 C 115.726562 108.902344 114.574219 110.683594 112.703125 112.558594 C 110.835938 114.425781 109.0625 115.589844 106.5625 116.566406 C 104.683594 117.300781 101.855469 118.179688 96.652344 118.425781 C 91.015625 118.691406 89.328125 118.753906 75.054688 118.777344 C 60.789062 118.804688 59.097656 118.753906 53.460938 118.507812 M 97.035156 46.40625 C 97.039062 49.949219 99.921875 52.816406 103.457031 52.804688 C 106.996094 52.800781 109.863281 49.925781 109.859375 46.382812 C 109.851562 42.84375 106.972656 39.976562 103.429688 39.980469 C 99.890625 39.984375 97.023438 42.867188 97.027344 46.402344 M 47.53125 75.027344 C 47.5625 90.183594 59.871094 102.445312 75.023438 102.414062 C 90.179688 102.382812 102.445312 90.078125 102.414062 74.921875 C 102.382812 59.769531 90.074219 47.507812 74.917969 47.53125 C 59.765625 47.5625 47.5 59.871094 47.53125 75.027344 M 57.15625 75.007812 C 57.140625 65.171875 65.101562 57.175781 74.9375 57.160156 C 84.773438 57.140625 92.769531 65.101562 92.789062 74.941406 C 92.808594 84.78125 84.84375 92.773438 75.007812 92.789062 C 65.171875 92.808594 57.175781 84.84375 57.160156 75.007812 " fill-opacity="1" fill-rule="nonzero"/></g></svg>