<svg xmlns="http://www.w3.org/2000/svg" xmlns:xlink="http://www.w3.org/1999/xlink" width="200" zoomAndPan="magnify" viewBox="0 0 150 149.999998" height="200" preserveAspectRatio="xMidYMid meet" version="1.0"><defs><clipPath id="becc6d5251"><path d="M 1.515625 1.515625 L 148.515625 1.515625 L 148.515625 148.515625 L 1.515625 148.515625 Z M 1.515625 1.515625 " clip-rule="nonzero"/></clipPath></defs><g clip-path="url(#becc6d5251)"><path fill="#efe6c2" d="M 134.703125 107.105469 C 132.164062 107.105469 130.113281 105.054688 130.113281 102.515625 L 130.113281 15.296875 C 130.113281 12.761719 132.164062 10.703125 134.703125 10.703125 C 137.246094 10.703125 139.296875 12.761719 139.296875 15.296875 L 139.296875 102.515625 C 139.296875 105.054688 137.246094 107.105469 134.703125 107.105469 Z M 15.296875 107.105469 C 12.761719 107.105469 10.703125 105.054688 10.703125 102.515625 L 10.703125 15.296875 C 10.703125 12.761719 12.761719 10.703125 15.296875 10.703125 C 17.832031 10.703125 19.886719 12.761719 19.886719 15.296875 L 19.886719 102.515625 C 19.886719 105.054688 17.832031 107.105469 15.296875 107.105469 Z M 75 148.480469 C 72.464844 148.480469 70.40625 146.429688 70.40625 143.890625 L 70.40625 102.515625 C 70.40625 99.976562 72.464844 97.921875 75 97.921875 C 77.535156 97.921875 79.59375 99.976562 79.59375 102.515625 L 79.59375 143.890625 C 79.59375 146.429688 77.535156 148.480469 75 148.480469 Z M 47.445312 148.480469 C 46.820312 148.480469 46.191406 148.359375 45.578125 148.085938 C 43.265625 147.054688 42.21875 144.34375 43.25 142.023438 L 61.621094 100.691406 C 62.648438 98.375 65.355469 97.328125 67.683594 98.359375 C 70 99.390625 71.046875 102.101562 70.011719 104.421875 L 51.640625 145.753906 C 50.878906 147.460938 49.199219 148.480469 47.445312 148.480469 Z M 102.558594 148.480469 C 100.796875 148.480469 99.121094 147.46875 98.359375 145.753906 L 79.988281 104.421875 C 78.957031 102.101562 80 99.386719 82.320312 98.359375 C 84.644531 97.328125 87.359375 98.375 88.382812 100.691406 L 106.753906 142.023438 C 107.78125 144.34375 106.738281 147.058594 104.421875 148.085938 C 103.8125 148.359375 103.183594 148.480469 102.558594 148.480469 Z M 65.816406 82.347656 C 63.402344 82.347656 61.136719 81.40625 59.425781 79.703125 L 44.195312 64.472656 C 42.402344 62.679688 42.402344 59.773438 44.195312 57.980469 C 45.992188 56.183594 48.894531 56.183594 50.691406 57.980469 L 65.921875 73.207031 L 101.605469 37.3125 C 103.402344 35.515625 106.304688 35.515625 108.097656 37.3125 C 109.894531 39.109375 109.894531 42.011719 108.097656 43.808594 L 72.203125 79.703125 C 70.496094 81.40625 68.226562 82.347656 65.816406 82.347656 Z M 143.890625 19.886719 L 6.109375 19.886719 C 3.574219 19.886719 1.515625 17.832031 1.515625 15.296875 C 1.515625 12.761719 3.574219 10.703125 6.109375 10.703125 L 143.890625 10.703125 C 146.429688 10.703125 148.480469 12.761719 148.480469 15.296875 C 148.480469 17.832031 146.429688 19.886719 143.890625 19.886719 Z M 143.890625 107.105469 L 6.109375 107.105469 C 3.574219 107.105469 1.515625 105.054688 1.515625 102.515625 C 1.515625 99.976562 3.574219 97.921875 6.109375 97.921875 L 143.890625 97.921875 C 146.429688 97.921875 148.480469 99.976562 148.480469 102.515625 C 148.480469 105.054688 146.429688 107.105469 143.890625 107.105469 Z M 75 19.886719 C 72.464844 19.886719 70.40625 17.832031 70.40625 15.296875 L 70.40625 6.109375 C 70.40625 3.574219 72.464844 1.515625 75 1.515625 C 77.535156 1.515625 79.59375 3.574219 79.59375 6.109375 L 79.59375 15.296875 C 79.59375 17.832031 77.535156 19.886719 75 19.886719 Z M 75 19.886719 " fill-opacity="1" fill-rule="nonzero"/></g></svg>