<svg xmlns="http://www.w3.org/2000/svg" xmlns:xlink="http://www.w3.org/1999/xlink" width="200" zoomAndPan="magnify" viewBox="0 0 150 149.999998" height="200" preserveAspectRatio="xMidYMid meet" version="1.0"><defs><clipPath id="57005f877e"><path d="M 0 3.546875 L 150 3.546875 L 150 146.796875 L 0 146.796875 Z M 0 3.546875 " clip-rule="nonzero"/></clipPath></defs><g clip-path="url(#57005f877e)"><path fill="#fbca41" d="M 147.070312 65.632812 L 116.773438 95.234375 L 123.921875 137.027344 C 124.4375 140.007812 123.210938 143.011719 120.773438 144.785156 C 119.398438 145.792969 117.757812 146.300781 116.125 146.300781 C 114.859375 146.300781 113.601562 146 112.441406 145.390625 L 74.996094 125.65625 L 37.558594 145.390625 C 34.886719 146.800781 31.660156 146.5625 29.21875 144.785156 C 26.78125 143.007812 25.5625 140.007812 26.070312 137.027344 L 33.226562 95.234375 L 2.929688 65.632812 C 0.773438 63.527344 -0.00390625 60.371094 0.929688 57.5 C 1.863281 54.632812 4.335938 52.539062 7.316406 52.105469 L 49.179688 46.007812 L 67.898438 7.980469 C 69.226562 5.269531 71.980469 3.558594 74.992188 3.558594 C 78.007812 3.558594 80.761719 5.269531 82.09375 7.980469 L 100.8125 46.007812 L 142.675781 52.105469 C 145.65625 52.539062 148.132812 54.632812 149.0625 57.5 C 149.996094 60.371094 149.214844 63.527344 147.0625 65.632812 Z M 147.070312 65.632812 " fill-opacity="1" fill-rule="nonzero"/></g></svg>