<svg xmlns="http://www.w3.org/2000/svg" xmlns:xlink="http://www.w3.org/1999/xlink" width="200" zoomAndPan="magnify" viewBox="0 0 150 149.999998" height="200" preserveAspectRatio="xMidYMid meet" version="1.0"><defs><clipPath id="ba214647fb"><path d="M 2.488281 9.558594 L 147.238281 9.558594 L 147.238281 116 L 2.488281 116 Z M 2.488281 9.558594 " clip-rule="nonzero"/></clipPath><clipPath id="a42ee0ef06"><path d="M 18.585938 92.757812 L 131.410156 92.757812 L 131.410156 140.433594 L 18.585938 140.433594 Z M 18.585938 92.757812 " clip-rule="nonzero"/></clipPath></defs><g clip-path="url(#ba214647fb)"><path fill="#a072ae" d="M 34.15625 14.796875 L 95.441406 14.796875 L 95.441406 28.574219 C 95.441406 31.46875 97.785156 33.8125 100.679688 33.8125 L 115.839844 33.8125 L 115.835938 36.234375 L 34.164062 36.234375 Z M 138.117188 55.160156 L 134.53125 55.160156 L 134.53125 39.324219 C 134.53125 37.625 133.144531 36.234375 131.445312 36.234375 L 121.078125 36.234375 L 121.078125 30.265625 C 121.078125 29.75 120.859375 29.246094 120.484375 28.890625 L 100.519531 10.082031 C 100.167969 9.753906 99.707031 9.570312 99.226562 9.570312 L 33.695312 9.558594 C 32.378906 9.558594 31.183594 10.09375 30.320312 10.960938 C 29.457031 11.824219 28.917969 13.019531 28.917969 14.335938 L 28.917969 36.234375 L 18.554688 36.234375 C 16.855469 36.234375 15.464844 37.625 15.464844 39.324219 L 15.464844 55.160156 L 11.878906 55.160156 C 6.722656 55.160156 2.539062 59.34375 2.539062 64.5 L 2.539062 105.9375 C 2.539062 111.097656 6.722656 115.277344 11.878906 115.277344 L 138.117188 115.277344 C 143.273438 115.277344 147.457031 111.097656 147.457031 105.9375 L 147.457031 64.5 C 147.457031 59.34375 143.273438 55.160156 138.117188 55.160156 " fill-opacity="1" fill-rule="nonzero"/></g><path fill="#f6ffe9" d="M 115.839844 33.8125 L 115.828125 55.160156 L 34.171875 55.160156 L 34.15625 14.796875 L 95.441406 14.796875 L 95.441406 28.574219 C 95.441406 31.460938 97.792969 33.8125 100.675781 33.8125 L 115.839844 33.8125 " fill-opacity="1" fill-rule="nonzero"/><path fill="#f6ffe9" d="M 23.636719 137.929688 C 22.886719 137.929688 22.175781 137.59375 21.703125 137.015625 C 21.226562 136.4375 21.035156 135.675781 21.183594 134.941406 L 28.675781 97.308594 C 28.910156 96.136719 29.9375 95.296875 31.128906 95.296875 L 118.867188 95.296875 C 120.0625 95.296875 121.085938 96.136719 121.320312 97.308594 L 128.816406 134.941406 C 128.960938 135.675781 128.773438 136.4375 128.296875 137.015625 C 127.820312 137.59375 127.109375 137.929688 126.363281 137.929688 L 23.636719 137.929688 " fill-opacity="1" fill-rule="nonzero"/><g clip-path="url(#a42ee0ef06)"><path fill="#a072ae" d="M 118.867188 92.792969 L 31.128906 92.792969 C 28.742188 92.792969 26.6875 94.480469 26.222656 96.820312 L 18.730469 134.453125 C 18.4375 135.921875 18.816406 137.445312 19.765625 138.601562 C 20.71875 139.761719 22.136719 140.433594 23.636719 140.433594 L 126.363281 140.433594 C 127.859375 140.433594 129.28125 139.761719 130.230469 138.601562 C 131.179688 137.445312 131.5625 135.921875 131.269531 134.453125 L 123.773438 96.820312 C 123.308594 94.480469 121.253906 92.792969 118.867188 92.792969 Z M 118.867188 97.796875 L 126.363281 135.429688 L 23.636719 135.429688 L 31.128906 97.796875 L 118.867188 97.796875 " fill-opacity="1" fill-rule="nonzero"/></g><path fill="#a072ae" d="M 111.6875 126.328125 L 38.308594 126.328125 C 36.929688 126.328125 35.808594 125.207031 35.808594 123.824219 C 35.808594 122.445312 36.929688 121.324219 38.308594 121.324219 L 111.6875 121.324219 C 113.070312 121.324219 114.1875 122.445312 114.1875 123.824219 C 114.1875 125.207031 113.070312 126.328125 111.6875 126.328125 " fill-opacity="1" fill-rule="nonzero"/><path fill="#a072ae" d="M 108.808594 111.902344 L 41.1875 111.902344 C 39.804688 111.902344 38.683594 110.78125 38.683594 109.402344 C 38.683594 108.019531 39.804688 106.898438 41.1875 106.898438 L 108.808594 106.898438 C 110.191406 106.898438 111.3125 108.019531 111.3125 109.402344 C 111.3125 110.78125 110.191406 111.902344 108.808594 111.902344 " fill-opacity="1" fill-rule="nonzero"/><path fill="#f6ffe9" d="M 16.796875 73.339844 C 14.6875 73.339844 12.960938 71.613281 12.960938 69.5 C 12.960938 67.390625 14.6875 65.667969 16.796875 65.667969 C 18.90625 65.667969 20.632812 67.390625 20.632812 69.5 C 20.632812 71.613281 18.90625 73.339844 16.796875 73.339844 " fill-opacity="1" fill-rule="nonzero"/></svg>