<svg xmlns="http://www.w3.org/2000/svg" xmlns:xlink="http://www.w3.org/1999/xlink" width="200" zoomAndPan="magnify" viewBox="0 0 150 149.999998" height="200" preserveAspectRatio="xMidYMid meet" version="1.0"><defs><clipPath id="ab5462b542"><path d="M 6.777344 6.414062 L 143.222656 6.414062 L 143.222656 142.859375 L 6.777344 142.859375 Z M 6.777344 6.414062 " clip-rule="nonzero"/></clipPath><clipPath id="73536aa626"><path d="M 76.925781 8.023438 L 87.535156 52.15625 C 88.714844 57.078125 92.558594 60.921875 97.484375 62.105469 L 141.617188 72.710938 C 142.507812 72.925781 143.136719 73.722656 143.136719 74.636719 C 143.136719 75.554688 142.507812 76.351562 141.617188 76.566406 L 97.484375 87.171875 C 92.558594 88.355469 88.714844 92.199219 87.535156 97.121094 L 76.925781 141.253906 C 76.714844 142.144531 75.917969 142.773438 75 142.773438 C 74.082031 142.773438 73.285156 142.144531 73.074219 141.253906 L 62.464844 97.121094 C 61.285156 92.199219 57.441406 88.355469 52.515625 87.171875 L 8.382812 76.566406 C 7.492188 76.351562 6.863281 75.554688 6.863281 74.636719 C 6.863281 73.722656 7.492188 72.925781 8.382812 72.710938 L 52.515625 62.105469 C 57.441406 60.921875 61.285156 57.078125 62.464844 52.15625 L 73.074219 8.023438 C 73.285156 7.128906 74.082031 6.503906 75 6.503906 C 75.917969 6.503906 76.714844 7.128906 76.925781 8.023438 Z M 76.925781 8.023438 " clip-rule="nonzero"/></clipPath><clipPath id="4ed8605a46"><path d="M 0.777344 0.480469 L 137.222656 0.480469 L 137.222656 136.800781 L 0.777344 136.800781 Z M 0.777344 0.480469 " clip-rule="nonzero"/></clipPath><clipPath id="5e77e615f8"><path d="M 70.925781 2.023438 L 81.535156 46.15625 C 82.714844 51.078125 86.558594 54.921875 91.484375 56.105469 L 135.617188 66.710938 C 136.507812 66.925781 137.136719 67.722656 137.136719 68.636719 C 137.136719 69.554688 136.507812 70.351562 135.617188 70.566406 L 91.484375 81.171875 C 86.558594 82.355469 82.714844 86.199219 81.535156 91.121094 L 70.925781 135.253906 C 70.714844 136.144531 69.917969 136.773438 69 136.773438 C 68.082031 136.773438 67.285156 136.144531 67.074219 135.253906 L 56.464844 91.121094 C 55.285156 86.199219 51.441406 82.355469 46.515625 81.171875 L 2.382812 70.566406 C 1.492188 70.351562 0.863281 69.554688 0.863281 68.636719 C 0.863281 67.722656 1.492188 66.925781 2.382812 66.710938 L 46.515625 56.105469 C 51.441406 54.921875 55.285156 51.078125 56.464844 46.15625 L 67.074219 2.023438 C 67.285156 1.128906 68.082031 0.503906 69 0.503906 C 69.917969 0.503906 70.714844 1.128906 70.925781 2.023438 Z M 70.925781 2.023438 " clip-rule="nonzero"/></clipPath><clipPath id="23e6ce8fdd"><rect x="0" width="138" y="0" height="137"/></clipPath></defs><g clip-path="url(#ab5462b542)"><g clip-path="url(#73536aa626)"><g transform="matrix(1, 0, 0, 1, 6, 6)"><g clip-path="url(#23e6ce8fdd)"><g clip-path="url(#4ed8605a46)"><g clip-path="url(#5e77e615f8)"><rect x="-39" width="216" fill="#f3e0a5" height="215.999996" y="-38.999999" fill-opacity="1"/></g></g></g></g></g></g></svg>