<svg width="64" height="64" viewBox="0 0 64 64" xmlns="http://www.w3.org/2000/svg">
  <defs>
    <filter id="glow" x="-80%" y="-80%" width="260%" height="260%">
      <feGaussianBlur stdDeviation="3.8" result="blur"></feGaussianBlur>
      <feColorMatrix in="blur" type="matrix" values="
          1 0 0 0 1
          0 1 0 0 0.72
          0 0 1 0 0.16
          0 0 0 0.85 0" result="goldGlow"></feColorMatrix>
      <feMerge>
        <feMergeNode in="goldGlow"></feMergeNode>
        <feMergeNode in="SourceGraphic"></feMergeNode>
      </feMerge>
    </filter>

    <radialGradient id="starFill" cx="50%" cy="45%" r="55%">
      <stop offset="0%" stop-color="#fff8c7"></stop>
      <stop offset="45%" stop-color="#ffdc7e"></stop>
      <stop offset="100%" stop-color="#ffc94f"></stop>
    </radialGradient>
  </defs>

  <rect width="64" height="64" fill="transparent"></rect>

  <path d="M32 4
       C35.7 23.5 40.5 28.3 60 32
       C40.5 35.7 35.7 40.5 32 60
       C28.3 40.5 23.5 35.7 4 32
       C23.5 28.3 28.3 23.5 32 4Z" fill="url(#starFill)" filter="url(#glow)"></path>

  <path d="M32 17
       C33.8 26.3 37.7 30.2 47 32
       C37.7 33.8 33.8 37.7 32 47
       C30.2 37.7 26.3 33.8 17 32
       C26.3 30.2 30.2 26.3 32 17Z" fill="#fffbe1" opacity="0.92"></path>
</svg>