<svg xmlns="http://www.w3.org/2000/svg" xmlns:xlink="http://www.w3.org/1999/xlink" width="460" zoomAndPan="magnify" viewBox="0 0 345 76.499998" height="102" preserveAspectRatio="xMidYMid meet" version="1.0"><defs><clipPath id="f5a35bbe0f"><path d="M 154 0 L 162 0 L 162 75.257812 L 154 75.257812 Z M 154 0 " clip-rule="nonzero"/></clipPath><clipPath id="ff61e23c2e"><path d="M 141 0 L 146 0 L 146 75.257812 L 141 75.257812 Z M 141 0 " clip-rule="nonzero"/></clipPath><clipPath id="78511ecc23"><path d="M 132 0 L 137 0 L 137 75.257812 L 132 75.257812 Z M 132 0 " clip-rule="nonzero"/></clipPath><clipPath id="f9149accd4"><path d="M 123 0 L 128 0 L 128 75.257812 L 123 75.257812 Z M 123 0 " clip-rule="nonzero"/></clipPath><clipPath id="7c72e3a082"><path d="M 170 0 L 172.5 0 L 172.5 75.257812 L 170 75.257812 Z M 170 0 " clip-rule="nonzero"/></clipPath><clipPath id="84d4d636a7"><path d="M 1.121094 0 L 4 0 L 4 75 L 1.121094 75 Z M 1.121094 0 " clip-rule="nonzero"/></clipPath><clipPath id="a91baa43d7"><path d="M 166 0 L 169 0 L 169 75.257812 L 166 75.257812 Z M 166 0 " clip-rule="nonzero"/></clipPath><clipPath id="e4ead0d5f9"><path d="M 150 0 L 153 0 L 153 75.257812 L 150 75.257812 Z M 150 0 " clip-rule="nonzero"/></clipPath><clipPath id="e87d72388f"><path d="M 116 0 L 119 0 L 119 75.257812 L 116 75.257812 Z M 116 0 " clip-rule="nonzero"/></clipPath><clipPath id="76dd12da42"><path d="M 103 0 L 106 0 L 106 75.257812 L 103 75.257812 Z M 103 0 " clip-rule="nonzero"/></clipPath><clipPath id="d732e185a6"><path d="M 128 0 L 131 0 L 131 75.257812 L 128 75.257812 Z M 128 0 " clip-rule="nonzero"/></clipPath><clipPath id="170bf40377"><path d="M 163 0 L 166 0 L 166 75.257812 L 163 75.257812 Z M 163 0 " clip-rule="nonzero"/></clipPath><clipPath id="9dc6309cd7"><path d="M 325 0 L 333 0 L 333 75.257812 L 325 75.257812 Z M 325 0 " clip-rule="nonzero"/></clipPath><clipPath id="51d6bdd154"><path d="M 312 0 L 317 0 L 317 75.257812 L 312 75.257812 Z M 312 0 " clip-rule="nonzero"/></clipPath><clipPath id="1873440290"><path d="M 303 0 L 308 0 L 308 75.257812 L 303 75.257812 Z M 303 0 " clip-rule="nonzero"/></clipPath><clipPath id="dab4144231"><path d="M 294 0 L 299 0 L 299 75.257812 L 294 75.257812 Z M 294 0 " clip-rule="nonzero"/></clipPath><clipPath id="a0ad23c254"><path d="M 341 0 L 343.621094 0 L 343.621094 75.257812 L 341 75.257812 Z M 341 0 " clip-rule="nonzero"/></clipPath><clipPath id="7f8909f064"><path d="M 172.242188 0 L 175 0 L 175 75 L 172.242188 75 Z M 172.242188 0 " clip-rule="nonzero"/></clipPath><clipPath id="725a57792a"><path d="M 337 0 L 340 0 L 340 75.257812 L 337 75.257812 Z M 337 0 " clip-rule="nonzero"/></clipPath><clipPath id="a29c297d89"><path d="M 321 0 L 324 0 L 324 75.257812 L 321 75.257812 Z M 321 0 " clip-rule="nonzero"/></clipPath><clipPath id="f0de59234e"><path d="M 287 0 L 290 0 L 290 75.257812 L 287 75.257812 Z M 287 0 " clip-rule="nonzero"/></clipPath><clipPath id="264d8313c4"><path d="M 274 0 L 277 0 L 277 75.257812 L 274 75.257812 Z M 274 0 " clip-rule="nonzero"/></clipPath><clipPath id="06b8e5dce6"><path d="M 300 0 L 302 0 L 302 75.257812 L 300 75.257812 Z M 300 0 " clip-rule="nonzero"/></clipPath><clipPath id="9e77699cc0"><path d="M 334 0 L 337 0 L 337 75.257812 L 334 75.257812 Z M 334 0 " clip-rule="nonzero"/></clipPath></defs><g clip-path="url(#f5a35bbe0f)"><path fill="#1d0062" d="M 161.226562 75.023438 C 158.859375 75.019531 156.546875 75.015625 154.164062 75.011719 C 154.203125 50.109375 154.246094 25.261719 154.285156 0.363281 C 156.636719 0.367188 158.953125 0.371094 161.351562 0.375 C 161.308594 25.226562 161.269531 50.074219 161.226562 75.023438 Z M 161.226562 75.023438 " fill-opacity="1" fill-rule="nonzero"/></g><path fill="#1d0062" d="M 76.910156 0.222656 C 78.71875 0.226562 80.421875 0.230469 82.191406 0.234375 C 82.148438 25.128906 82.109375 49.980469 82.066406 74.886719 C 80.304688 74.882812 78.582031 74.882812 76.789062 74.878906 C 76.828125 49.996094 76.871094 25.144531 76.910156 0.222656 Z M 76.910156 0.222656 " fill-opacity="1" fill-rule="nonzero"/><path fill="#1d0062" d="M 28.082031 74.800781 C 26.320312 74.796875 24.59375 74.792969 22.808594 74.789062 C 22.847656 49.902344 22.890625 25.054688 22.933594 0.152344 C 24.671875 0.152344 26.398438 0.15625 28.207031 0.160156 C 28.164062 25.019531 28.125 49.882812 28.082031 74.800781 Z M 28.082031 74.800781 " fill-opacity="1" fill-rule="nonzero"/><path fill="#1d0062" d="M 65.835938 74.863281 C 64.089844 74.859375 62.367188 74.859375 60.570312 74.855469 C 60.613281 49.964844 60.652344 25.125 60.695312 0.21875 C 62.429688 0.21875 64.152344 0.222656 65.960938 0.226562 C 65.917969 25.082031 65.878906 49.949219 65.835938 74.863281 Z M 65.835938 74.863281 " fill-opacity="1" fill-rule="nonzero"/><path fill="#1d0062" d="M 51.574219 74.890625 C 51.617188 49.945312 51.660156 25.117188 51.699219 0.214844 C 53.441406 0.214844 55.164062 0.21875 57 0.222656 C 57.019531 0.441406 57.050781 0.6875 57.050781 0.933594 C 57.03125 15.328125 57.003906 29.71875 56.984375 44.109375 C 56.96875 54.015625 56.957031 63.921875 56.945312 73.824219 C 56.941406 74.886719 56.941406 74.890625 55.699219 74.894531 C 54.367188 74.898438 53.035156 74.894531 51.574219 74.890625 Z M 51.574219 74.890625 " fill-opacity="1" fill-rule="nonzero"/><path fill="#1d0062" d="M 44.261719 74.832031 C 43.105469 74.828125 42 74.828125 40.804688 74.824219 C 40.84375 49.960938 40.886719 25.117188 40.925781 0.195312 C 42.035156 0.199219 43.164062 0.199219 44.386719 0.203125 C 44.34375 25.054688 44.304688 49.917969 44.261719 74.832031 Z M 44.261719 74.832031 " fill-opacity="1" fill-rule="nonzero"/><path fill="#1d0062" d="M 91.296875 0.246094 C 92.484375 0.25 93.59375 0.25 94.792969 0.253906 C 94.808594 0.5625 94.839844 0.835938 94.839844 1.109375 C 94.816406 16.554688 94.785156 32.003906 94.761719 47.449219 C 94.75 56.21875 94.742188 64.988281 94.734375 73.753906 C 94.730469 75.230469 94.75 74.914062 93.273438 74.953125 C 92.597656 74.972656 91.917969 74.953125 91.171875 74.953125 C 91.214844 50.019531 91.253906 25.175781 91.296875 0.246094 Z M 91.296875 0.246094 " fill-opacity="1" fill-rule="nonzero"/><g clip-path="url(#ff61e23c2e)"><path fill="#1d0062" d="M 145.011719 75.03125 C 143.96875 75.03125 142.976562 75.0625 141.992188 74.996094 C 141.8125 74.984375 141.53125 74.578125 141.527344 74.355469 C 141.5 71.464844 141.507812 68.574219 141.511719 65.6875 C 141.53125 54.828125 141.550781 43.96875 141.570312 33.109375 C 141.585938 22.429688 141.605469 11.75 141.605469 1.070312 C 141.605469 0.472656 141.796875 0.234375 142.550781 0.28125 C 143.382812 0.332031 144.222656 0.292969 145.136719 0.296875 C 145.09375 25.210938 145.054688 50.058594 145.011719 75.03125 Z M 145.011719 75.03125 " fill-opacity="1" fill-rule="nonzero"/></g><g clip-path="url(#78511ecc23)"><path fill="#1d0062" d="M 132.710938 0.320312 C 133.886719 0.320312 134.992188 0.324219 136.238281 0.324219 C 136.238281 1.082031 136.238281 1.792969 136.234375 2.507812 C 136.207031 17.46875 136.175781 32.433594 136.148438 47.398438 C 136.132812 56.269531 136.128906 65.144531 136.117188 74.019531 C 136.117188 74.683594 135.707031 75.015625 134.890625 75.019531 C 134.238281 75.019531 133.582031 75.019531 132.929688 75.015625 C 132.839844 75.015625 132.753906 74.980469 132.585938 74.949219 C 132.628906 50.101562 132.667969 25.25 132.710938 0.320312 Z M 132.710938 0.320312 " fill-opacity="1" fill-rule="nonzero"/></g><path fill="#1d0062" d="M 107.511719 0.234375 C 108.445312 0.234375 109.285156 0.273438 110.117188 0.226562 C 110.871094 0.1875 111.066406 0.429688 111.0625 1.023438 C 111.027344 4.457031 111.035156 7.886719 111.027344 11.316406 C 111.007812 22.179688 110.988281 33.039062 110.96875 43.898438 C 110.953125 54.011719 110.929688 64.125 110.925781 74.238281 C 110.925781 74.792969 110.773438 75.039062 110.039062 74.992188 C 109.179688 74.9375 108.3125 74.976562 107.386719 74.976562 C 107.425781 50.046875 107.46875 25.195312 107.511719 0.234375 Z M 107.511719 0.234375 " fill-opacity="1" fill-rule="nonzero"/><path fill="#1d0062" d="M 33.613281 74.859375 C 33.652344 49.910156 33.695312 25.058594 33.734375 0.160156 C 34.886719 0.160156 35.992188 0.164062 37.210938 0.167969 C 37.230469 0.476562 37.269531 0.773438 37.269531 1.070312 C 37.238281 19.074219 37.203125 37.078125 37.167969 55.085938 C 37.15625 61.378906 37.136719 67.671875 37.15625 73.964844 C 37.15625 74.65625 36.96875 74.953125 36.078125 74.878906 C 35.28125 74.8125 34.476562 74.863281 33.613281 74.859375 Z M 33.613281 74.859375 " fill-opacity="1" fill-rule="nonzero"/><g clip-path="url(#f9149accd4)"><path fill="#1d0062" d="M 123.644531 0.3125 C 124.914062 0.3125 126.019531 0.316406 127.242188 0.316406 C 127.242188 1.414062 127.238281 2.464844 127.238281 3.515625 C 127.214844 16.519531 127.191406 29.523438 127.171875 42.523438 C 127.152344 53.078125 127.132812 63.628906 127.132812 74.179688 C 127.132812 74.792969 126.976562 75.039062 126.164062 75.03125 C 123.511719 75.011719 123.519531 75.035156 123.523438 72.871094 C 123.550781 53.777344 123.578125 34.6875 123.605469 15.597656 C 123.613281 10.773438 123.628906 5.945312 123.640625 1.121094 C 123.640625 0.871094 123.644531 0.617188 123.644531 0.3125 Z M 123.644531 0.3125 " fill-opacity="1" fill-rule="nonzero"/></g><g clip-path="url(#7c72e3a082)"><path fill="#1d0062" d="M 170.328125 75 C 170.367188 50.136719 170.410156 25.308594 170.453125 0.480469 C 170.582031 0.445312 170.667969 0.40625 170.75 0.402344 C 172.214844 0.335938 172.222656 0.335938 172.222656 1.4375 C 172.199219 15.015625 172.175781 28.597656 172.15625 42.175781 C 172.140625 52.789062 172.125 63.398438 172.113281 74.007812 C 172.113281 75.203125 172.058594 75.238281 170.328125 75 Z M 170.328125 75 " fill-opacity="1" fill-rule="nonzero"/></g><g clip-path="url(#84d4d636a7)"><path fill="#1d0062" d="M 3.089844 0.171875 C 3.089844 1.214844 3.089844 2.222656 3.085938 3.230469 C 3.054688 19.339844 3.027344 35.453125 2.996094 51.566406 C 2.984375 59.070312 2.964844 66.574219 2.972656 74.078125 C 2.972656 74.628906 2.808594 74.851562 2 74.828125 C 1.296875 74.804688 1.109375 74.632812 1.117188 74.132812 C 1.152344 71.09375 1.144531 68.054688 1.152344 65.015625 C 1.167969 55.351562 1.183594 45.683594 1.199219 36.015625 C 1.214844 26.324219 1.234375 16.636719 1.25 6.945312 C 1.253906 5.035156 1.253906 3.125 1.265625 1.214844 C 1.269531 0.0195312 1.277344 0.0195312 3.089844 0.171875 Z M 3.089844 0.171875 " fill-opacity="1" fill-rule="nonzero"/></g><path fill="#1d0062" d="M 6.464844 74.765625 C 6.273438 74.785156 6.128906 74.808594 5.976562 74.8125 C 5.148438 74.835938 4.730469 74.542969 4.730469 73.9375 C 4.761719 57 4.796875 40.058594 4.828125 23.121094 C 4.839844 15.734375 4.851562 8.347656 4.863281 0.957031 C 4.863281 0.710938 4.863281 0.460938 4.867188 0.160156 C 5.476562 0.164062 5.988281 0.164062 6.585938 0.164062 C 6.546875 25 6.503906 49.84375 6.464844 74.765625 Z M 6.464844 74.765625 " fill-opacity="1" fill-rule="nonzero"/><g clip-path="url(#a91baa43d7)"><path fill="#1d0062" d="M 166.734375 75 C 166.773438 50.140625 166.816406 25.316406 166.855469 0.4375 C 167.410156 0.4375 167.917969 0.4375 168.546875 0.4375 C 168.570312 0.636719 168.617188 0.851562 168.617188 1.070312 C 168.605469 10.988281 168.589844 20.90625 168.574219 30.828125 C 168.558594 40.46875 168.542969 50.113281 168.53125 59.757812 C 168.523438 64.519531 168.515625 69.285156 168.511719 74.050781 C 168.511719 75.199219 168.492188 75.210938 166.734375 75 Z M 166.734375 75 " fill-opacity="1" fill-rule="nonzero"/></g><path fill="#1d0062" d="M 84.109375 0.285156 C 84.691406 0.285156 85.203125 0.285156 85.78125 0.289062 C 85.738281 25.167969 85.699219 50.007812 85.65625 74.898438 C 85.097656 74.898438 84.585938 74.898438 83.988281 74.898438 C 84.027344 50.035156 84.070312 25.179688 84.109375 0.285156 Z M 84.109375 0.285156 " fill-opacity="1" fill-rule="nonzero"/><path fill="#1d0062" d="M 87.640625 0.277344 C 88.308594 0.277344 88.800781 0.277344 89.375 0.277344 C 89.335938 25.15625 89.292969 50.011719 89.253906 74.898438 C 88.988281 74.921875 88.777344 74.933594 88.570312 74.957031 C 87.777344 75.042969 87.496094 74.839844 87.5 74.207031 C 87.546875 61.917969 87.570312 49.628906 87.589844 37.339844 C 87.609375 25.832031 87.621094 14.328125 87.636719 2.820312 C 87.640625 1.996094 87.640625 1.171875 87.640625 0.277344 Z M 87.640625 0.277344 " fill-opacity="1" fill-rule="nonzero"/><path fill="#1d0062" d="M 96.558594 74.867188 C 96.597656 49.988281 96.640625 25.15625 96.683594 0.269531 C 97.246094 0.269531 97.761719 0.269531 98.390625 0.269531 C 98.40625 0.539062 98.4375 0.8125 98.433594 1.082031 C 98.414062 15.527344 98.386719 29.972656 98.367188 44.417969 C 98.351562 54.195312 98.34375 63.972656 98.332031 73.75 C 98.332031 75.085938 98.308594 75.105469 96.558594 74.867188 Z M 96.558594 74.867188 " fill-opacity="1" fill-rule="nonzero"/><path fill="#1d0062" d="M 73.121094 74.875 C 72.464844 74.875 71.953125 74.871094 71.375 74.871094 C 71.417969 49.980469 71.460938 25.128906 71.5 0.289062 C 71.582031 0.25 71.628906 0.207031 71.683594 0.203125 C 72.734375 0.140625 73.257812 0.546875 73.257812 1.425781 C 73.226562 19.945312 73.195312 38.46875 73.164062 56.988281 C 73.152344 62.636719 73.136719 68.285156 73.121094 73.933594 C 73.121094 74.214844 73.121094 74.496094 73.121094 74.875 Z M 73.121094 74.875 " fill-opacity="1" fill-rule="nonzero"/><g clip-path="url(#e4ead0d5f9)"><path fill="#1d0062" d="M 150.671875 0.359375 C 151.277344 0.359375 151.792969 0.359375 152.4375 0.359375 C 152.4375 0.710938 152.4375 1.011719 152.4375 1.316406 C 152.402344 19.347656 152.367188 37.382812 152.332031 55.414062 C 152.324219 61.554688 152.316406 67.695312 152.300781 73.835938 C 152.300781 75.195312 152.292969 75.195312 150.550781 74.960938 C 150.589844 50.117188 150.632812 25.265625 150.671875 0.359375 Z M 150.671875 0.359375 " fill-opacity="1" fill-rule="nonzero"/></g><path fill="#1d0062" d="M 30.035156 0.179688 C 30.285156 0.144531 30.433594 0.113281 30.582031 0.109375 C 30.953125 0.101562 31.324219 0.109375 31.800781 0.109375 C 31.824219 0.429688 31.863281 0.699219 31.863281 0.972656 C 31.835938 18.902344 31.804688 36.828125 31.769531 54.757812 C 31.757812 61.128906 31.75 67.5 31.738281 73.871094 C 31.734375 74.851562 31.519531 75.019531 30.394531 74.824219 C 30.207031 74.792969 30.007812 74.5625 29.933594 74.390625 C 29.851562 74.210938 29.914062 73.984375 29.914062 73.777344 C 29.953125 49.605469 29.992188 25.433594 30.03125 1.261719 C 30.035156 0.90625 30.035156 0.554688 30.035156 0.179688 Z M 30.035156 0.179688 " fill-opacity="1" fill-rule="nonzero"/><path fill="#1d0062" d="M 69.464844 74.855469 C 69.253906 74.875 69.105469 74.902344 68.953125 74.90625 C 68.128906 74.929688 67.714844 74.597656 67.714844 73.917969 C 67.75 56.96875 67.78125 40.023438 67.8125 23.078125 C 67.828125 15.777344 67.839844 8.480469 67.851562 1.179688 C 67.851562 0.878906 67.851562 0.574219 67.851562 0.21875 C 68.472656 0.222656 68.984375 0.222656 69.589844 0.222656 C 69.546875 25.101562 69.507812 49.96875 69.464844 74.855469 Z M 69.464844 74.855469 " fill-opacity="1" fill-rule="nonzero"/><g clip-path="url(#e87d72388f)"><path fill="#1d0062" d="M 116.488281 0.300781 C 117.113281 0.300781 117.628906 0.300781 118.203125 0.304688 C 118.164062 25.1875 118.121094 50.019531 118.078125 74.941406 C 117.769531 74.957031 117.472656 74.960938 117.179688 74.992188 C 116.472656 75.070312 116.273438 74.816406 116.28125 74.246094 C 116.320312 71.925781 116.304688 69.601562 116.308594 67.28125 C 116.328125 55.335938 116.347656 43.390625 116.371094 31.449219 C 116.390625 21.285156 116.410156 11.121094 116.433594 0.957031 C 116.433594 0.753906 116.464844 0.554688 116.488281 0.300781 Z M 116.488281 0.300781 " fill-opacity="1" fill-rule="nonzero"/></g><g clip-path="url(#76dd12da42)"><path fill="#1d0062" d="M 103.757812 74.875 C 103.800781 50.035156 103.839844 25.1875 103.882812 0.28125 C 104.441406 0.28125 104.953125 0.285156 105.582031 0.285156 C 105.601562 0.550781 105.632812 0.824219 105.632812 1.09375 C 105.605469 17.578125 105.578125 34.058594 105.554688 50.542969 C 105.542969 58.28125 105.535156 66.019531 105.527344 73.757812 C 105.523438 75.105469 105.472656 75.144531 103.757812 74.875 Z M 103.757812 74.875 " fill-opacity="1" fill-rule="nonzero"/></g><path fill="#1d0062" d="M 46.308594 0.1875 C 46.871094 0.1875 47.386719 0.1875 48.015625 0.1875 C 48.035156 0.460938 48.070312 0.734375 48.070312 1.003906 C 48.039062 17.953125 48.007812 34.902344 47.976562 51.847656 C 47.964844 59.226562 47.941406 66.605469 47.957031 73.980469 C 47.957031 74.667969 47.785156 74.945312 46.886719 74.902344 C 46.164062 74.867188 46.113281 74.589844 46.113281 74.117188 C 46.132812 70.765625 46.132812 67.410156 46.140625 64.058594 C 46.160156 52.140625 46.179688 40.222656 46.203125 28.304688 C 46.21875 19.144531 46.238281 9.988281 46.257812 0.832031 C 46.257812 0.628906 46.285156 0.429688 46.308594 0.1875 Z M 46.308594 0.1875 " fill-opacity="1" fill-rule="nonzero"/><path fill="#1d0062" d="M 10.328125 0.105469 C 10.917969 0.105469 11.410156 0.105469 11.988281 0.109375 C 11.945312 24.972656 11.90625 49.820312 11.863281 74.746094 C 11.351562 74.746094 10.816406 74.746094 10.207031 74.746094 C 10.246094 49.886719 10.289062 25.039062 10.328125 0.105469 Z M 10.328125 0.105469 " fill-opacity="1" fill-rule="nonzero"/><g clip-path="url(#d732e185a6)"><path fill="#1d0062" d="M 129.085938 0.3125 C 129.402344 0.296875 129.617188 0.285156 129.832031 0.28125 C 130.109375 0.273438 130.386719 0.28125 130.777344 0.28125 C 130.796875 0.59375 130.828125 0.867188 130.828125 1.136719 C 130.796875 21.722656 130.761719 42.304688 130.726562 62.890625 C 130.71875 66.527344 130.71875 70.164062 130.71875 73.800781 C 130.714844 75.167969 130.703125 75.179688 128.964844 74.925781 C 129.003906 50.085938 129.046875 25.234375 129.085938 0.3125 Z M 129.085938 0.3125 " fill-opacity="1" fill-rule="nonzero"/></g><path fill="#1d0062" d="M 17.378906 74.746094 C 17.421875 49.871094 17.464844 25.035156 17.503906 0.144531 C 18.058594 0.148438 18.574219 0.148438 19.203125 0.148438 C 19.214844 0.363281 19.25 0.609375 19.25 0.855469 C 19.226562 14.269531 19.203125 27.683594 19.183594 41.097656 C 19.167969 51.929688 19.15625 62.765625 19.144531 73.597656 C 19.144531 74.972656 19.152344 74.972656 17.378906 74.746094 Z M 17.378906 74.746094 " fill-opacity="1" fill-rule="nonzero"/><g clip-path="url(#170bf40377)"><path fill="#1d0062" d="M 163.15625 74.964844 C 163.199219 50.128906 163.238281 25.285156 163.28125 0.386719 C 163.835938 0.386719 164.347656 0.386719 164.964844 0.386719 C 164.980469 0.660156 165.007812 0.933594 165.007812 1.207031 C 164.976562 20.804688 164.945312 40.40625 164.914062 60.007812 C 164.90625 64.648438 164.90625 69.289062 164.902344 73.933594 C 164.898438 75.207031 164.824219 75.257812 163.15625 74.964844 Z M 163.15625 74.964844 " fill-opacity="1" fill-rule="nonzero"/></g><g clip-path="url(#9dc6309cd7)"><path fill="#1d0062" d="M 332.351562 75.023438 C 329.984375 75.019531 327.667969 75.015625 325.285156 75.011719 C 325.328125 50.109375 325.367188 25.261719 325.410156 0.363281 C 327.757812 0.367188 330.074219 0.371094 332.472656 0.375 C 332.433594 25.226562 332.390625 50.074219 332.351562 75.023438 Z M 332.351562 75.023438 " fill-opacity="1" fill-rule="nonzero"/></g><path fill="#1d0062" d="M 248.035156 0.222656 C 249.839844 0.226562 251.542969 0.230469 253.3125 0.234375 C 253.273438 25.128906 253.230469 49.980469 253.1875 74.886719 C 251.425781 74.882812 249.703125 74.882812 247.910156 74.878906 C 247.953125 49.996094 247.992188 25.144531 248.035156 0.222656 Z M 248.035156 0.222656 " fill-opacity="1" fill-rule="nonzero"/><path fill="#1d0062" d="M 199.203125 74.800781 C 197.441406 74.796875 195.71875 74.792969 193.929688 74.789062 C 193.972656 49.902344 194.011719 25.054688 194.054688 0.152344 C 195.792969 0.152344 197.519531 0.15625 199.328125 0.160156 C 199.289062 25.019531 199.246094 49.882812 199.203125 74.800781 Z M 199.203125 74.800781 " fill-opacity="1" fill-rule="nonzero"/><path fill="#1d0062" d="M 236.960938 74.863281 C 235.210938 74.859375 233.488281 74.859375 231.695312 74.855469 C 231.734375 49.964844 231.777344 25.125 231.816406 0.21875 C 233.554688 0.21875 235.277344 0.222656 237.082031 0.226562 C 237.042969 25.082031 237 49.949219 236.960938 74.863281 Z M 236.960938 74.863281 " fill-opacity="1" fill-rule="nonzero"/><path fill="#1d0062" d="M 222.699219 74.890625 C 222.738281 49.945312 222.78125 25.117188 222.824219 0.214844 C 224.566406 0.214844 226.285156 0.21875 228.125 0.222656 C 228.140625 0.441406 228.175781 0.6875 228.175781 0.933594 C 228.152344 15.328125 228.128906 29.71875 228.105469 44.109375 C 228.089844 54.015625 228.078125 63.921875 228.066406 73.824219 C 228.066406 74.886719 228.066406 74.890625 226.824219 74.894531 C 225.492188 74.898438 224.15625 74.894531 222.699219 74.890625 Z M 222.699219 74.890625 " fill-opacity="1" fill-rule="nonzero"/><path fill="#1d0062" d="M 215.386719 74.832031 C 214.226562 74.828125 213.121094 74.828125 211.925781 74.824219 C 211.96875 49.960938 212.007812 25.117188 212.050781 0.195312 C 213.15625 0.199219 214.289062 0.199219 215.507812 0.203125 C 215.46875 25.054688 215.425781 49.917969 215.386719 74.832031 Z M 215.386719 74.832031 " fill-opacity="1" fill-rule="nonzero"/><path fill="#1d0062" d="M 262.417969 0.246094 C 263.609375 0.25 264.714844 0.25 265.914062 0.253906 C 265.933594 0.5625 265.960938 0.835938 265.960938 1.109375 C 265.9375 16.554688 265.910156 32.003906 265.886719 47.449219 C 265.871094 56.21875 265.863281 64.988281 265.855469 73.753906 C 265.851562 75.230469 265.875 74.914062 264.394531 74.953125 C 263.71875 74.972656 263.039062 74.953125 262.296875 74.953125 C 262.335938 50.019531 262.378906 25.175781 262.417969 0.246094 Z M 262.417969 0.246094 " fill-opacity="1" fill-rule="nonzero"/><g clip-path="url(#51d6bdd154)"><path fill="#1d0062" d="M 316.132812 75.03125 C 315.089844 75.03125 314.097656 75.0625 313.117188 74.996094 C 312.933594 74.984375 312.652344 74.578125 312.652344 74.355469 C 312.621094 71.464844 312.628906 68.574219 312.636719 65.6875 C 312.652344 54.828125 312.675781 43.96875 312.691406 33.109375 C 312.707031 22.429688 312.726562 11.75 312.726562 1.070312 C 312.726562 0.472656 312.917969 0.234375 313.671875 0.28125 C 314.503906 0.332031 315.34375 0.292969 316.257812 0.296875 C 316.21875 25.210938 316.175781 50.058594 316.132812 75.03125 Z M 316.132812 75.03125 " fill-opacity="1" fill-rule="nonzero"/></g><g clip-path="url(#1873440290)"><path fill="#1d0062" d="M 303.832031 0.320312 C 305.011719 0.320312 306.117188 0.324219 307.359375 0.324219 C 307.359375 1.082031 307.359375 1.792969 307.359375 2.507812 C 307.328125 17.46875 307.296875 32.433594 307.273438 47.398438 C 307.257812 56.269531 307.25 65.144531 307.238281 74.019531 C 307.238281 74.683594 306.828125 75.015625 306.011719 75.019531 C 305.359375 75.019531 304.707031 75.019531 304.054688 75.015625 C 303.964844 75.015625 303.875 74.980469 303.710938 74.949219 C 303.75 50.101562 303.792969 25.25 303.832031 0.320312 Z M 303.832031 0.320312 " fill-opacity="1" fill-rule="nonzero"/></g><path fill="#1d0062" d="M 278.632812 0.234375 C 279.566406 0.234375 280.410156 0.273438 281.242188 0.226562 C 281.992188 0.1875 282.191406 0.429688 282.183594 1.023438 C 282.148438 4.457031 282.15625 7.886719 282.152344 11.316406 C 282.132812 22.179688 282.113281 33.039062 282.09375 43.898438 C 282.074219 54.011719 282.050781 64.125 282.046875 74.238281 C 282.046875 74.792969 281.894531 75.039062 281.164062 74.992188 C 280.304688 74.9375 279.4375 74.976562 278.507812 74.976562 C 278.550781 50.046875 278.589844 25.195312 278.632812 0.234375 Z M 278.632812 0.234375 " fill-opacity="1" fill-rule="nonzero"/><path fill="#1d0062" d="M 204.734375 74.859375 C 204.777344 49.910156 204.816406 25.058594 204.859375 0.160156 C 206.011719 0.160156 207.113281 0.164062 208.332031 0.167969 C 208.351562 0.476562 208.390625 0.773438 208.390625 1.070312 C 208.359375 19.074219 208.324219 37.078125 208.292969 55.085938 C 208.28125 61.378906 208.257812 67.671875 208.277344 73.964844 C 208.277344 74.65625 208.089844 74.953125 207.199219 74.878906 C 206.40625 74.8125 205.597656 74.863281 204.734375 74.859375 Z M 204.734375 74.859375 " fill-opacity="1" fill-rule="nonzero"/><g clip-path="url(#dab4144231)"><path fill="#1d0062" d="M 294.765625 0.3125 C 296.035156 0.3125 297.140625 0.316406 298.363281 0.316406 C 298.363281 1.414062 298.359375 2.464844 298.359375 3.515625 C 298.335938 16.519531 298.316406 29.523438 298.292969 42.523438 C 298.277344 53.078125 298.253906 63.628906 298.257812 74.179688 C 298.257812 74.792969 298.097656 75.039062 297.285156 75.03125 C 294.636719 75.011719 294.640625 75.035156 294.644531 72.871094 C 294.675781 53.777344 294.699219 34.6875 294.730469 15.597656 C 294.738281 10.773438 294.753906 5.945312 294.765625 1.121094 C 294.765625 0.871094 294.765625 0.617188 294.765625 0.3125 Z M 294.765625 0.3125 " fill-opacity="1" fill-rule="nonzero"/></g><g clip-path="url(#a0ad23c254)"><path fill="#1d0062" d="M 341.449219 75 C 341.492188 50.136719 341.53125 25.308594 341.574219 0.480469 C 341.707031 0.445312 341.789062 0.40625 341.875 0.402344 C 343.335938 0.335938 343.34375 0.335938 343.34375 1.4375 C 343.324219 15.015625 343.296875 28.597656 343.277344 42.175781 C 343.261719 52.789062 343.25 63.398438 343.238281 74.007812 C 343.234375 75.203125 343.183594 75.238281 341.449219 75 Z M 341.449219 75 " fill-opacity="1" fill-rule="nonzero"/></g><g clip-path="url(#7f8909f064)"><path fill="#1d0062" d="M 174.214844 0.171875 C 174.210938 1.214844 174.210938 2.222656 174.207031 3.230469 C 174.179688 19.339844 174.148438 35.453125 174.117188 51.566406 C 174.105469 59.070312 174.085938 66.574219 174.097656 74.078125 C 174.097656 74.628906 173.929688 74.851562 173.121094 74.828125 C 172.421875 74.804688 172.234375 74.632812 172.238281 74.132812 C 172.273438 71.09375 172.269531 68.054688 172.273438 65.015625 C 172.289062 55.351562 172.304688 45.683594 172.320312 36.015625 C 172.339844 26.324219 172.355469 16.636719 172.375 6.945312 C 172.375 5.035156 172.375 3.125 172.386719 1.214844 C 172.394531 0.0195312 172.398438 0.0195312 174.214844 0.171875 Z M 174.214844 0.171875 " fill-opacity="1" fill-rule="nonzero"/></g><path fill="#1d0062" d="M 177.585938 74.765625 C 177.398438 74.785156 177.25 74.808594 177.101562 74.8125 C 176.269531 74.835938 175.855469 74.542969 175.855469 73.9375 C 175.886719 57 175.917969 40.058594 175.949219 23.121094 C 175.964844 15.734375 175.972656 8.347656 175.988281 0.957031 C 175.988281 0.710938 175.988281 0.460938 175.988281 0.160156 C 176.597656 0.164062 177.109375 0.164062 177.710938 0.164062 C 177.667969 25 177.628906 49.84375 177.585938 74.765625 Z M 177.585938 74.765625 " fill-opacity="1" fill-rule="nonzero"/><g clip-path="url(#725a57792a)"><path fill="#1d0062" d="M 337.855469 75 C 337.898438 50.140625 337.9375 25.316406 337.980469 0.4375 C 338.53125 0.4375 339.042969 0.4375 339.667969 0.4375 C 339.691406 0.636719 339.742188 0.851562 339.742188 1.070312 C 339.730469 10.988281 339.714844 20.90625 339.699219 30.828125 C 339.683594 40.46875 339.667969 50.113281 339.652344 59.757812 C 339.644531 64.519531 339.640625 69.285156 339.636719 74.050781 C 339.632812 75.199219 339.617188 75.210938 337.855469 75 Z M 337.855469 75 " fill-opacity="1" fill-rule="nonzero"/></g><path fill="#1d0062" d="M 255.234375 0.285156 C 255.8125 0.285156 256.324219 0.285156 256.902344 0.289062 C 256.859375 25.167969 256.820312 50.007812 256.777344 74.898438 C 256.21875 74.898438 255.707031 74.898438 255.109375 74.898438 C 255.148438 50.035156 255.191406 25.179688 255.234375 0.285156 Z M 255.234375 0.285156 " fill-opacity="1" fill-rule="nonzero"/><path fill="#1d0062" d="M 258.765625 0.277344 C 259.433594 0.277344 259.921875 0.277344 260.5 0.277344 C 260.457031 25.15625 260.417969 50.011719 260.375 74.898438 C 260.113281 74.921875 259.898438 74.933594 259.691406 74.957031 C 258.898438 75.042969 258.621094 74.839844 258.621094 74.207031 C 258.671875 61.917969 258.691406 49.628906 258.710938 37.339844 C 258.730469 25.832031 258.746094 14.328125 258.761719 2.820312 C 258.761719 1.996094 258.761719 1.171875 258.765625 0.277344 Z M 258.765625 0.277344 " fill-opacity="1" fill-rule="nonzero"/><path fill="#1d0062" d="M 267.679688 74.867188 C 267.722656 49.988281 267.761719 25.15625 267.804688 0.269531 C 268.371094 0.269531 268.886719 0.269531 269.511719 0.269531 C 269.527344 0.539062 269.558594 0.8125 269.558594 1.082031 C 269.535156 15.527344 269.511719 29.972656 269.488281 44.417969 C 269.472656 54.195312 269.464844 63.972656 269.457031 73.75 C 269.453125 75.085938 269.429688 75.105469 267.679688 74.867188 Z M 267.679688 74.867188 " fill-opacity="1" fill-rule="nonzero"/><path fill="#1d0062" d="M 244.242188 74.875 C 243.589844 74.875 243.074219 74.871094 242.5 74.871094 C 242.539062 49.980469 242.582031 25.128906 242.621094 0.289062 C 242.703125 0.25 242.753906 0.207031 242.804688 0.203125 C 243.855469 0.140625 244.382812 0.546875 244.378906 1.425781 C 244.347656 19.945312 244.316406 38.46875 244.285156 56.988281 C 244.277344 62.636719 244.257812 68.285156 244.246094 73.933594 C 244.242188 74.214844 244.242188 74.496094 244.242188 74.875 Z M 244.242188 74.875 " fill-opacity="1" fill-rule="nonzero"/><g clip-path="url(#a29c297d89)"><path fill="#1d0062" d="M 321.796875 0.359375 C 322.398438 0.359375 322.914062 0.359375 323.5625 0.359375 C 323.558594 0.710938 323.558594 1.011719 323.558594 1.316406 C 323.523438 19.347656 323.488281 37.382812 323.457031 55.414062 C 323.445312 61.554688 323.4375 67.695312 323.425781 73.835938 C 323.421875 75.195312 323.417969 75.195312 321.671875 74.960938 C 321.710938 50.117188 321.753906 25.265625 321.796875 0.359375 Z M 321.796875 0.359375 " fill-opacity="1" fill-rule="nonzero"/></g><path fill="#1d0062" d="M 201.15625 0.179688 C 201.410156 0.144531 201.554688 0.113281 201.703125 0.109375 C 202.074219 0.101562 202.445312 0.109375 202.921875 0.109375 C 202.945312 0.429688 202.988281 0.699219 202.988281 0.972656 C 202.957031 18.902344 202.925781 36.828125 202.894531 54.757812 C 202.882812 61.128906 202.871094 67.5 202.859375 73.871094 C 202.859375 74.851562 202.640625 75.019531 201.519531 74.824219 C 201.328125 74.792969 201.132812 74.5625 201.054688 74.390625 C 200.972656 74.210938 201.035156 73.984375 201.035156 73.777344 C 201.074219 49.605469 201.117188 25.433594 201.15625 1.261719 C 201.15625 0.90625 201.15625 0.554688 201.15625 0.179688 Z M 201.15625 0.179688 " fill-opacity="1" fill-rule="nonzero"/><path fill="#1d0062" d="M 240.585938 74.855469 C 240.378906 74.875 240.226562 74.902344 240.078125 74.90625 C 239.25 74.929688 238.839844 74.597656 238.839844 73.917969 C 238.871094 56.96875 238.90625 40.023438 238.9375 23.078125 C 238.949219 15.777344 238.960938 8.480469 238.972656 1.179688 C 238.972656 0.878906 238.972656 0.574219 238.976562 0.21875 C 239.59375 0.222656 240.109375 0.222656 240.710938 0.222656 C 240.671875 25.101562 240.628906 49.96875 240.585938 74.855469 Z M 240.585938 74.855469 " fill-opacity="1" fill-rule="nonzero"/><g clip-path="url(#f0de59234e)"><path fill="#1d0062" d="M 287.609375 0.300781 C 288.238281 0.300781 288.753906 0.300781 289.328125 0.304688 C 289.285156 25.1875 289.242188 50.019531 289.203125 74.941406 C 288.890625 74.957031 288.59375 74.960938 288.300781 74.992188 C 287.597656 75.070312 287.394531 74.816406 287.40625 74.246094 C 287.441406 71.925781 287.429688 69.601562 287.433594 67.28125 C 287.453125 55.335938 287.472656 43.390625 287.492188 31.449219 C 287.511719 21.285156 287.53125 11.121094 287.554688 0.957031 C 287.554688 0.753906 287.589844 0.554688 287.609375 0.300781 Z M 287.609375 0.300781 " fill-opacity="1" fill-rule="nonzero"/></g><g clip-path="url(#264d8313c4)"><path fill="#1d0062" d="M 274.882812 74.875 C 274.921875 50.035156 274.964844 25.1875 275.003906 0.28125 C 275.5625 0.28125 276.074219 0.285156 276.707031 0.285156 C 276.722656 0.550781 276.753906 0.824219 276.753906 1.09375 C 276.730469 17.578125 276.699219 34.058594 276.675781 50.542969 C 276.664062 58.28125 276.65625 66.019531 276.648438 73.757812 C 276.648438 75.105469 276.59375 75.144531 274.882812 74.875 Z M 274.882812 74.875 " fill-opacity="1" fill-rule="nonzero"/></g><path fill="#1d0062" d="M 217.429688 0.1875 C 217.996094 0.1875 218.511719 0.1875 219.140625 0.1875 C 219.15625 0.460938 219.191406 0.734375 219.191406 1.003906 C 219.164062 17.953125 219.128906 34.902344 219.101562 51.847656 C 219.085938 59.226562 219.066406 66.605469 219.078125 73.980469 C 219.082031 74.667969 218.90625 74.945312 218.007812 74.902344 C 217.289062 74.867188 217.234375 74.589844 217.238281 74.117188 C 217.257812 70.765625 217.257812 67.410156 217.261719 64.058594 C 217.285156 52.140625 217.304688 40.222656 217.324219 28.304688 C 217.34375 19.144531 217.359375 9.988281 217.378906 0.832031 C 217.378906 0.628906 217.410156 0.429688 217.429688 0.1875 Z M 217.429688 0.1875 " fill-opacity="1" fill-rule="nonzero"/><path fill="#1d0062" d="M 181.453125 0.105469 C 182.039062 0.105469 182.53125 0.105469 183.109375 0.109375 C 183.070312 24.972656 183.027344 49.820312 182.988281 74.746094 C 182.472656 74.746094 181.9375 74.746094 181.328125 74.746094 C 181.367188 49.886719 181.410156 25.039062 181.453125 0.105469 Z M 181.453125 0.105469 " fill-opacity="1" fill-rule="nonzero"/><g clip-path="url(#06b8e5dce6)"><path fill="#1d0062" d="M 300.210938 0.3125 C 300.523438 0.296875 300.738281 0.285156 300.953125 0.28125 C 301.230469 0.273438 301.507812 0.28125 301.898438 0.28125 C 301.917969 0.59375 301.949219 0.867188 301.949219 1.136719 C 301.917969 21.722656 301.882812 42.304688 301.847656 62.890625 C 301.84375 66.527344 301.839844 70.164062 301.839844 73.800781 C 301.839844 75.167969 301.824219 75.179688 300.085938 74.925781 C 300.128906 50.085938 300.167969 25.234375 300.210938 0.3125 Z M 300.210938 0.3125 " fill-opacity="1" fill-rule="nonzero"/></g><path fill="#1d0062" d="M 188.503906 74.746094 C 188.542969 49.871094 188.585938 25.035156 188.628906 0.144531 C 189.179688 0.148438 189.695312 0.148438 190.324219 0.148438 C 190.339844 0.363281 190.371094 0.609375 190.371094 0.855469 C 190.351562 14.269531 190.328125 27.683594 190.308594 41.097656 C 190.289062 51.929688 190.277344 62.765625 190.269531 73.597656 C 190.265625 74.972656 190.273438 74.972656 188.503906 74.746094 Z M 188.503906 74.746094 " fill-opacity="1" fill-rule="nonzero"/><g clip-path="url(#9e77699cc0)"><path fill="#1d0062" d="M 334.277344 74.964844 C 334.320312 50.128906 334.359375 25.285156 334.402344 0.386719 C 334.960938 0.386719 335.472656 0.386719 336.085938 0.386719 C 336.101562 0.660156 336.132812 0.933594 336.132812 1.207031 C 336.101562 20.804688 336.066406 40.40625 336.035156 60.007812 C 336.027344 64.648438 336.027344 69.289062 336.023438 73.933594 C 336.023438 75.207031 335.945312 75.257812 334.277344 74.964844 Z M 334.277344 74.964844 " fill-opacity="1" fill-rule="nonzero"/></g></svg>