<svg xmlns="http://www.w3.org/2000/svg" xmlns:xlink="http://www.w3.org/1999/xlink" width="500" zoomAndPan="magnify" viewBox="0 0 375 374.999991" height="500" preserveAspectRatio="xMidYMid meet" version="1.0"><defs><clipPath id="a178c2644d"><path d="M 169 149.605469 L 177 149.605469 L 177 225.355469 L 169 225.355469 Z M 169 149.605469 " clip-rule="nonzero"/></clipPath><clipPath id="85bce36e20"><path d="M 91 149.605469 L 97 149.605469 L 97 225 L 91 225 Z M 91 149.605469 " clip-rule="nonzero"/></clipPath><clipPath id="113d8f2574"><path d="M 37 149.605469 L 43 149.605469 L 43 225 L 37 225 Z M 37 149.605469 " clip-rule="nonzero"/></clipPath><clipPath id="cb1bc0f991"><path d="M 75 149.605469 L 81 149.605469 L 81 225 L 75 225 Z M 75 149.605469 " clip-rule="nonzero"/></clipPath><clipPath id="e6451d6ea7"><path d="M 66 149.605469 L 72 149.605469 L 72 225 L 66 225 Z M 66 149.605469 " clip-rule="nonzero"/></clipPath><clipPath id="7eba18241e"><path d="M 55 149.605469 L 59 149.605469 L 59 225 L 55 225 Z M 55 149.605469 " clip-rule="nonzero"/></clipPath><clipPath id="330d8826f4"><path d="M 105 149.605469 L 110 149.605469 L 110 225.355469 L 105 225.355469 Z M 105 149.605469 " clip-rule="nonzero"/></clipPath><clipPath id="2393c33462"><path d="M 156 149.605469 L 161 149.605469 L 161 225.355469 L 156 225.355469 Z M 156 149.605469 " clip-rule="nonzero"/></clipPath><clipPath id="7eccae858a"><path d="M 147 149.605469 L 152 149.605469 L 152 225.355469 L 147 225.355469 Z M 147 149.605469 " clip-rule="nonzero"/></clipPath><clipPath id="5d2d8d0889"><path d="M 122 149.605469 L 126 149.605469 L 126 225.355469 L 122 225.355469 Z M 122 149.605469 " clip-rule="nonzero"/></clipPath><clipPath id="203b6a6afe"><path d="M 47 149.605469 L 52 149.605469 L 52 225 L 47 225 Z M 47 149.605469 " clip-rule="nonzero"/></clipPath><clipPath id="19c2cf68db"><path d="M 138 149.605469 L 143 149.605469 L 143 225.355469 L 138 225.355469 Z M 138 149.605469 " clip-rule="nonzero"/></clipPath><clipPath id="542caa5e0c"><path d="M 185 149.605469 L 187.757812 149.605469 L 187.757812 225.355469 L 185 225.355469 Z M 185 149.605469 " clip-rule="nonzero"/></clipPath><clipPath id="80cdfbc3bd"><path d="M 15.257812 149.605469 L 18 149.605469 L 18 225 L 15.257812 225 Z M 15.257812 149.605469 " clip-rule="nonzero"/></clipPath><clipPath id="b08d4e9ba7"><path d="M 18 149.605469 L 21 149.605469 L 21 225 L 18 225 Z M 18 149.605469 " clip-rule="nonzero"/></clipPath><clipPath id="86c3cc6067"><path d="M 181 150 L 184 150 L 184 225.355469 L 181 225.355469 Z M 181 150 " clip-rule="nonzero"/></clipPath><clipPath id="c43fcbd974"><path d="M 98 149.605469 L 101 149.605469 L 101 225 L 98 225 Z M 98 149.605469 " clip-rule="nonzero"/></clipPath><clipPath id="ded8d42952"><path d="M 102 149.605469 L 105 149.605469 L 105 225.355469 L 102 225.355469 Z M 102 149.605469 " clip-rule="nonzero"/></clipPath><clipPath id="641da8ec6b"><path d="M 111 149.605469 L 114 149.605469 L 114 225.355469 L 111 225.355469 Z M 111 149.605469 " clip-rule="nonzero"/></clipPath><clipPath id="f38ba449cd"><path d="M 85 149.605469 L 88 149.605469 L 88 225 L 85 225 Z M 85 149.605469 " clip-rule="nonzero"/></clipPath><clipPath id="11c7cb9cc4"><path d="M 165 149.605469 L 168 149.605469 L 168 225.355469 L 165 225.355469 Z M 165 149.605469 " clip-rule="nonzero"/></clipPath><clipPath id="04db7ef2a4"><path d="M 44 149.605469 L 47 149.605469 L 47 225 L 44 225 Z M 44 149.605469 " clip-rule="nonzero"/></clipPath><clipPath id="2df3a82512"><path d="M 82 149.605469 L 85 149.605469 L 85 225.355469 L 82 225.355469 Z M 82 149.605469 " clip-rule="nonzero"/></clipPath><clipPath id="84c236a067"><path d="M 131 149.605469 L 134 149.605469 L 134 225.355469 L 131 225.355469 Z M 131 149.605469 " clip-rule="nonzero"/></clipPath><clipPath id="89ad162ef9"><path d="M 118 149.605469 L 121 149.605469 L 121 225.355469 L 118 225.355469 Z M 118 149.605469 " clip-rule="nonzero"/></clipPath><clipPath id="c11bff7a4b"><path d="M 60 149.605469 L 63 149.605469 L 63 225.355469 L 60 225.355469 Z M 60 149.605469 " clip-rule="nonzero"/></clipPath><clipPath id="c719e922f6"><path d="M 24 149.605469 L 27 149.605469 L 27 225 L 24 225 Z M 24 149.605469 " clip-rule="nonzero"/></clipPath><clipPath id="04e8dab591"><path d="M 143 149.605469 L 146 149.605469 L 146 225.355469 L 143 225.355469 Z M 143 149.605469 " clip-rule="nonzero"/></clipPath><clipPath id="874f6271b7"><path d="M 31 149.605469 L 34 149.605469 L 34 225 L 31 225 Z M 31 149.605469 " clip-rule="nonzero"/></clipPath><clipPath id="a1b8f6b161"><path d="M 178 149.605469 L 181 149.605469 L 181 225.355469 L 178 225.355469 Z M 178 149.605469 " clip-rule="nonzero"/></clipPath><clipPath id="b935d665cc"><path d="M 341 149.605469 L 349 149.605469 L 349 225.355469 L 341 225.355469 Z M 341 149.605469 " clip-rule="nonzero"/></clipPath><clipPath id="49efc05bd4"><path d="M 263 149.605469 L 270 149.605469 L 270 225 L 263 225 Z M 263 149.605469 " clip-rule="nonzero"/></clipPath><clipPath id="a507895dda"><path d="M 209 149.605469 L 215 149.605469 L 215 225 L 209 225 Z M 209 149.605469 " clip-rule="nonzero"/></clipPath><clipPath id="b343ee9bf9"><path d="M 247 149.605469 L 253 149.605469 L 253 225 L 247 225 Z M 247 149.605469 " clip-rule="nonzero"/></clipPath><clipPath id="6128a1c27c"><path d="M 238 149.605469 L 244 149.605469 L 244 225 L 238 225 Z M 238 149.605469 " clip-rule="nonzero"/></clipPath><clipPath id="df60d96f5a"><path d="M 227 149.605469 L 232 149.605469 L 232 225 L 227 225 Z M 227 149.605469 " clip-rule="nonzero"/></clipPath><clipPath id="79708494c7"><path d="M 278 149.605469 L 282 149.605469 L 282 225.355469 L 278 225.355469 Z M 278 149.605469 " clip-rule="nonzero"/></clipPath><clipPath id="0b97f73f06"><path d="M 328 149.605469 L 333 149.605469 L 333 225.355469 L 328 225.355469 Z M 328 149.605469 " clip-rule="nonzero"/></clipPath><clipPath id="1c94b029ca"><path d="M 319 149.605469 L 324 149.605469 L 324 225.355469 L 319 225.355469 Z M 319 149.605469 " clip-rule="nonzero"/></clipPath><clipPath id="17ac669609"><path d="M 294 149.605469 L 299 149.605469 L 299 225.355469 L 294 225.355469 Z M 294 149.605469 " clip-rule="nonzero"/></clipPath><clipPath id="16891c394d"><path d="M 220 149.605469 L 224 149.605469 L 224 225 L 220 225 Z M 220 149.605469 " clip-rule="nonzero"/></clipPath><clipPath id="ab5799b8c2"><path d="M 310 149.605469 L 315 149.605469 L 315 225.355469 L 310 225.355469 Z M 310 149.605469 " clip-rule="nonzero"/></clipPath><clipPath id="28b3a6a16a"><path d="M 357 149.605469 L 360 149.605469 L 360 225.355469 L 357 225.355469 Z M 357 149.605469 " clip-rule="nonzero"/></clipPath><clipPath id="a54b034cdd"><path d="M 187.5 149.605469 L 190 149.605469 L 190 225 L 187.5 225 Z M 187.5 149.605469 " clip-rule="nonzero"/></clipPath><clipPath id="0af753f2ad"><path d="M 191 149.605469 L 194 149.605469 L 194 225 L 191 225 Z M 191 149.605469 " clip-rule="nonzero"/></clipPath><clipPath id="974db750b4"><path d="M 354 150 L 357 150 L 357 225.355469 L 354 225.355469 Z M 354 150 " clip-rule="nonzero"/></clipPath><clipPath id="f430bf85ec"><path d="M 270 149.605469 L 273 149.605469 L 273 225 L 270 225 Z M 270 149.605469 " clip-rule="nonzero"/></clipPath><clipPath id="ae78782e9b"><path d="M 274 149.605469 L 277 149.605469 L 277 225.355469 L 274 225.355469 Z M 274 149.605469 " clip-rule="nonzero"/></clipPath><clipPath id="3eab190841"><path d="M 283 149.605469 L 286 149.605469 L 286 225.355469 L 283 225.355469 Z M 283 149.605469 " clip-rule="nonzero"/></clipPath><clipPath id="a518cb4fe4"><path d="M 258 149.605469 L 261 149.605469 L 261 225 L 258 225 Z M 258 149.605469 " clip-rule="nonzero"/></clipPath><clipPath id="c63e0c69b2"><path d="M 337 149.605469 L 340 149.605469 L 340 225.355469 L 337 225.355469 Z M 337 149.605469 " clip-rule="nonzero"/></clipPath><clipPath id="b80d208d77"><path d="M 216 149.605469 L 219 149.605469 L 219 225 L 216 225 Z M 216 149.605469 " clip-rule="nonzero"/></clipPath><clipPath id="123cd679ed"><path d="M 254 149.605469 L 257 149.605469 L 257 225.355469 L 254 225.355469 Z M 254 149.605469 " clip-rule="nonzero"/></clipPath><clipPath id="d0cca5fc45"><path d="M 303 149.605469 L 306 149.605469 L 306 225.355469 L 303 225.355469 Z M 303 149.605469 " clip-rule="nonzero"/></clipPath><clipPath id="7832b37fd7"><path d="M 290 149.605469 L 293 149.605469 L 293 225.355469 L 290 225.355469 Z M 290 149.605469 " clip-rule="nonzero"/></clipPath><clipPath id="580f2435bd"><path d="M 232 149.605469 L 235 149.605469 L 235 225.355469 L 232 225.355469 Z M 232 149.605469 " clip-rule="nonzero"/></clipPath><clipPath id="7a5fadbfa3"><path d="M 196 149.605469 L 199 149.605469 L 199 225 L 196 225 Z M 196 149.605469 " clip-rule="nonzero"/></clipPath><clipPath id="307bcc5b09"><path d="M 316 149.605469 L 319 149.605469 L 319 225.355469 L 316 225.355469 Z M 316 149.605469 " clip-rule="nonzero"/></clipPath><clipPath id="aab089f2e7"><path d="M 203 149.605469 L 206 149.605469 L 206 225 L 203 225 Z M 203 149.605469 " clip-rule="nonzero"/></clipPath><clipPath id="85e67f3ee8"><path d="M 350 149.605469 L 353 149.605469 L 353 225.355469 L 350 225.355469 Z M 350 149.605469 " clip-rule="nonzero"/></clipPath></defs><g clip-path="url(#a178c2644d)"><path fill="#1d0062" d="M 176.414062 225.121094 C 174.03125 225.117188 171.699219 225.113281 169.300781 225.109375 C 169.34375 200.046875 169.386719 175.035156 169.425781 149.972656 C 171.789062 149.976562 174.121094 149.980469 176.539062 149.984375 C 176.496094 174.996094 176.453125 200.007812 176.414062 225.121094 Z M 176.414062 225.121094 " fill-opacity="1" fill-rule="nonzero"/></g><g clip-path="url(#85bce36e20)"><path fill="#1d0062" d="M 91.546875 149.832031 C 93.363281 149.835938 95.078125 149.839844 96.859375 149.839844 C 96.816406 174.898438 96.777344 199.914062 96.734375 224.984375 C 94.960938 224.980469 93.226562 224.976562 91.421875 224.976562 C 91.464844 199.929688 91.503906 174.914062 91.546875 149.832031 Z M 91.546875 149.832031 " fill-opacity="1" fill-rule="nonzero"/></g><g clip-path="url(#113d8f2574)"><path fill="#1d0062" d="M 42.398438 224.894531 C 40.621094 224.890625 38.886719 224.890625 37.089844 224.886719 C 37.128906 199.835938 37.171875 174.824219 37.214844 149.757812 C 38.964844 149.761719 40.699219 149.765625 42.523438 149.765625 C 42.480469 174.789062 42.4375 199.816406 42.398438 224.894531 Z M 42.398438 224.894531 " fill-opacity="1" fill-rule="nonzero"/></g><g clip-path="url(#cb1bc0f991)"><path fill="#1d0062" d="M 80.398438 224.960938 C 78.640625 224.957031 76.90625 224.953125 75.097656 224.953125 C 75.140625 199.898438 75.183594 174.894531 75.222656 149.824219 C 76.96875 149.828125 78.703125 149.832031 80.523438 149.835938 C 80.480469 174.855469 80.441406 199.882812 80.398438 224.960938 Z M 80.398438 224.960938 " fill-opacity="1" fill-rule="nonzero"/></g><g clip-path="url(#e6451d6ea7)"><path fill="#1d0062" d="M 66.042969 224.988281 C 66.085938 199.878906 66.128906 174.886719 66.167969 149.820312 C 67.921875 149.824219 69.65625 149.828125 71.503906 149.832031 C 71.523438 150.054688 71.558594 150.300781 71.554688 150.546875 C 71.535156 165.035156 71.507812 179.519531 71.488281 194.007812 C 71.472656 203.976562 71.460938 213.945312 71.449219 223.914062 C 71.445312 224.984375 71.445312 224.988281 70.195312 224.992188 C 68.855469 224.996094 67.511719 224.988281 66.042969 224.988281 Z M 66.042969 224.988281 " fill-opacity="1" fill-rule="nonzero"/></g><g clip-path="url(#7eba18241e)"><path fill="#1d0062" d="M 58.683594 224.925781 C 57.519531 224.925781 56.40625 224.921875 55.203125 224.921875 C 55.242188 199.894531 55.285156 174.886719 55.328125 149.804688 C 56.441406 149.808594 57.578125 149.808594 58.808594 149.8125 C 58.765625 174.824219 58.726562 199.851562 58.683594 224.925781 Z M 58.683594 224.925781 " fill-opacity="1" fill-rule="nonzero"/></g><g clip-path="url(#330d8826f4)"><path fill="#1d0062" d="M 106.023438 149.855469 C 107.222656 149.855469 108.335938 149.859375 109.542969 149.859375 C 109.558594 150.171875 109.589844 150.449219 109.589844 150.722656 C 109.566406 166.269531 109.539062 181.820312 109.515625 197.367188 C 109.5 206.191406 109.492188 215.019531 109.484375 223.84375 C 109.480469 225.328125 109.503906 225.011719 108.015625 225.050781 C 107.332031 225.070312 106.652344 225.050781 105.898438 225.050781 C 105.941406 199.953125 105.984375 174.945312 106.023438 149.855469 Z M 106.023438 149.855469 " fill-opacity="1" fill-rule="nonzero"/></g><g clip-path="url(#2393c33462)"><path fill="#1d0062" d="M 160.089844 225.128906 C 159.039062 225.128906 158.042969 225.160156 157.054688 225.09375 C 156.871094 225.082031 156.585938 224.675781 156.585938 224.445312 C 156.554688 221.539062 156.566406 218.632812 156.570312 215.722656 C 156.585938 204.792969 156.609375 193.863281 156.625 182.929688 C 156.644531 172.183594 156.664062 161.433594 156.660156 150.683594 C 156.660156 150.082031 156.855469 149.839844 157.613281 149.886719 C 158.449219 149.941406 159.292969 149.902344 160.214844 149.902344 C 160.175781 174.980469 160.132812 199.996094 160.089844 225.128906 Z M 160.089844 225.128906 " fill-opacity="1" fill-rule="nonzero"/></g><g clip-path="url(#7eccae858a)"><path fill="#1d0062" d="M 147.710938 149.929688 C 148.894531 149.929688 150.007812 149.933594 151.261719 149.933594 C 151.257812 150.695312 151.257812 151.414062 151.257812 152.128906 C 151.226562 167.191406 151.195312 182.253906 151.171875 197.3125 C 151.15625 206.246094 151.148438 215.179688 151.136719 224.113281 C 151.136719 224.777344 150.726562 225.113281 149.902344 225.117188 C 149.246094 225.117188 148.589844 225.117188 147.929688 225.113281 C 147.839844 225.113281 147.753906 225.078125 147.585938 225.046875 C 147.625 200.035156 147.667969 175.019531 147.710938 149.929688 Z M 147.710938 149.929688 " fill-opacity="1" fill-rule="nonzero"/></g><g clip-path="url(#5d2d8d0889)"><path fill="#1d0062" d="M 122.34375 149.84375 C 123.285156 149.84375 124.132812 149.882812 124.96875 149.835938 C 125.726562 149.792969 125.925781 150.039062 125.917969 150.640625 C 125.882812 154.09375 125.890625 157.546875 125.886719 161 C 125.867188 171.929688 125.847656 182.863281 125.828125 193.792969 C 125.808594 203.972656 125.785156 214.152344 125.78125 224.328125 C 125.78125 224.886719 125.628906 225.136719 124.890625 225.089844 C 124.027344 225.035156 123.152344 225.074219 122.21875 225.070312 C 122.261719 199.980469 122.300781 174.964844 122.34375 149.84375 Z M 122.34375 149.84375 " fill-opacity="1" fill-rule="nonzero"/></g><g clip-path="url(#203b6a6afe)"><path fill="#1d0062" d="M 47.964844 224.957031 C 48.003906 199.84375 48.046875 174.832031 48.089844 149.769531 C 49.246094 149.769531 50.359375 149.773438 51.585938 149.773438 C 51.605469 150.085938 51.644531 150.386719 51.644531 150.683594 C 51.613281 168.808594 51.578125 186.929688 51.542969 205.050781 C 51.53125 211.386719 51.511719 217.722656 51.527344 224.054688 C 51.53125 224.75 51.339844 225.046875 50.445312 224.976562 C 49.644531 224.910156 48.832031 224.957031 47.964844 224.957031 Z M 47.964844 224.957031 " fill-opacity="1" fill-rule="nonzero"/></g><g clip-path="url(#19c2cf68db)"><path fill="#1d0062" d="M 138.582031 149.917969 C 139.859375 149.921875 140.972656 149.921875 142.207031 149.925781 C 142.203125 151.03125 142.203125 152.089844 142.199219 153.144531 C 142.179688 166.234375 142.15625 179.320312 142.132812 192.410156 C 142.117188 203.03125 142.09375 213.652344 142.097656 224.273438 C 142.097656 224.890625 141.9375 225.136719 141.121094 225.128906 C 138.449219 225.105469 138.457031 225.132812 138.460938 222.953125 C 138.492188 203.738281 138.515625 184.519531 138.546875 165.304688 C 138.554688 160.449219 138.570312 155.59375 138.582031 150.738281 C 138.582031 150.484375 138.582031 150.230469 138.582031 149.917969 Z M 138.582031 149.917969 " fill-opacity="1" fill-rule="nonzero"/></g><g clip-path="url(#542caa5e0c)"><path fill="#1d0062" d="M 185.574219 225.097656 C 185.613281 200.070312 185.65625 175.082031 185.695312 150.09375 C 185.832031 150.054688 185.914062 150.015625 186 150.011719 C 187.472656 149.941406 187.480469 149.945312 187.476562 151.050781 C 187.457031 164.722656 187.433594 178.390625 187.410156 192.058594 C 187.394531 202.738281 187.382812 213.417969 187.371094 224.101562 C 187.367188 225.300781 187.316406 225.335938 185.574219 225.097656 Z M 185.574219 225.097656 " fill-opacity="1" fill-rule="nonzero"/></g><g clip-path="url(#80cdfbc3bd)"><path fill="#1d0062" d="M 17.242188 149.78125 C 17.242188 150.828125 17.238281 151.84375 17.238281 152.855469 C 17.207031 169.074219 17.175781 185.292969 17.148438 201.507812 C 17.132812 209.0625 17.113281 216.613281 17.125 224.167969 C 17.125 224.726562 16.957031 224.949219 16.144531 224.921875 C 15.4375 224.902344 15.25 224.730469 15.253906 224.222656 C 15.289062 221.164062 15.285156 218.105469 15.289062 215.046875 C 15.308594 205.320312 15.320312 195.589844 15.339844 185.859375 C 15.355469 176.105469 15.371094 166.351562 15.390625 156.597656 C 15.394531 154.675781 15.394531 152.75 15.402344 150.828125 C 15.410156 149.625 15.417969 149.625 17.242188 149.78125 Z M 17.242188 149.78125 " fill-opacity="1" fill-rule="nonzero"/></g><g clip-path="url(#b08d4e9ba7)"><path fill="#1d0062" d="M 20.636719 224.863281 C 20.449219 224.878906 20.296875 224.90625 20.148438 224.910156 C 19.3125 224.933594 18.894531 224.636719 18.894531 224.027344 C 18.925781 206.976562 18.957031 189.929688 18.988281 172.878906 C 19.003906 165.445312 19.015625 158.007812 19.027344 150.570312 C 19.027344 150.320312 19.027344 150.070312 19.027344 149.769531 C 19.644531 149.769531 20.160156 149.773438 20.761719 149.773438 C 20.71875 174.773438 20.679688 199.777344 20.636719 224.863281 Z M 20.636719 224.863281 " fill-opacity="1" fill-rule="nonzero"/></g><g clip-path="url(#86c3cc6067)"><path fill="#1d0062" d="M 181.953125 225.097656 C 181.996094 200.078125 182.039062 175.089844 182.078125 150.046875 C 182.632812 150.046875 183.148438 150.046875 183.78125 150.050781 C 183.804688 150.246094 183.851562 150.464844 183.851562 150.683594 C 183.839844 160.667969 183.824219 170.652344 183.808594 180.636719 C 183.792969 190.34375 183.777344 200.046875 183.761719 209.753906 C 183.753906 214.550781 183.75 219.34375 183.746094 224.140625 C 183.746094 225.296875 183.726562 225.308594 181.953125 225.097656 Z M 181.953125 225.097656 " fill-opacity="1" fill-rule="nonzero"/></g><g clip-path="url(#c43fcbd974)"><path fill="#1d0062" d="M 98.792969 149.894531 C 99.375 149.894531 99.890625 149.894531 100.472656 149.894531 C 100.429688 174.9375 100.390625 199.941406 100.347656 224.996094 C 99.785156 224.996094 99.269531 224.992188 98.667969 224.992188 C 98.707031 199.96875 98.75 174.949219 98.792969 149.894531 Z M 98.792969 149.894531 " fill-opacity="1" fill-rule="nonzero"/></g><g clip-path="url(#ded8d42952)"><path fill="#1d0062" d="M 102.347656 149.886719 C 103.019531 149.886719 103.511719 149.886719 104.089844 149.886719 C 104.050781 174.925781 104.007812 199.945312 103.96875 224.996094 C 103.703125 225.015625 103.488281 225.027344 103.277344 225.050781 C 102.480469 225.140625 102.199219 224.9375 102.203125 224.300781 C 102.253906 211.929688 102.273438 199.5625 102.292969 187.191406 C 102.3125 175.609375 102.328125 164.027344 102.34375 152.445312 C 102.34375 151.617188 102.34375 150.789062 102.347656 149.886719 Z M 102.347656 149.886719 " fill-opacity="1" fill-rule="nonzero"/></g><g clip-path="url(#641da8ec6b)"><path fill="#1d0062" d="M 111.320312 224.960938 C 111.363281 199.921875 111.402344 174.925781 111.445312 149.875 C 112.015625 149.878906 112.53125 149.878906 113.164062 149.878906 C 113.179688 150.152344 113.210938 150.425781 113.210938 150.699219 C 113.1875 165.238281 113.164062 179.777344 113.140625 194.316406 C 113.125 204.15625 113.117188 213.996094 113.105469 223.839844 C 113.105469 225.183594 113.082031 225.203125 111.320312 224.960938 Z M 111.320312 224.960938 " fill-opacity="1" fill-rule="nonzero"/></g><g clip-path="url(#f38ba449cd)"><path fill="#1d0062" d="M 87.730469 224.972656 C 87.070312 224.96875 86.554688 224.96875 85.972656 224.96875 C 86.015625 199.914062 86.058594 174.898438 86.097656 149.894531 C 86.179688 149.859375 86.230469 149.8125 86.285156 149.8125 C 87.339844 149.746094 87.867188 150.15625 87.867188 151.042969 C 87.835938 169.683594 87.804688 188.324219 87.773438 206.96875 C 87.761719 212.652344 87.746094 218.339844 87.730469 224.027344 C 87.730469 224.308594 87.730469 224.589844 87.730469 224.972656 Z M 87.730469 224.972656 " fill-opacity="1" fill-rule="nonzero"/></g><g clip-path="url(#11c7cb9cc4)"><path fill="#1d0062" d="M 165.789062 149.96875 C 166.394531 149.96875 166.917969 149.96875 167.566406 149.96875 C 167.566406 150.324219 167.566406 150.625 167.5625 150.929688 C 167.53125 169.082031 167.496094 187.234375 167.460938 205.382812 C 167.449219 211.5625 167.441406 217.746094 167.429688 223.925781 C 167.425781 225.292969 167.421875 225.292969 165.664062 225.058594 C 165.707031 200.050781 165.746094 175.039062 165.789062 149.96875 Z M 165.789062 149.96875 " fill-opacity="1" fill-rule="nonzero"/></g><g clip-path="url(#04db7ef2a4)"><path fill="#1d0062" d="M 44.363281 149.785156 C 44.617188 149.753906 44.761719 149.722656 44.914062 149.71875 C 45.285156 149.710938 45.660156 149.714844 46.140625 149.71875 C 46.164062 150.039062 46.203125 150.3125 46.203125 150.585938 C 46.175781 168.632812 46.140625 186.675781 46.109375 204.722656 C 46.097656 211.136719 46.089844 217.550781 46.078125 223.960938 C 46.074219 224.949219 45.855469 225.117188 44.726562 224.921875 C 44.535156 224.886719 44.335938 224.660156 44.257812 224.484375 C 44.179688 224.300781 44.238281 224.074219 44.238281 223.867188 C 44.28125 199.539062 44.320312 175.207031 44.359375 150.878906 C 44.363281 150.519531 44.363281 150.164062 44.363281 149.785156 Z M 44.363281 149.785156 " fill-opacity="1" fill-rule="nonzero"/></g><g clip-path="url(#2df3a82512)"><path fill="#1d0062" d="M 84.050781 224.949219 C 83.839844 224.972656 83.6875 225 83.535156 225.003906 C 82.707031 225.027344 82.289062 224.691406 82.289062 224.007812 C 82.324219 206.949219 82.355469 189.894531 82.390625 172.835938 C 82.402344 165.488281 82.414062 158.140625 82.425781 150.792969 C 82.425781 150.488281 82.425781 150.1875 82.425781 149.828125 C 83.050781 149.832031 83.566406 149.832031 84.175781 149.832031 C 84.132812 174.871094 84.09375 199.902344 84.050781 224.949219 Z M 84.050781 224.949219 " fill-opacity="1" fill-rule="nonzero"/></g><g clip-path="url(#84c236a067)"><path fill="#1d0062" d="M 131.378906 149.910156 C 132.011719 149.910156 132.53125 149.910156 133.109375 149.914062 C 133.066406 174.960938 133.023438 199.953125 132.984375 225.039062 C 132.671875 225.054688 132.371094 225.058594 132.074219 225.089844 C 131.367188 225.167969 131.164062 224.914062 131.175781 224.335938 C 131.210938 222 131.199219 219.664062 131.203125 217.328125 C 131.222656 205.304688 131.242188 193.28125 131.261719 181.261719 C 131.28125 171.03125 131.304688 160.800781 131.324219 150.570312 C 131.324219 150.367188 131.359375 150.164062 131.378906 149.910156 Z M 131.378906 149.910156 " fill-opacity="1" fill-rule="nonzero"/></g><g clip-path="url(#89ad162ef9)"><path fill="#1d0062" d="M 118.570312 224.972656 C 118.609375 199.96875 118.652344 174.957031 118.695312 149.890625 C 119.253906 149.890625 119.769531 149.894531 120.40625 149.894531 C 120.421875 150.164062 120.453125 150.4375 120.453125 150.710938 C 120.429688 167.300781 120.398438 183.890625 120.375 200.480469 C 120.363281 208.269531 120.355469 216.054688 120.347656 223.84375 C 120.347656 225.203125 120.292969 225.242188 118.570312 224.972656 Z M 118.570312 224.972656 " fill-opacity="1" fill-rule="nonzero"/></g><g clip-path="url(#c11bff7a4b)"><path fill="#1d0062" d="M 60.742188 149.792969 C 61.308594 149.792969 61.828125 149.796875 62.460938 149.796875 C 62.480469 150.070312 62.515625 150.34375 62.515625 150.621094 C 62.484375 167.679688 62.453125 184.738281 62.421875 201.796875 C 62.410156 209.222656 62.386719 216.648438 62.402344 224.074219 C 62.402344 224.761719 62.226562 225.042969 61.324219 225 C 60.597656 224.964844 60.542969 224.683594 60.546875 224.207031 C 60.566406 220.832031 60.566406 217.457031 60.574219 214.082031 C 60.59375 202.085938 60.613281 190.089844 60.636719 178.097656 C 60.652344 168.878906 60.671875 159.660156 60.691406 150.445312 C 60.691406 150.242188 60.722656 150.039062 60.742188 149.792969 Z M 60.742188 149.792969 " fill-opacity="1" fill-rule="nonzero"/></g><g clip-path="url(#c719e922f6)"><path fill="#1d0062" d="M 24.527344 149.710938 C 25.121094 149.714844 25.617188 149.714844 26.199219 149.714844 C 26.15625 174.742188 26.113281 199.753906 26.074219 224.84375 C 25.554688 224.84375 25.019531 224.839844 24.402344 224.839844 C 24.445312 199.820312 24.488281 174.808594 24.527344 149.710938 Z M 24.527344 149.710938 " fill-opacity="1" fill-rule="nonzero"/></g><g clip-path="url(#04e8dab591)"><path fill="#1d0062" d="M 144.0625 149.921875 C 144.378906 149.90625 144.59375 149.890625 144.8125 149.886719 C 145.089844 149.882812 145.371094 149.886719 145.765625 149.890625 C 145.78125 150.207031 145.8125 150.480469 145.8125 150.753906 C 145.78125 171.46875 145.746094 192.1875 145.710938 212.90625 C 145.707031 216.566406 145.703125 220.226562 145.703125 223.890625 C 145.703125 225.265625 145.6875 225.28125 143.9375 225.019531 C 143.980469 200.019531 144.019531 175.003906 144.0625 149.921875 Z M 144.0625 149.921875 " fill-opacity="1" fill-rule="nonzero"/></g><g clip-path="url(#874f6271b7)"><path fill="#1d0062" d="M 31.625 224.839844 C 31.667969 199.804688 31.707031 174.804688 31.75 149.753906 C 32.308594 149.753906 32.828125 149.753906 33.457031 149.757812 C 33.472656 149.972656 33.507812 150.21875 33.503906 150.46875 C 33.484375 163.96875 33.460938 177.46875 33.441406 190.972656 C 33.425781 201.878906 33.414062 212.78125 33.402344 223.6875 C 33.402344 225.070312 33.410156 225.070312 31.625 224.839844 Z M 31.625 224.839844 " fill-opacity="1" fill-rule="nonzero"/></g><g clip-path="url(#a1b8f6b161)"><path fill="#1d0062" d="M 178.355469 225.058594 C 178.394531 200.0625 178.4375 175.054688 178.480469 149.996094 C 179.039062 149.996094 179.554688 149.996094 180.175781 149.996094 C 180.191406 150.273438 180.21875 150.546875 180.21875 150.820312 C 180.1875 170.550781 180.15625 190.277344 180.121094 210.003906 C 180.117188 214.675781 180.113281 219.351562 180.109375 224.023438 C 180.109375 225.308594 180.03125 225.355469 178.355469 225.058594 Z M 178.355469 225.058594 " fill-opacity="1" fill-rule="nonzero"/></g><g clip-path="url(#b935d665cc)"><path fill="#1d0062" d="M 348.652344 225.121094 C 346.269531 225.117188 343.941406 225.113281 341.542969 225.109375 C 341.585938 200.046875 341.625 175.035156 341.667969 149.972656 C 344.03125 149.976562 346.363281 149.980469 348.777344 149.984375 C 348.738281 174.996094 348.695312 200.007812 348.652344 225.121094 Z M 348.652344 225.121094 " fill-opacity="1" fill-rule="nonzero"/></g><g clip-path="url(#49efc05bd4)"><path fill="#1d0062" d="M 263.789062 149.832031 C 265.605469 149.835938 267.316406 149.839844 269.101562 149.839844 C 269.058594 174.898438 269.015625 199.914062 268.976562 224.984375 C 267.203125 224.980469 265.46875 224.976562 263.664062 224.976562 C 263.703125 199.929688 263.746094 174.914062 263.789062 149.832031 Z M 263.789062 149.832031 " fill-opacity="1" fill-rule="nonzero"/></g><g clip-path="url(#a507895dda)"><path fill="#1d0062" d="M 214.636719 224.894531 C 212.863281 224.890625 211.128906 224.890625 209.328125 224.886719 C 209.371094 199.835938 209.414062 174.824219 209.453125 149.757812 C 211.203125 149.761719 212.941406 149.765625 214.761719 149.765625 C 214.722656 174.789062 214.679688 199.816406 214.636719 224.894531 Z M 214.636719 224.894531 " fill-opacity="1" fill-rule="nonzero"/></g><g clip-path="url(#b343ee9bf9)"><path fill="#1d0062" d="M 252.640625 224.960938 C 250.878906 224.957031 249.144531 224.953125 247.339844 224.953125 C 247.382812 199.898438 247.421875 174.894531 247.464844 149.824219 C 249.210938 149.828125 250.945312 149.832031 252.765625 149.835938 C 252.722656 174.855469 252.679688 199.882812 252.640625 224.960938 Z M 252.640625 224.960938 " fill-opacity="1" fill-rule="nonzero"/></g><g clip-path="url(#6128a1c27c)"><path fill="#1d0062" d="M 238.285156 224.988281 C 238.328125 199.878906 238.367188 174.886719 238.410156 149.820312 C 240.164062 149.824219 241.898438 149.828125 243.746094 149.832031 C 243.761719 150.054688 243.796875 150.300781 243.796875 150.546875 C 243.777344 165.035156 243.75 179.519531 243.726562 194.007812 C 243.710938 203.976562 243.703125 213.945312 243.6875 223.914062 C 243.6875 224.984375 243.6875 224.988281 242.4375 224.992188 C 241.09375 224.996094 239.753906 224.988281 238.285156 224.988281 Z M 238.285156 224.988281 " fill-opacity="1" fill-rule="nonzero"/></g><g clip-path="url(#df60d96f5a)"><path fill="#1d0062" d="M 230.925781 224.925781 C 229.757812 224.925781 228.644531 224.921875 227.441406 224.921875 C 227.484375 199.894531 227.527344 174.886719 227.566406 149.804688 C 228.683594 149.808594 229.820312 149.808594 231.050781 149.8125 C 231.007812 174.824219 230.964844 199.851562 230.925781 224.925781 Z M 230.925781 224.925781 " fill-opacity="1" fill-rule="nonzero"/></g><g clip-path="url(#79708494c7)"><path fill="#1d0062" d="M 278.265625 149.855469 C 279.464844 149.855469 280.578125 149.859375 281.785156 149.859375 C 281.800781 150.171875 281.832031 150.449219 281.832031 150.722656 C 281.808594 166.269531 281.777344 181.820312 281.753906 197.367188 C 281.742188 206.191406 281.734375 215.019531 281.722656 223.84375 C 281.722656 225.328125 281.742188 225.011719 280.253906 225.050781 C 279.574219 225.070312 278.890625 225.050781 278.140625 225.050781 C 278.183594 199.953125 278.222656 174.945312 278.265625 149.855469 Z M 278.265625 149.855469 " fill-opacity="1" fill-rule="nonzero"/></g><g clip-path="url(#0b97f73f06)"><path fill="#1d0062" d="M 332.332031 225.128906 C 331.28125 225.128906 330.28125 225.160156 329.292969 225.09375 C 329.109375 225.082031 328.828125 224.675781 328.828125 224.445312 C 328.796875 221.539062 328.804688 218.632812 328.808594 215.722656 C 328.828125 204.792969 328.847656 193.863281 328.867188 182.929688 C 328.882812 172.183594 328.902344 161.433594 328.902344 150.683594 C 328.902344 150.082031 329.09375 149.839844 329.855469 149.886719 C 330.691406 149.941406 331.535156 149.902344 332.457031 149.902344 C 332.414062 174.980469 332.375 199.996094 332.332031 225.128906 Z M 332.332031 225.128906 " fill-opacity="1" fill-rule="nonzero"/></g><g clip-path="url(#1c94b029ca)"><path fill="#1d0062" d="M 319.949219 149.929688 C 321.136719 149.929688 322.25 149.933594 323.5 149.933594 C 323.5 150.695312 323.5 151.414062 323.496094 152.128906 C 323.46875 167.191406 323.4375 182.253906 323.410156 197.3125 C 323.398438 206.246094 323.390625 215.179688 323.378906 224.113281 C 323.378906 224.777344 322.964844 225.113281 322.144531 225.117188 C 321.488281 225.117188 320.828125 225.117188 320.171875 225.113281 C 320.082031 225.113281 319.992188 225.078125 319.824219 225.046875 C 319.867188 200.035156 319.910156 175.019531 319.949219 149.929688 Z M 319.949219 149.929688 " fill-opacity="1" fill-rule="nonzero"/></g><g clip-path="url(#17ac669609)"><path fill="#1d0062" d="M 294.585938 149.84375 C 295.527344 149.84375 296.371094 149.882812 297.210938 149.835938 C 297.96875 149.792969 298.164062 150.039062 298.160156 150.640625 C 298.125 154.09375 298.132812 157.546875 298.125 161 C 298.105469 171.929688 298.085938 182.863281 298.066406 193.792969 C 298.050781 203.972656 298.027344 214.152344 298.023438 224.328125 C 298.023438 224.886719 297.871094 225.136719 297.132812 225.089844 C 296.265625 225.035156 295.394531 225.074219 294.460938 225.070312 C 294.503906 199.980469 294.542969 174.964844 294.585938 149.84375 Z M 294.585938 149.84375 " fill-opacity="1" fill-rule="nonzero"/></g><g clip-path="url(#16891c394d)"><path fill="#1d0062" d="M 220.203125 224.957031 C 220.246094 199.84375 220.289062 174.832031 220.328125 149.769531 C 221.488281 149.769531 222.601562 149.773438 223.824219 149.773438 C 223.847656 150.085938 223.886719 150.386719 223.886719 150.683594 C 223.855469 168.808594 223.820312 186.929688 223.785156 205.050781 C 223.773438 211.386719 223.75 217.722656 223.769531 224.054688 C 223.773438 224.75 223.582031 225.046875 222.683594 224.976562 C 221.886719 224.910156 221.074219 224.957031 220.203125 224.957031 Z M 220.203125 224.957031 " fill-opacity="1" fill-rule="nonzero"/></g><g clip-path="url(#ab5799b8c2)"><path fill="#1d0062" d="M 310.824219 149.917969 C 312.101562 149.921875 313.214844 149.921875 314.445312 149.925781 C 314.445312 151.03125 314.441406 152.089844 314.441406 153.144531 C 314.417969 166.234375 314.394531 179.320312 314.375 192.410156 C 314.355469 203.03125 314.335938 213.652344 314.339844 224.273438 C 314.339844 224.890625 314.179688 225.136719 313.359375 225.128906 C 310.691406 225.105469 310.699219 225.132812 310.703125 222.953125 C 310.730469 203.738281 310.757812 184.519531 310.789062 165.304688 C 310.796875 160.449219 310.8125 155.59375 310.824219 150.738281 C 310.824219 150.484375 310.824219 150.230469 310.824219 149.917969 Z M 310.824219 149.917969 " fill-opacity="1" fill-rule="nonzero"/></g><g clip-path="url(#28b3a6a16a)"><path fill="#1d0062" d="M 357.8125 225.097656 C 357.855469 200.070312 357.898438 175.082031 357.9375 150.09375 C 358.070312 150.054688 358.152344 150.015625 358.238281 150.011719 C 359.714844 149.941406 359.722656 149.945312 359.71875 151.050781 C 359.699219 164.722656 359.671875 178.390625 359.652344 192.058594 C 359.636719 202.738281 359.625 213.417969 359.613281 224.101562 C 359.609375 225.300781 359.558594 225.335938 357.8125 225.097656 Z M 357.8125 225.097656 " fill-opacity="1" fill-rule="nonzero"/></g><g clip-path="url(#a54b034cdd)"><path fill="#1d0062" d="M 189.484375 149.78125 C 189.484375 150.828125 189.480469 151.84375 189.480469 152.855469 C 189.449219 169.074219 189.417969 185.292969 189.386719 201.507812 C 189.375 209.0625 189.355469 216.613281 189.363281 224.167969 C 189.367188 224.726562 189.199219 224.949219 188.386719 224.921875 C 187.679688 224.902344 187.492188 224.730469 187.496094 224.222656 C 187.53125 221.164062 187.527344 218.105469 187.53125 215.046875 C 187.546875 205.320312 187.5625 195.589844 187.578125 185.859375 C 187.597656 176.105469 187.613281 166.351562 187.632812 156.597656 C 187.632812 154.675781 187.632812 152.75 187.644531 150.828125 C 187.652344 149.625 187.660156 149.625 189.484375 149.78125 Z M 189.484375 149.78125 " fill-opacity="1" fill-rule="nonzero"/></g><g clip-path="url(#0af753f2ad)"><path fill="#1d0062" d="M 192.878906 224.863281 C 192.6875 224.878906 192.539062 224.90625 192.390625 224.910156 C 191.554688 224.933594 191.136719 224.636719 191.132812 224.027344 C 191.167969 206.976562 191.199219 189.929688 191.230469 172.878906 C 191.246094 165.445312 191.257812 158.007812 191.269531 150.570312 C 191.269531 150.320312 191.269531 150.070312 191.269531 149.769531 C 191.882812 149.769531 192.398438 149.773438 193.003906 149.773438 C 192.960938 174.773438 192.921875 199.777344 192.878906 224.863281 Z M 192.878906 224.863281 " fill-opacity="1" fill-rule="nonzero"/></g><g clip-path="url(#974db750b4)"><path fill="#1d0062" d="M 354.195312 225.097656 C 354.238281 200.078125 354.277344 175.089844 354.320312 150.046875 C 354.875 150.046875 355.390625 150.046875 356.019531 150.050781 C 356.042969 150.246094 356.09375 150.464844 356.09375 150.683594 C 356.082031 160.667969 356.066406 170.652344 356.050781 180.636719 C 356.035156 190.34375 356.019531 200.046875 356.003906 209.753906 C 355.996094 214.550781 355.992188 219.34375 355.988281 224.140625 C 355.984375 225.296875 355.96875 225.308594 354.195312 225.097656 Z M 354.195312 225.097656 " fill-opacity="1" fill-rule="nonzero"/></g><g clip-path="url(#f430bf85ec)"><path fill="#1d0062" d="M 271.03125 149.894531 C 271.617188 149.894531 272.132812 149.894531 272.714844 149.894531 C 272.671875 174.9375 272.628906 199.941406 272.589844 224.996094 C 272.027344 224.996094 271.511719 224.992188 270.90625 224.992188 C 270.949219 199.96875 270.992188 174.949219 271.03125 149.894531 Z M 271.03125 149.894531 " fill-opacity="1" fill-rule="nonzero"/></g><g clip-path="url(#ae78782e9b)"><path fill="#1d0062" d="M 274.585938 149.886719 C 275.257812 149.886719 275.753906 149.886719 276.332031 149.886719 C 276.292969 174.925781 276.25 199.945312 276.207031 224.996094 C 275.941406 225.015625 275.730469 225.027344 275.519531 225.050781 C 274.722656 225.140625 274.441406 224.9375 274.445312 224.300781 C 274.492188 211.929688 274.515625 199.5625 274.535156 187.191406 C 274.554688 175.609375 274.566406 164.027344 274.582031 152.445312 C 274.585938 151.617188 274.585938 150.789062 274.585938 149.886719 Z M 274.585938 149.886719 " fill-opacity="1" fill-rule="nonzero"/></g><g clip-path="url(#3eab190841)"><path fill="#1d0062" d="M 283.5625 224.960938 C 283.601562 199.921875 283.644531 174.925781 283.6875 149.875 C 284.257812 149.878906 284.773438 149.878906 285.40625 149.878906 C 285.421875 150.152344 285.453125 150.425781 285.453125 150.699219 C 285.429688 165.238281 285.402344 179.777344 285.382812 194.316406 C 285.367188 204.15625 285.359375 213.996094 285.347656 223.839844 C 285.347656 225.183594 285.324219 225.203125 283.5625 224.960938 Z M 283.5625 224.960938 " fill-opacity="1" fill-rule="nonzero"/></g><g clip-path="url(#a518cb4fe4)"><path fill="#1d0062" d="M 259.972656 224.972656 C 259.3125 224.96875 258.796875 224.96875 258.214844 224.96875 C 258.257812 199.914062 258.296875 174.898438 258.339844 149.894531 C 258.421875 149.859375 258.472656 149.8125 258.523438 149.8125 C 259.582031 149.746094 260.109375 150.15625 260.109375 151.042969 C 260.078125 169.683594 260.046875 188.324219 260.015625 206.96875 C 260.003906 212.652344 259.988281 218.339844 259.972656 224.027344 C 259.972656 224.308594 259.972656 224.589844 259.972656 224.972656 Z M 259.972656 224.972656 " fill-opacity="1" fill-rule="nonzero"/></g><g clip-path="url(#c63e0c69b2)"><path fill="#1d0062" d="M 338.03125 149.96875 C 338.636719 149.96875 339.15625 149.96875 339.808594 149.96875 C 339.804688 150.324219 339.804688 150.625 339.804688 150.929688 C 339.769531 169.082031 339.734375 187.234375 339.703125 205.382812 C 339.691406 211.5625 339.683594 217.746094 339.671875 223.925781 C 339.667969 225.292969 339.660156 225.292969 337.90625 225.058594 C 337.945312 200.050781 337.988281 175.039062 338.03125 149.96875 Z M 338.03125 149.96875 " fill-opacity="1" fill-rule="nonzero"/></g><g clip-path="url(#b80d208d77)"><path fill="#1d0062" d="M 216.605469 149.785156 C 216.855469 149.753906 217.003906 149.722656 217.152344 149.71875 C 217.527344 149.710938 217.898438 149.714844 218.378906 149.71875 C 218.40625 150.039062 218.445312 150.3125 218.445312 150.585938 C 218.414062 168.632812 218.382812 186.675781 218.351562 204.722656 C 218.339844 211.136719 218.328125 217.550781 218.316406 223.960938 C 218.316406 224.949219 218.097656 225.117188 216.964844 224.921875 C 216.777344 224.886719 216.578125 224.660156 216.5 224.484375 C 216.417969 224.300781 216.480469 224.074219 216.480469 223.867188 C 216.519531 199.539062 216.5625 175.207031 216.601562 150.878906 C 216.601562 150.519531 216.601562 150.164062 216.605469 149.785156 Z M 216.605469 149.785156 " fill-opacity="1" fill-rule="nonzero"/></g><g clip-path="url(#123cd679ed)"><path fill="#1d0062" d="M 256.292969 224.949219 C 256.078125 224.972656 255.929688 225 255.777344 225.003906 C 254.945312 225.027344 254.53125 224.691406 254.53125 224.007812 C 254.5625 206.949219 254.597656 189.894531 254.628906 172.835938 C 254.644531 165.488281 254.65625 158.140625 254.667969 150.792969 C 254.667969 150.488281 254.667969 150.1875 254.667969 149.828125 C 255.292969 149.832031 255.808594 149.832031 256.417969 149.832031 C 256.375 174.871094 256.332031 199.902344 256.292969 224.949219 Z M 256.292969 224.949219 " fill-opacity="1" fill-rule="nonzero"/></g><g clip-path="url(#d0cca5fc45)"><path fill="#1d0062" d="M 303.621094 149.910156 C 304.253906 149.910156 304.769531 149.910156 305.347656 149.914062 C 305.308594 174.960938 305.265625 199.953125 305.222656 225.039062 C 304.910156 225.054688 304.613281 225.058594 304.316406 225.089844 C 303.609375 225.167969 303.40625 224.914062 303.414062 224.335938 C 303.453125 222 303.4375 219.664062 303.441406 217.328125 C 303.464844 205.304688 303.484375 193.28125 303.503906 181.261719 C 303.523438 171.03125 303.542969 160.800781 303.566406 150.570312 C 303.566406 150.367188 303.597656 150.164062 303.621094 149.910156 Z M 303.621094 149.910156 " fill-opacity="1" fill-rule="nonzero"/></g><g clip-path="url(#7832b37fd7)"><path fill="#1d0062" d="M 290.808594 224.972656 C 290.851562 199.96875 290.894531 174.957031 290.933594 149.890625 C 291.496094 149.890625 292.011719 149.894531 292.644531 149.894531 C 292.664062 150.164062 292.695312 150.4375 292.695312 150.710938 C 292.671875 167.300781 292.640625 183.890625 292.617188 200.480469 C 292.601562 208.269531 292.597656 216.054688 292.589844 223.84375 C 292.585938 225.203125 292.535156 225.242188 290.808594 224.972656 Z M 290.808594 224.972656 " fill-opacity="1" fill-rule="nonzero"/></g><g clip-path="url(#580f2435bd)"><path fill="#1d0062" d="M 232.980469 149.792969 C 233.550781 149.792969 234.070312 149.796875 234.703125 149.796875 C 234.722656 150.070312 234.757812 150.34375 234.753906 150.621094 C 234.726562 167.679688 234.695312 184.738281 234.664062 201.796875 C 234.648438 209.222656 234.628906 216.648438 234.644531 224.074219 C 234.644531 224.761719 234.46875 225.042969 233.566406 225 C 232.839844 224.964844 232.785156 224.683594 232.789062 224.207031 C 232.808594 220.832031 232.808594 217.457031 232.8125 214.082031 C 232.835938 202.085938 232.855469 190.089844 232.878906 178.097656 C 232.894531 168.878906 232.910156 159.660156 232.929688 150.445312 C 232.929688 150.242188 232.960938 150.039062 232.980469 149.792969 Z M 232.980469 149.792969 " fill-opacity="1" fill-rule="nonzero"/></g><g clip-path="url(#7a5fadbfa3)"><path fill="#1d0062" d="M 196.769531 149.710938 C 197.359375 149.714844 197.855469 149.714844 198.4375 149.714844 C 198.398438 174.742188 198.355469 199.753906 198.3125 224.84375 C 197.796875 224.84375 197.257812 224.839844 196.644531 224.839844 C 196.6875 199.820312 196.726562 174.808594 196.769531 149.710938 Z M 196.769531 149.710938 " fill-opacity="1" fill-rule="nonzero"/></g><g clip-path="url(#307bcc5b09)"><path fill="#1d0062" d="M 316.304688 149.921875 C 316.621094 149.90625 316.835938 149.890625 317.054688 149.886719 C 317.332031 149.882812 317.613281 149.886719 318.003906 149.890625 C 318.023438 150.207031 318.054688 150.480469 318.054688 150.753906 C 318.023438 171.46875 317.988281 192.1875 317.953125 212.90625 C 317.949219 216.566406 317.945312 220.226562 317.945312 223.890625 C 317.945312 225.265625 317.929688 225.28125 316.179688 225.019531 C 316.21875 200.019531 316.261719 175.003906 316.304688 149.921875 Z M 316.304688 149.921875 " fill-opacity="1" fill-rule="nonzero"/></g><g clip-path="url(#aab089f2e7)"><path fill="#1d0062" d="M 203.867188 224.839844 C 203.910156 199.804688 203.949219 174.804688 203.992188 149.753906 C 204.550781 149.753906 205.066406 149.753906 205.699219 149.757812 C 205.714844 149.972656 205.746094 150.21875 205.746094 150.46875 C 205.726562 163.96875 205.703125 177.46875 205.683594 190.972656 C 205.667969 201.878906 205.652344 212.78125 205.644531 223.6875 C 205.640625 225.070312 205.648438 225.070312 203.867188 224.839844 Z M 203.867188 224.839844 " fill-opacity="1" fill-rule="nonzero"/></g><g clip-path="url(#85e67f3ee8)"><path fill="#1d0062" d="M 350.59375 225.058594 C 350.636719 200.0625 350.679688 175.054688 350.71875 149.996094 C 351.28125 149.996094 351.796875 149.996094 352.414062 149.996094 C 352.429688 150.273438 352.460938 150.546875 352.460938 150.820312 C 352.429688 170.550781 352.394531 190.277344 352.363281 210.003906 C 352.355469 214.675781 352.355469 219.351562 352.351562 224.023438 C 352.351562 225.308594 352.273438 225.355469 350.59375 225.058594 Z M 350.59375 225.058594 " fill-opacity="1" fill-rule="nonzero"/></g></svg>