<svg xmlns="http://www.w3.org/2000/svg" xmlns:xlink="http://www.w3.org/1999/xlink" width="500" zoomAndPan="magnify" viewBox="0 0 375 374.999991" height="500" preserveAspectRatio="xMidYMid meet" version="1.0"><defs><clipPath id="dd7fda637d"><path d="M 64 300 L 131 300 L 131 367.214844 L 64 367.214844 Z M 64 300 " clip-rule="nonzero"/></clipPath><clipPath id="cdc2ca1d13"><path d="M 185 7.964844 L 204 7.964844 L 204 27 L 185 27 Z M 185 7.964844 " clip-rule="nonzero"/></clipPath></defs><g clip-path="url(#dd7fda637d)"><path fill="#a173af" d="M 130.835938 333.640625 C 112.570312 333.640625 97.453125 319.152344 97.453125 300.882812 C 97.453125 319.152344 82.960938 333.640625 64.695312 333.640625 C 82.960938 333.640625 97.453125 348.757812 97.453125 367.027344 C 97.453125 348.757812 112.570312 333.640625 130.835938 333.640625 Z M 130.835938 333.640625 " fill-opacity="1" fill-rule="evenodd"/></g><path fill="#a173af" d="M 207.691406 276.945312 C 190.679688 276.945312 176.824219 262.457031 176.824219 245.449219 C 176.824219 262.457031 162.964844 276.945312 145.957031 276.945312 C 162.964844 276.945312 176.824219 290.804688 176.824219 307.8125 C 176.824219 290.804688 190.679688 276.945312 207.691406 276.945312 Z M 207.691406 276.945312 " fill-opacity="1" fill-rule="evenodd"/><path fill="#a173af" d="M 151.625 234.109375 C 135.878906 234.109375 122.648438 220.878906 122.648438 205.132812 C 122.648438 220.878906 110.050781 234.109375 94.300781 234.109375 C 110.050781 234.109375 122.648438 246.707031 122.648438 262.457031 C 122.648438 246.707031 135.878906 234.109375 151.625 234.109375 Z M 151.625 234.109375 " fill-opacity="1" fill-rule="evenodd"/><path fill="#a173af" d="M 223.4375 202.613281 C 208.320312 202.613281 196.351562 190.644531 196.351562 176.15625 C 196.351562 190.644531 184.382812 202.613281 169.894531 202.613281 C 184.382812 202.613281 196.351562 214.582031 196.351562 229.070312 C 196.351562 214.582031 208.320312 202.613281 223.4375 202.613281 Z M 223.4375 202.613281 " fill-opacity="1" fill-rule="evenodd"/><path fill="#a173af" d="M 182.492188 174.265625 C 169.261719 174.265625 158.554688 162.925781 158.554688 149.699219 C 158.554688 162.925781 147.214844 174.265625 133.988281 174.265625 C 147.214844 174.265625 158.554688 184.972656 158.554688 198.832031 C 158.554688 184.972656 169.261719 174.265625 182.492188 174.265625 Z M 182.492188 174.265625 " fill-opacity="1" fill-rule="evenodd"/><path fill="#a173af" d="M 205.171875 127.019531 C 193.203125 127.019531 183.121094 116.941406 183.121094 104.34375 C 183.121094 116.941406 173.042969 127.019531 161.074219 127.019531 C 173.042969 127.019531 183.121094 137.097656 183.121094 149.066406 C 183.121094 137.097656 193.203125 127.019531 205.171875 127.019531 Z M 205.171875 127.019531 " fill-opacity="1" fill-rule="evenodd"/><path fill="#a173af" d="M 267.535156 137.097656 C 256.195312 137.097656 247.375 128.28125 247.375 117.570312 C 247.375 128.28125 238.554688 137.097656 227.21875 137.097656 C 238.554688 137.097656 247.375 146.546875 247.375 157.257812 C 247.375 146.546875 256.195312 137.097656 267.535156 137.097656 Z M 267.535156 137.097656 " fill-opacity="1" fill-rule="evenodd"/><path fill="#a173af" d="M 232.257812 94.894531 C 222.808594 94.894531 214.617188 87.335938 214.617188 77.253906 C 214.617188 87.335938 206.429688 94.894531 196.980469 94.894531 C 206.429688 94.894531 214.617188 103.082031 214.617188 113.160156 C 214.617188 103.082031 222.808594 94.894531 232.257812 94.894531 Z M 232.257812 94.894531 " fill-opacity="1" fill-rule="evenodd"/><path fill="#a173af" d="M 271.941406 96.152344 C 263.125 96.152344 256.195312 89.222656 256.195312 81.035156 C 256.195312 89.222656 249.265625 96.152344 240.445312 96.152344 C 249.265625 96.152344 256.195312 103.714844 256.195312 111.902344 C 256.195312 103.714844 263.125 96.152344 271.941406 96.152344 Z M 271.941406 96.152344 " fill-opacity="1" fill-rule="evenodd"/><path fill="#a173af" d="M 217.136719 49.539062 C 209.578125 49.539062 203.910156 43.871094 203.910156 36.308594 C 203.910156 43.871094 197.609375 49.539062 190.050781 49.539062 C 197.609375 49.539062 203.910156 55.839844 203.910156 63.398438 C 203.910156 55.839844 209.578125 49.539062 217.136719 49.539062 Z M 217.136719 49.539062 " fill-opacity="1" fill-rule="evenodd"/><path fill="#a173af" d="M 245.484375 59.617188 C 239.816406 59.617188 234.777344 54.578125 234.777344 48.277344 C 234.777344 54.578125 229.105469 59.617188 223.4375 59.617188 C 229.105469 59.617188 234.777344 64.65625 234.777344 70.957031 C 234.777344 64.65625 239.816406 59.617188 245.484375 59.617188 Z M 245.484375 59.617188 " fill-opacity="1" fill-rule="evenodd"/><g clip-path="url(#cdc2ca1d13)"><path fill="#a173af" d="M 203.910156 16.78125 C 198.871094 16.78125 195.089844 13.003906 195.089844 7.964844 C 195.089844 13.003906 190.679688 16.78125 185.640625 16.78125 C 190.679688 16.78125 195.089844 21.191406 195.089844 26.230469 C 195.089844 21.191406 198.871094 16.78125 203.910156 16.78125 Z M 203.910156 16.78125 " fill-opacity="1" fill-rule="evenodd"/></g><path fill="#a173af" d="M 174.933594 224.660156 C 168.632812 224.660156 163.59375 219.621094 163.59375 213.320312 C 163.59375 219.621094 158.554688 224.660156 152.253906 224.660156 C 158.554688 224.660156 163.59375 229.699219 163.59375 236 C 163.59375 229.699219 168.632812 224.660156 174.933594 224.660156 Z M 174.933594 224.660156 " fill-opacity="1" fill-rule="evenodd"/><path fill="#a173af" d="M 133.988281 290.804688 C 126.429688 290.804688 120.128906 284.503906 120.128906 277.574219 C 120.128906 284.503906 114.460938 290.804688 106.898438 290.804688 C 114.460938 290.804688 120.128906 297.101562 120.128906 304.03125 C 120.128906 297.101562 126.429688 290.804688 133.988281 290.804688 Z M 133.988281 290.804688 " fill-opacity="1" fill-rule="evenodd"/><path fill="#a173af" d="M 224.699219 157.257812 C 218.398438 157.257812 213.359375 152.21875 213.359375 145.917969 C 213.359375 152.21875 208.320312 157.257812 202.019531 157.257812 C 208.320312 157.257812 213.359375 162.296875 213.359375 168.597656 C 213.359375 162.296875 218.398438 157.257812 224.699219 157.257812 Z M 224.699219 157.257812 " fill-opacity="1" fill-rule="evenodd"/><path fill="#a173af" d="M 106.898438 211.433594 C 99.972656 211.433594 93.671875 205.761719 93.671875 198.203125 C 93.671875 205.761719 87.371094 211.433594 80.441406 211.433594 C 87.371094 211.433594 93.671875 217.730469 93.671875 225.289062 C 93.671875 217.730469 99.972656 211.433594 106.898438 211.433594 Z M 106.898438 211.433594 " fill-opacity="1" fill-rule="evenodd"/><path fill="#a173af" d="M 209.578125 260.566406 C 204.539062 260.566406 200.761719 256.785156 200.761719 251.746094 C 200.761719 256.785156 196.351562 260.566406 191.3125 260.566406 C 196.351562 260.566406 200.761719 264.976562 200.761719 270.015625 C 200.761719 264.976562 204.539062 260.566406 209.578125 260.566406 Z M 209.578125 260.566406 " fill-opacity="1" fill-rule="evenodd"/><path fill="#a173af" d="M 72.253906 321.039062 C 63.433594 321.039062 56.503906 314.109375 56.503906 305.292969 C 56.503906 314.109375 49.574219 321.039062 40.757812 321.039062 C 49.574219 321.039062 56.503906 327.96875 56.503906 336.789062 C 56.503906 327.96875 63.433594 321.039062 72.253906 321.039062 Z M 72.253906 321.039062 " fill-opacity="1" fill-rule="evenodd"/><path fill="#a173af" d="M 104.378906 275.683594 C 94.929688 275.683594 86.742188 267.496094 86.742188 258.046875 C 86.742188 267.496094 78.554688 275.683594 69.105469 275.683594 C 78.554688 275.683594 86.742188 283.875 86.742188 293.324219 C 86.742188 283.875 94.929688 275.683594 104.378906 275.683594 Z M 104.378906 275.683594 " fill-opacity="1" fill-rule="evenodd"/><path fill="#a173af" d="M 166.742188 334.269531 C 159.816406 334.269531 153.515625 328.597656 153.515625 321.039062 C 153.515625 328.597656 147.214844 334.269531 140.285156 334.269531 C 147.214844 334.269531 153.515625 340.566406 153.515625 348.128906 C 153.515625 340.566406 159.816406 334.269531 166.742188 334.269531 Z M 166.742188 334.269531 " fill-opacity="1" fill-rule="evenodd"/></svg>