<svg xmlns="http://www.w3.org/2000/svg" xmlns:xlink="http://www.w3.org/1999/xlink" width="900" zoomAndPan="magnify" viewBox="0 0 675 119.999999" height="160" preserveAspectRatio="xMidYMid meet" version="1.0"><defs><clipPath id="99b90fb305"><path d="M 613 7.96875 L 637 7.96875 L 637 39.378906 L 613 39.378906 Z M 613 7.96875 " clip-rule="nonzero"/></clipPath><clipPath id="b91dd54a2a"><path d="M 0.199219 7.96875 L 24 7.96875 L 24 39.378906 L 0.199219 39.378906 Z M 0.199219 7.96875 " clip-rule="nonzero"/></clipPath><clipPath id="39f666718d"><path d="M 299 4.347656 L 338 4.347656 L 338 43.421875 L 299 43.421875 Z M 299 4.347656 " clip-rule="nonzero"/></clipPath><clipPath id="358d4b556f"><path d="M 319.347656 5.25 L 321 15.355469 C 321.507812 18.449219 323.933594 20.875 327.03125 21.382812 L 337.136719 23.035156 C 337.550781 23.105469 337.855469 23.464844 337.855469 23.882812 C 337.855469 24.304688 337.550781 24.664062 337.136719 24.730469 L 327.03125 26.386719 C 323.933594 26.890625 321.507812 29.320312 321 32.414062 L 319.347656 42.519531 C 319.28125 42.933594 318.921875 43.238281 318.5 43.238281 C 318.078125 43.238281 317.71875 42.933594 317.652344 42.519531 L 316 32.414062 C 315.492188 29.320312 313.066406 26.890625 309.96875 26.386719 L 299.863281 24.730469 C 299.449219 24.664062 299.144531 24.304688 299.144531 23.882812 C 299.144531 23.464844 299.449219 23.105469 299.863281 23.035156 L 309.96875 21.382812 C 313.066406 20.875 315.492188 18.449219 316 15.355469 L 317.652344 5.25 C 317.71875 4.835938 318.078125 4.527344 318.5 4.527344 C 318.921875 4.527344 319.28125 4.835938 319.347656 5.25 Z M 319.347656 5.25 " clip-rule="nonzero"/></clipPath><clipPath id="5d2b3d9221"><path d="M 0 0.347656 L 38.878906 0.347656 L 38.878906 39.421875 L 0 39.421875 Z M 0 0.347656 " clip-rule="nonzero"/></clipPath><clipPath id="6ceb3a248c"><path d="M 20.347656 1.25 L 22 11.355469 C 22.507812 14.449219 24.933594 16.875 28.03125 17.382812 L 38.136719 19.035156 C 38.550781 19.105469 38.855469 19.464844 38.855469 19.882812 C 38.855469 20.304688 38.550781 20.664062 38.136719 20.730469 L 28.03125 22.386719 C 24.933594 22.890625 22.507812 25.320312 22 28.414062 L 20.347656 38.519531 C 20.28125 38.933594 19.921875 39.238281 19.5 39.238281 C 19.078125 39.238281 18.71875 38.933594 18.652344 38.519531 L 17 28.414062 C 16.492188 25.320312 14.066406 22.890625 10.96875 22.386719 L 0.863281 20.730469 C 0.449219 20.664062 0.144531 20.304688 0.144531 19.882812 C 0.144531 19.464844 0.449219 19.105469 0.863281 19.035156 L 10.96875 17.382812 C 14.066406 16.875 16.492188 14.449219 17 11.355469 L 18.652344 1.25 C 18.71875 0.835938 19.078125 0.527344 19.5 0.527344 C 19.921875 0.527344 20.28125 0.835938 20.347656 1.25 Z M 20.347656 1.25 " clip-rule="nonzero"/></clipPath><clipPath id="ccf73472b4"><rect x="0" width="39" y="0" height="40"/></clipPath><clipPath id="a1e24dcb54"><rect x="0" width="638" y="0" height="48"/></clipPath></defs><g transform="matrix(1, 0, 0, 1, 19, 36)"><g clip-path="url(#a1e24dcb54)"><path fill="#a330a5" d="M 323.875 24.003906 C 323.875 24.355469 323.839844 24.703125 323.769531 25.046875 C 323.703125 25.390625 323.601562 25.726562 323.464844 26.050781 C 323.332031 26.375 323.167969 26.683594 322.972656 26.976562 C 322.777344 27.265625 322.554688 27.535156 322.304688 27.785156 C 322.058594 28.035156 321.789062 28.253906 321.496094 28.449219 C 321.203125 28.644531 320.894531 28.808594 320.570312 28.945312 C 320.246094 29.078125 319.914062 29.179688 319.566406 29.25 C 319.222656 29.316406 318.875 29.351562 318.523438 29.351562 C 318.171875 29.351562 317.824219 29.316406 317.480469 29.25 C 317.136719 29.179688 316.800781 29.078125 316.476562 28.945312 C 316.152344 28.808594 315.84375 28.644531 315.554688 28.449219 C 315.261719 28.253906 314.992188 28.035156 314.742188 27.785156 C 314.492188 27.535156 314.273438 27.265625 314.078125 26.976562 C 313.882812 26.683594 313.71875 26.375 313.582031 26.050781 C 313.449219 25.726562 313.347656 25.390625 313.277344 25.046875 C 313.210938 24.703125 313.175781 24.355469 313.175781 24.003906 C 313.175781 23.652344 313.210938 23.304688 313.277344 22.960938 C 313.347656 22.617188 313.449219 22.28125 313.582031 21.957031 C 313.71875 21.632812 313.882812 21.324219 314.078125 21.03125 C 314.273438 20.738281 314.492188 20.46875 314.742188 20.222656 C 314.992188 19.972656 315.261719 19.75 315.554688 19.554688 C 315.84375 19.359375 316.152344 19.195312 316.476562 19.0625 C 316.800781 18.925781 317.136719 18.824219 317.480469 18.757812 C 317.824219 18.6875 318.171875 18.65625 318.523438 18.65625 C 318.875 18.65625 319.222656 18.6875 319.566406 18.757812 C 319.914062 18.824219 320.246094 18.925781 320.570312 19.0625 C 320.894531 19.195312 321.203125 19.359375 321.496094 19.554688 C 321.789062 19.75 322.058594 19.972656 322.304688 20.222656 C 322.554688 20.46875 322.777344 20.738281 322.972656 21.03125 C 323.167969 21.324219 323.332031 21.632812 323.464844 21.957031 C 323.601562 22.28125 323.703125 22.617188 323.769531 22.960938 C 323.839844 23.304688 323.875 23.652344 323.875 24.003906 Z M 323.875 24.003906 " fill-opacity="1" fill-rule="nonzero"/><g clip-path="url(#99b90fb305)"><path fill="#a330a5" d="M 613.457031 24.003906 C 613.980469 24.003906 614.503906 23.976562 615.027344 23.925781 C 615.550781 23.875 616.066406 23.796875 616.582031 23.695312 C 617.097656 23.59375 617.605469 23.464844 618.109375 23.3125 C 618.613281 23.160156 619.105469 22.984375 619.589844 22.78125 C 620.074219 22.582031 620.550781 22.359375 621.011719 22.109375 C 621.476562 21.863281 621.925781 21.59375 622.363281 21.300781 C 622.800781 21.007812 623.21875 20.695312 623.625 20.363281 C 624.03125 20.03125 624.421875 19.679688 624.792969 19.308594 C 625.164062 18.9375 625.515625 18.546875 625.847656 18.140625 C 626.183594 17.734375 626.496094 17.3125 626.785156 16.878906 C 627.078125 16.441406 627.347656 15.992188 627.59375 15.527344 C 627.84375 15.066406 628.066406 14.589844 628.269531 14.105469 C 628.46875 13.621094 628.644531 13.125 628.796875 12.625 C 628.949219 12.121094 629.078125 11.613281 629.179688 11.097656 C 629.28125 10.582031 629.359375 10.0625 629.410156 9.542969 C 629.460938 9.019531 629.488281 8.496094 629.488281 7.96875 C 629.488281 9.109375 629.605469 10.234375 629.847656 11.347656 C 630.085938 12.464844 630.441406 13.539062 630.910156 14.578125 C 631.382812 15.613281 631.957031 16.589844 632.632812 17.503906 C 633.3125 18.421875 634.082031 19.253906 634.9375 20.003906 C 635.226562 20.25 635.480469 20.527344 635.710938 20.828125 C 635.9375 21.132812 636.128906 21.457031 636.289062 21.800781 C 636.445312 22.144531 636.566406 22.503906 636.644531 22.875 C 636.726562 23.242188 636.765625 23.617188 636.765625 23.996094 C 636.765625 24.375 636.726562 24.75 636.644531 25.121094 C 636.566406 25.492188 636.445312 25.847656 636.289062 26.191406 C 636.128906 26.535156 635.9375 26.859375 635.710938 27.164062 C 635.480469 27.464844 635.226562 27.742188 634.9375 27.988281 C 634.082031 28.742188 633.3125 29.574219 632.632812 30.492188 C 631.953125 31.40625 631.378906 32.382812 630.910156 33.421875 C 630.4375 34.460938 630.085938 35.539062 629.84375 36.652344 C 629.605469 37.769531 629.488281 38.894531 629.488281 40.035156 C 629.488281 39.511719 629.460938 38.988281 629.410156 38.464844 C 629.359375 37.941406 629.28125 37.421875 629.179688 36.910156 C 629.078125 36.394531 628.949219 35.882812 628.796875 35.382812 C 628.644531 34.878906 628.46875 34.386719 628.269531 33.902344 C 628.066406 33.414062 627.84375 32.941406 627.59375 32.476562 C 627.347656 32.015625 627.078125 31.566406 626.785156 31.128906 C 626.496094 30.691406 626.183594 30.269531 625.847656 29.863281 C 625.515625 29.460938 625.164062 29.070312 624.792969 28.699219 C 624.421875 28.328125 624.03125 27.976562 623.625 27.644531 C 623.21875 27.308594 622.800781 26.996094 622.363281 26.707031 C 621.925781 26.414062 621.476562 26.144531 621.011719 25.894531 C 620.550781 25.648438 620.074219 25.425781 619.589844 25.222656 C 619.105469 25.023438 618.613281 24.847656 618.109375 24.695312 C 617.605469 24.542969 617.097656 24.414062 616.582031 24.3125 C 616.066406 24.207031 615.550781 24.132812 615.027344 24.082031 C 614.503906 24.027344 613.980469 24.003906 613.457031 24.003906 Z M 613.457031 24.003906 " fill-opacity="1" fill-rule="nonzero"/></g><path fill="#a330a5" d="M 606.175781 24.003906 C 606.175781 24.355469 606.210938 24.703125 606.277344 25.046875 C 606.347656 25.390625 606.449219 25.726562 606.582031 26.050781 C 606.71875 26.375 606.882812 26.683594 607.078125 26.976562 C 607.273438 27.265625 607.496094 27.535156 607.742188 27.785156 C 607.992188 28.035156 608.261719 28.253906 608.554688 28.449219 C 608.84375 28.644531 609.152344 28.808594 609.476562 28.945312 C 609.800781 29.078125 610.136719 29.179688 610.480469 29.25 C 610.824219 29.316406 611.175781 29.351562 611.523438 29.351562 C 611.875 29.351562 612.222656 29.316406 612.570312 29.25 C 612.914062 29.179688 613.246094 29.078125 613.570312 28.945312 C 613.894531 28.808594 614.203125 28.644531 614.496094 28.449219 C 614.789062 28.253906 615.058594 28.035156 615.308594 27.785156 C 615.554688 27.535156 615.777344 27.265625 615.972656 26.976562 C 616.167969 26.683594 616.332031 26.375 616.464844 26.050781 C 616.601562 25.726562 616.703125 25.390625 616.769531 25.046875 C 616.839844 24.703125 616.875 24.355469 616.875 24.003906 C 616.875 23.652344 616.839844 23.304688 616.769531 22.960938 C 616.703125 22.617188 616.601562 22.28125 616.464844 21.957031 C 616.332031 21.632812 616.167969 21.324219 615.972656 21.03125 C 615.777344 20.738281 615.554688 20.46875 615.308594 20.222656 C 615.058594 19.972656 614.789062 19.75 614.496094 19.554688 C 614.203125 19.359375 613.894531 19.195312 613.570312 19.0625 C 613.246094 18.925781 612.914062 18.824219 612.570312 18.757812 C 612.222656 18.6875 611.875 18.65625 611.523438 18.65625 C 611.175781 18.65625 610.824219 18.6875 610.480469 18.757812 C 610.136719 18.824219 609.804688 18.925781 609.476562 19.0625 C 609.152344 19.195312 608.84375 19.359375 608.554688 19.554688 C 608.261719 19.75 607.992188 19.972656 607.742188 20.222656 C 607.496094 20.46875 607.273438 20.738281 607.078125 21.03125 C 606.882812 21.324219 606.71875 21.632812 606.582031 21.957031 C 606.449219 22.28125 606.347656 22.617188 606.277344 22.960938 C 606.210938 23.304688 606.175781 23.652344 606.175781 24.003906 Z M 606.175781 24.003906 " fill-opacity="1" fill-rule="nonzero"/><path fill="#a330a5" d="M 315.144531 22.867188 L 610.945312 22.867188 L 610.945312 25.136719 L 315.144531 25.136719 Z M 315.144531 22.867188 " fill-opacity="1" fill-rule="nonzero"/><path fill="#a330a5" d="M 30.886719 22.867188 L 326.6875 22.867188 L 326.6875 25.136719 L 30.886719 25.136719 Z M 30.886719 22.867188 " fill-opacity="1" fill-rule="nonzero"/><g clip-path="url(#b91dd54a2a)"><path fill="#a330a5" d="M 7.558594 40.035156 C 7.5625 38.898438 7.445312 37.769531 7.207031 36.65625 C 6.96875 35.539062 6.617188 34.464844 6.148438 33.425781 C 5.679688 32.386719 5.105469 31.40625 4.425781 30.492188 C 3.746094 29.574219 2.980469 28.742188 2.125 27.988281 C 1.835938 27.742188 1.578125 27.464844 1.351562 27.164062 C 1.125 26.859375 0.933594 26.535156 0.773438 26.191406 C 0.617188 25.847656 0.496094 25.492188 0.417969 25.121094 C 0.335938 24.75 0.296875 24.375 0.296875 23.996094 C 0.296875 23.617188 0.335938 23.242188 0.417969 22.875 C 0.496094 22.503906 0.617188 22.144531 0.773438 21.800781 C 0.933594 21.457031 1.125 21.132812 1.351562 20.828125 C 1.578125 20.527344 1.835938 20.25 2.125 20.003906 C 2.980469 19.253906 3.746094 18.421875 4.425781 17.503906 C 5.101562 16.589844 5.675781 15.613281 6.144531 14.574219 C 6.613281 13.539062 6.96875 12.460938 7.207031 11.347656 C 7.445312 10.234375 7.5625 9.109375 7.558594 7.96875 C 7.5625 8.496094 7.585938 9.019531 7.640625 9.542969 C 7.691406 10.0625 7.769531 10.582031 7.871094 11.097656 C 7.972656 11.613281 8.101562 12.121094 8.253906 12.621094 C 8.40625 13.125 8.582031 13.617188 8.785156 14.105469 C 8.984375 14.589844 9.210938 15.0625 9.457031 15.527344 C 9.703125 15.988281 9.976562 16.4375 10.265625 16.875 C 10.558594 17.3125 10.871094 17.730469 11.203125 18.136719 C 11.535156 18.542969 11.890625 18.933594 12.261719 19.304688 C 12.632812 19.675781 13.019531 20.027344 13.425781 20.359375 C 13.832031 20.691406 14.253906 21.003906 14.6875 21.296875 C 15.125 21.589844 15.574219 21.859375 16.039062 22.105469 C 16.5 22.355469 16.976562 22.578125 17.460938 22.78125 C 17.945312 22.980469 18.4375 23.15625 18.941406 23.308594 C 19.441406 23.460938 19.953125 23.589844 20.464844 23.691406 C 20.980469 23.796875 21.5 23.875 22.023438 23.925781 C 22.546875 23.976562 23.070312 24.003906 23.59375 24.003906 C 23.070312 24.003906 22.546875 24.03125 22.023438 24.082031 C 21.5 24.132812 20.980469 24.210938 20.464844 24.3125 C 19.953125 24.417969 19.441406 24.542969 18.941406 24.695312 C 18.4375 24.847656 17.945312 25.027344 17.460938 25.226562 C 16.976562 25.429688 16.5 25.652344 16.039062 25.898438 C 15.574219 26.148438 15.125 26.417969 14.6875 26.710938 C 14.253906 27 13.832031 27.3125 13.425781 27.644531 C 13.019531 27.980469 12.632812 28.332031 12.261719 28.703125 C 11.890625 29.074219 11.535156 29.460938 11.203125 29.867188 C 10.871094 30.273438 10.558594 30.695312 10.265625 31.132812 C 9.976562 31.566406 9.703125 32.019531 9.457031 32.480469 C 9.210938 32.945312 8.984375 33.417969 8.785156 33.902344 C 8.582031 34.386719 8.40625 34.882812 8.253906 35.382812 C 8.101562 35.886719 7.972656 36.394531 7.871094 36.910156 C 7.769531 37.425781 7.691406 37.941406 7.640625 38.464844 C 7.585938 38.988281 7.5625 39.511719 7.558594 40.035156 Z M 7.558594 40.035156 " fill-opacity="1" fill-rule="nonzero"/></g><path fill="#a330a5" d="M 30.886719 24.003906 C 30.886719 24.355469 30.851562 24.703125 30.78125 25.046875 C 30.714844 25.390625 30.613281 25.726562 30.476562 26.050781 C 30.34375 26.375 30.179688 26.679688 29.984375 26.972656 C 29.789062 27.265625 29.566406 27.535156 29.320312 27.785156 C 29.070312 28.03125 28.800781 28.253906 28.511719 28.449219 C 28.21875 28.644531 27.910156 28.808594 27.585938 28.945312 C 27.261719 29.078125 26.925781 29.179688 26.582031 29.25 C 26.238281 29.316406 25.890625 29.351562 25.539062 29.351562 C 25.191406 29.351562 24.84375 29.316406 24.496094 29.25 C 24.152344 29.183594 23.820312 29.082031 23.496094 28.945312 C 23.171875 28.8125 22.863281 28.648438 22.570312 28.453125 C 22.277344 28.257812 22.007812 28.039062 21.757812 27.789062 C 21.511719 27.542969 21.289062 27.273438 21.09375 26.980469 C 20.898438 26.6875 20.734375 26.382812 20.597656 26.058594 C 20.464844 25.734375 20.359375 25.398438 20.292969 25.054688 C 20.222656 24.710938 20.1875 24.363281 20.1875 24.011719 C 20.1875 23.660156 20.222656 23.3125 20.289062 22.96875 C 20.355469 22.625 20.457031 22.289062 20.589844 21.964844 C 20.726562 21.640625 20.890625 21.332031 21.082031 21.039062 C 21.277344 20.746094 21.5 20.476562 21.746094 20.230469 C 21.996094 19.980469 22.265625 19.757812 22.554688 19.5625 C 22.847656 19.367188 23.15625 19.203125 23.480469 19.066406 C 23.804688 18.929688 24.136719 18.828125 24.480469 18.757812 C 24.824219 18.691406 25.171875 18.65625 25.523438 18.65625 C 25.875 18.652344 26.222656 18.6875 26.570312 18.753906 C 26.914062 18.824219 27.25 18.925781 27.574219 19.058594 C 27.898438 19.191406 28.207031 19.355469 28.5 19.550781 C 28.792969 19.746094 29.066406 19.96875 29.3125 20.214844 C 29.5625 20.464844 29.785156 20.734375 29.980469 21.027344 C 30.175781 21.320312 30.34375 21.628906 30.476562 21.953125 C 30.613281 22.277344 30.714844 22.613281 30.78125 22.957031 C 30.851562 23.304688 30.886719 23.652344 30.886719 24.003906 Z M 30.886719 24.003906 " fill-opacity="1" fill-rule="nonzero"/><g clip-path="url(#39f666718d)"><g clip-path="url(#358d4b556f)"><g transform="matrix(1, 0, 0, 1, 299, 4)"><g clip-path="url(#ccf73472b4)"><g clip-path="url(#5d2b3d9221)"><g clip-path="url(#6ceb3a248c)"><rect x="-563.7" width="1166.4" fill="#a330a5" y="-83.679999" height="207.359997" fill-opacity="1"/></g></g></g></g></g></g></g></g></svg>