<svg xmlns="http://www.w3.org/2000/svg" xmlns:xlink="http://www.w3.org/1999/xlink" width="711" zoomAndPan="magnify" viewBox="0 0 533.25 39.749999" height="53" preserveAspectRatio="xMidYMid meet" version="1.0"><defs><clipPath id="69da0a4de1"><path d="M 3 0 L 530 0 L 530 39.5 L 3 39.5 Z M 3 0 " clip-rule="nonzero"/></clipPath><clipPath id="95a8018559"><path d="M 506 6.519531 L 526 6.519531 L 526 32.445312 L 506 32.445312 Z M 506 6.519531 " clip-rule="nonzero"/></clipPath><clipPath id="c45dc9756a"><path d="M 0.203125 6.519531 L 20 6.519531 L 20 32.445312 L 0.203125 32.445312 Z M 0.203125 6.519531 " clip-rule="nonzero"/></clipPath><clipPath id="2016678634"><path d="M 247.53125 4.300781 L 278.242188 4.300781 L 278.242188 35 L 247.53125 35 Z M 247.53125 4.300781 " clip-rule="nonzero"/></clipPath><clipPath id="56a5027652"><path d="M 263.726562 5.148438 L 264.808594 11.742188 C 265.308594 14.820312 267.722656 17.230469 270.796875 17.734375 L 277.390625 18.8125 C 277.804688 18.878906 278.109375 19.238281 278.109375 19.65625 C 278.109375 20.074219 277.804688 20.429688 277.390625 20.496094 L 270.796875 21.578125 C 267.722656 22.082031 265.308594 24.492188 264.808594 27.566406 L 263.726562 34.160156 C 263.660156 34.574219 263.304688 34.878906 262.886719 34.878906 C 262.46875 34.878906 262.109375 34.574219 262.042969 34.160156 L 260.964844 27.566406 C 260.460938 24.492188 258.050781 22.082031 254.972656 21.578125 L 248.378906 20.496094 C 247.964844 20.429688 247.664062 20.074219 247.664062 19.65625 C 247.664062 19.238281 247.964844 18.878906 248.378906 18.8125 L 254.972656 17.734375 C 258.050781 17.230469 260.460938 14.820312 260.964844 11.742188 L 262.042969 5.148438 C 262.109375 4.734375 262.46875 4.433594 262.886719 4.433594 C 263.304688 4.433594 263.660156 4.734375 263.726562 5.148438 Z M 263.726562 5.148438 " clip-rule="nonzero"/></clipPath><clipPath id="0b4ad37d80"><path d="M 0.53125 0.300781 L 31.242188 0.300781 L 31.242188 31 L 0.53125 31 Z M 0.53125 0.300781 " clip-rule="nonzero"/></clipPath><clipPath id="39d8508a75"><path d="M 16.726562 1.148438 L 17.808594 7.742188 C 18.308594 10.820312 20.722656 13.230469 23.796875 13.734375 L 30.390625 14.8125 C 30.804688 14.878906 31.109375 15.238281 31.109375 15.65625 C 31.109375 16.074219 30.804688 16.429688 30.390625 16.496094 L 23.796875 17.578125 C 20.722656 18.082031 18.308594 20.492188 17.808594 23.566406 L 16.726562 30.160156 C 16.660156 30.574219 16.304688 30.878906 15.886719 30.878906 C 15.46875 30.878906 15.109375 30.574219 15.042969 30.160156 L 13.964844 23.566406 C 13.460938 20.492188 11.050781 18.082031 7.972656 17.578125 L 1.378906 16.496094 C 0.964844 16.429688 0.664062 16.074219 0.664062 15.65625 C 0.664062 15.238281 0.964844 14.878906 1.378906 14.8125 L 7.972656 13.734375 C 11.050781 13.230469 13.460938 10.820312 13.964844 7.742188 L 15.042969 1.148438 C 15.109375 0.734375 15.46875 0.433594 15.886719 0.433594 C 16.304688 0.433594 16.660156 0.734375 16.726562 1.148438 Z M 16.726562 1.148438 " clip-rule="nonzero"/></clipPath><clipPath id="f0919af242"><rect x="0" width="32" y="0" height="31"/></clipPath><clipPath id="e9bdc2126a"><rect x="0" width="527" y="0" height="40"/></clipPath></defs><g clip-path="url(#69da0a4de1)"><g transform="matrix(1, 0, 0, 1, 3, 0)"><g clip-path="url(#e9bdc2126a)"><path fill="#a330a5" d="M 267.320312 19.753906 C 267.320312 20.042969 267.292969 20.332031 267.234375 20.613281 C 267.179688 20.898438 267.09375 21.175781 266.984375 21.441406 C 266.871094 21.710938 266.738281 21.964844 266.574219 22.207031 C 266.414062 22.445312 266.230469 22.667969 266.027344 22.875 C 265.820312 23.078125 265.597656 23.261719 265.359375 23.421875 C 265.117188 23.585938 264.863281 23.722656 264.59375 23.832031 C 264.328125 23.941406 264.050781 24.027344 263.765625 24.082031 C 263.484375 24.140625 263.195312 24.167969 262.90625 24.167969 C 262.617188 24.167969 262.328125 24.140625 262.042969 24.082031 C 261.761719 24.027344 261.484375 23.941406 261.214844 23.832031 C 260.949219 23.722656 260.695312 23.585938 260.453125 23.421875 C 260.210938 23.261719 259.988281 23.078125 259.785156 22.875 C 259.578125 22.667969 259.394531 22.445312 259.234375 22.207031 C 259.074219 21.964844 258.9375 21.710938 258.828125 21.441406 C 258.714844 21.175781 258.632812 20.898438 258.578125 20.613281 C 258.519531 20.332031 258.492188 20.042969 258.492188 19.753906 C 258.492188 19.464844 258.519531 19.175781 258.578125 18.890625 C 258.632812 18.609375 258.714844 18.332031 258.828125 18.0625 C 258.9375 17.796875 259.074219 17.542969 259.234375 17.300781 C 259.394531 17.058594 259.578125 16.835938 259.785156 16.632812 C 259.988281 16.425781 260.210938 16.246094 260.453125 16.082031 C 260.695312 15.921875 260.949219 15.785156 261.214844 15.675781 C 261.484375 15.5625 261.761719 15.480469 262.042969 15.425781 C 262.328125 15.367188 262.617188 15.339844 262.90625 15.339844 C 263.195312 15.339844 263.484375 15.367188 263.765625 15.425781 C 264.050781 15.480469 264.328125 15.5625 264.59375 15.675781 C 264.863281 15.785156 265.117188 15.921875 265.359375 16.082031 C 265.597656 16.246094 265.820312 16.425781 266.027344 16.632812 C 266.230469 16.835938 266.414062 17.058594 266.574219 17.300781 C 266.738281 17.542969 266.871094 17.796875 266.984375 18.0625 C 267.09375 18.332031 267.179688 18.609375 267.234375 18.890625 C 267.292969 19.175781 267.320312 19.464844 267.320312 19.753906 Z M 267.320312 19.753906 " fill-opacity="1" fill-rule="nonzero"/><g clip-path="url(#95a8018559)"><path fill="#a330a5" d="M 506.3125 19.753906 C 507.179688 19.753906 508.042969 19.667969 508.894531 19.5 C 509.746094 19.328125 510.574219 19.078125 511.375 18.746094 C 512.179688 18.414062 512.941406 18.007812 513.664062 17.523438 C 514.386719 17.039062 515.054688 16.492188 515.667969 15.878906 C 516.285156 15.261719 516.832031 14.59375 517.316406 13.871094 C 517.796875 13.148438 518.203125 12.386719 518.539062 11.585938 C 518.871094 10.78125 519.121094 9.953125 519.289062 9.101562 C 519.460938 8.25 519.542969 7.390625 519.542969 6.519531 C 519.542969 8.421875 519.933594 10.242188 520.71875 11.972656 C 521.503906 13.707031 522.613281 15.199219 524.042969 16.453125 C 524.277344 16.65625 524.492188 16.882812 524.679688 17.132812 C 524.867188 17.382812 525.027344 17.652344 525.15625 17.9375 C 525.285156 18.21875 525.382812 18.515625 525.453125 18.820312 C 525.519531 19.125 525.550781 19.433594 525.550781 19.75 C 525.550781 20.0625 525.519531 20.371094 525.453125 20.675781 C 525.382812 20.980469 525.285156 21.277344 525.15625 21.558594 C 525.027344 21.84375 524.867188 22.113281 524.679688 22.363281 C 524.492188 22.613281 524.277344 22.839844 524.042969 23.042969 C 522.609375 24.296875 521.5 25.792969 520.71875 27.527344 C 519.933594 29.261719 519.542969 31.082031 519.542969 32.984375 C 519.542969 32.117188 519.460938 31.257812 519.289062 30.402344 C 519.121094 29.550781 518.871094 28.726562 518.539062 27.921875 C 518.203125 27.121094 517.796875 26.355469 517.316406 25.632812 C 516.832031 24.910156 516.285156 24.242188 515.667969 23.628906 C 515.054688 23.015625 514.386719 22.464844 513.664062 21.984375 C 512.941406 21.5 512.179688 21.09375 511.375 20.761719 C 510.574219 20.429688 509.746094 20.175781 508.894531 20.007812 C 508.042969 19.839844 507.179688 19.753906 506.3125 19.753906 Z M 506.3125 19.753906 " fill-opacity="1" fill-rule="nonzero"/></g><path fill="#a330a5" d="M 500.304688 19.753906 C 500.304688 20.042969 500.332031 20.332031 500.390625 20.613281 C 500.445312 20.898438 500.53125 21.175781 500.640625 21.441406 C 500.753906 21.710938 500.886719 21.964844 501.050781 22.207031 C 501.210938 22.445312 501.394531 22.667969 501.597656 22.875 C 501.804688 23.078125 502.027344 23.261719 502.265625 23.421875 C 502.507812 23.585938 502.761719 23.722656 503.03125 23.832031 C 503.296875 23.941406 503.574219 24.027344 503.859375 24.082031 C 504.140625 24.140625 504.429688 24.167969 504.71875 24.167969 C 505.007812 24.167969 505.296875 24.140625 505.582031 24.082031 C 505.863281 24.027344 506.140625 23.941406 506.410156 23.832031 C 506.675781 23.722656 506.929688 23.585938 507.171875 23.421875 C 507.414062 23.261719 507.636719 23.078125 507.839844 22.875 C 508.046875 22.667969 508.230469 22.445312 508.390625 22.207031 C 508.550781 21.964844 508.6875 21.710938 508.796875 21.441406 C 508.910156 21.175781 508.992188 20.898438 509.050781 20.613281 C 509.105469 20.332031 509.132812 20.042969 509.132812 19.753906 C 509.132812 19.464844 509.105469 19.175781 509.046875 18.890625 C 508.992188 18.609375 508.910156 18.332031 508.796875 18.0625 C 508.6875 17.796875 508.550781 17.542969 508.390625 17.300781 C 508.230469 17.058594 508.046875 16.835938 507.839844 16.632812 C 507.636719 16.425781 507.414062 16.246094 507.171875 16.082031 C 506.929688 15.921875 506.675781 15.785156 506.410156 15.675781 C 506.140625 15.5625 505.863281 15.480469 505.582031 15.425781 C 505.296875 15.367188 505.007812 15.339844 504.71875 15.339844 C 504.429688 15.339844 504.140625 15.367188 503.859375 15.425781 C 503.574219 15.480469 503.296875 15.5625 503.03125 15.675781 C 502.761719 15.785156 502.507812 15.921875 502.265625 16.082031 C 502.027344 16.246094 501.804688 16.425781 501.597656 16.632812 C 501.394531 16.835938 501.210938 17.058594 501.050781 17.300781 C 500.886719 17.542969 500.753906 17.796875 500.640625 18.0625 C 500.53125 18.332031 500.445312 18.609375 500.390625 18.890625 C 500.332031 19.175781 500.304688 19.464844 500.304688 19.753906 Z M 500.304688 19.753906 " fill-opacity="1" fill-rule="nonzero"/><path fill="#a330a5" d="M 260.117188 18.816406 L 504.242188 18.816406 L 504.242188 20.691406 L 260.117188 20.691406 Z M 260.117188 18.816406 " fill-opacity="1" fill-rule="nonzero"/><path fill="#a330a5" d="M 25.515625 18.816406 L 269.640625 18.816406 L 269.640625 20.691406 L 25.515625 20.691406 Z M 25.515625 18.816406 " fill-opacity="1" fill-rule="nonzero"/><g clip-path="url(#c45dc9756a)"><path fill="#a330a5" d="M 6.265625 32.984375 C 6.273438 31.082031 5.882812 29.261719 5.101562 27.527344 C 4.316406 25.792969 3.210938 24.296875 1.78125 23.042969 C 1.542969 22.839844 1.332031 22.613281 1.144531 22.363281 C 0.953125 22.113281 0.796875 21.84375 0.664062 21.558594 C 0.535156 21.277344 0.4375 20.980469 0.371094 20.675781 C 0.304688 20.371094 0.269531 20.0625 0.269531 19.75 C 0.269531 19.433594 0.304688 19.125 0.371094 18.820312 C 0.4375 18.515625 0.535156 18.21875 0.664062 17.9375 C 0.796875 17.652344 0.953125 17.382812 1.144531 17.132812 C 1.332031 16.882812 1.542969 16.65625 1.78125 16.453125 C 3.207031 15.199219 4.316406 13.707031 5.097656 11.972656 C 5.878906 10.238281 6.269531 8.421875 6.265625 6.519531 C 6.265625 7.390625 6.351562 8.25 6.523438 9.101562 C 6.691406 9.953125 6.945312 10.78125 7.277344 11.582031 C 7.609375 12.386719 8.015625 13.148438 8.5 13.871094 C 8.984375 14.59375 9.53125 15.261719 10.144531 15.875 C 10.757812 16.488281 11.429688 17.039062 12.148438 17.519531 C 12.871094 18.003906 13.632812 18.410156 14.4375 18.742188 C 15.238281 19.074219 16.066406 19.328125 16.917969 19.496094 C 17.769531 19.667969 18.628906 19.753906 19.5 19.753906 C 18.628906 19.753906 17.769531 19.839844 16.917969 20.007812 C 16.066406 20.179688 15.238281 20.429688 14.4375 20.761719 C 13.632812 21.097656 12.871094 21.503906 12.148438 21.988281 C 11.429688 22.46875 10.757812 23.019531 10.144531 23.632812 C 9.53125 24.246094 8.984375 24.914062 8.5 25.636719 C 8.015625 26.359375 7.609375 27.121094 7.277344 27.921875 C 6.945312 28.726562 6.691406 29.554688 6.523438 30.40625 C 6.351562 31.257812 6.265625 32.117188 6.265625 32.984375 Z M 6.265625 32.984375 " fill-opacity="1" fill-rule="nonzero"/></g><path fill="#a330a5" d="M 25.515625 19.753906 C 25.515625 20.042969 25.488281 20.328125 25.433594 20.613281 C 25.375 20.898438 25.292969 21.175781 25.179688 21.441406 C 25.070312 21.710938 24.933594 21.964844 24.773438 22.203125 C 24.613281 22.445312 24.429688 22.667969 24.226562 22.875 C 24.019531 23.078125 23.796875 23.261719 23.554688 23.421875 C 23.316406 23.582031 23.0625 23.71875 22.792969 23.832031 C 22.527344 23.941406 22.25 24.027344 21.964844 24.082031 C 21.683594 24.140625 21.394531 24.167969 21.105469 24.167969 C 20.816406 24.167969 20.527344 24.140625 20.246094 24.082031 C 19.960938 24.027344 19.683594 23.945312 19.417969 23.832031 C 19.148438 23.722656 18.894531 23.585938 18.652344 23.425781 C 18.414062 23.265625 18.191406 23.082031 17.984375 22.878906 C 17.78125 22.671875 17.597656 22.453125 17.433594 22.210938 C 17.273438 21.96875 17.136719 21.714844 17.027344 21.449219 C 16.914062 21.179688 16.832031 20.90625 16.773438 20.621094 C 16.71875 20.335938 16.6875 20.050781 16.6875 19.761719 C 16.6875 19.46875 16.714844 19.183594 16.769531 18.898438 C 16.828125 18.617188 16.910156 18.339844 17.019531 18.070312 C 17.132812 17.804688 17.265625 17.550781 17.425781 17.308594 C 17.585938 17.066406 17.769531 16.84375 17.976562 16.636719 C 18.179688 16.433594 18.402344 16.25 18.640625 16.089844 C 18.882812 15.925781 19.136719 15.789062 19.402344 15.679688 C 19.671875 15.566406 19.945312 15.484375 20.230469 15.425781 C 20.515625 15.367188 20.800781 15.339844 21.089844 15.339844 C 21.382812 15.339844 21.667969 15.367188 21.953125 15.421875 C 22.238281 15.476562 22.515625 15.5625 22.785156 15.671875 C 23.050781 15.78125 23.308594 15.917969 23.550781 16.078125 C 23.789062 16.242188 24.015625 16.421875 24.21875 16.628906 C 24.425781 16.832031 24.609375 17.054688 24.769531 17.296875 C 24.933594 17.539062 25.066406 17.792969 25.179688 18.0625 C 25.289062 18.328125 25.375 18.605469 25.429688 18.890625 C 25.488281 19.175781 25.515625 19.464844 25.515625 19.753906 Z M 25.515625 19.753906 " fill-opacity="1" fill-rule="nonzero"/><g clip-path="url(#2016678634)"><g clip-path="url(#56a5027652)"><g transform="matrix(1, 0, 0, 1, 247, 4)"><g clip-path="url(#f0919af242)"><g clip-path="url(#0b4ad37d80)"><g clip-path="url(#39d8508a75)"><rect x="-444.103" width="921.456" fill="#a330a5" y="-18.469" height="68.687998" fill-opacity="1"/></g></g></g></g></g></g></g></g></g></svg>