<svg xmlns="http://www.w3.org/2000/svg" xmlns:xlink="http://www.w3.org/1999/xlink" width="500" zoomAndPan="magnify" viewBox="0 0 375 374.999991" height="500" preserveAspectRatio="xMidYMid meet" version="1.0"><defs><clipPath id="4a18802e7b"><path d="M 2 1 L 364.878906 1 L 364.878906 203.480469 L 2 203.480469 Z M 2 1 " clip-rule="nonzero"/></clipPath><clipPath id="8360697131"><path d="M 26.441406 24.855469 L 340.558594 24.855469 L 340.558594 180.144531 L 26.441406 180.144531 Z M 26.441406 24.855469 " clip-rule="nonzero"/></clipPath><clipPath id="ec87476ae2"><path d="M 0.441406 0.855469 L 314.558594 0.855469 L 314.558594 156.144531 L 0.441406 156.144531 Z M 0.441406 0.855469 " clip-rule="nonzero"/></clipPath><clipPath id="46268b4d66"><rect x="0" width="315" y="0" height="157"/></clipPath><clipPath id="feddb061d2"><rect x="0" width="365" y="0" height="204"/></clipPath></defs><g transform="matrix(1, 0, 0, 1, 4, 85)"><g clip-path="url(#feddb061d2)"><g clip-path="url(#4a18802e7b)"><path fill="#a030a7" d="M 358.65625 148.257812 C 355.878906 145.460938 352.328125 143.539062 348.519531 142.660156 C 351.429688 142.078125 354.183594 140.902344 356.582031 139.046875 C 359.707031 136.625 361.886719 133.148438 363.066406 129.402344 C 365.417969 121.90625 363.738281 113.011719 358.101562 107.386719 C 355.480469 104.777344 352.160156 103.160156 348.609375 102.414062 C 351.511719 101.796875 354.253906 100.597656 356.628906 98.726562 C 359.753906 96.269531 361.9375 92.769531 363.097656 88.996094 C 365.417969 81.460938 363.648438 72.558594 357.898438 67.007812 C 355.277344 64.476562 351.992188 62.914062 348.492188 62.1875 C 352.308594 61.324219 355.839844 59.390625 358.65625 56.59375 C 362.492188 52.78125 364.675781 47.511719 364.734375 42.109375 C 365.472656 29.347656 359.488281 17.15625 349.394531 9.433594 C 340.878906 2.917969 329.875 0.164062 319.304688 1.964844 C 311.628906 3.9375 305.730469 10.136719 304.015625 17.679688 C 303.402344 14.738281 302.199219 11.960938 300.308594 9.550781 C 297.855469 6.421875 294.355469 4.238281 290.582031 3.070312 C 283.046875 0.746094 274.140625 2.523438 268.59375 8.277344 C 266.09375 10.871094 264.539062 14.113281 263.800781 17.570312 C 263.199219 14.6875 262.019531 11.957031 260.167969 9.582031 C 257.734375 6.453125 254.25 4.269531 250.488281 3.09375 C 242.980469 0.75 234.078125 2.457031 228.488281 8.140625 C 225.929688 10.746094 224.34375 14.03125 223.605469 17.535156 C 222.996094 14.664062 221.808594 11.949219 219.964844 9.585938 C 217.519531 6.457031 214.027344 4.273438 210.265625 3.097656 C 202.765625 0.753906 193.863281 2.449219 188.28125 8.140625 C 185.726562 10.75 184.148438 14.035156 183.421875 17.539062 C 182.800781 14.652344 181.605469 11.921875 179.742188 9.550781 C 177.289062 6.425781 173.789062 4.242188 170.011719 3.078125 C 162.480469 0.753906 153.570312 2.527344 148.023438 8.28125 C 145.539062 10.859375 143.988281 14.082031 143.246094 17.519531 C 142.652344 14.664062 141.488281 11.957031 139.664062 9.601562 C 137.242188 6.472656 133.769531 4.289062 130.019531 3.109375 C 122.523438 0.75 113.625 2.4375 108.007812 8.078125 C 105.410156 10.6875 103.800781 13.988281 103.050781 17.511719 C 102.449219 14.65625 101.273438 11.957031 99.441406 9.601562 C 97.011719 6.476562 93.53125 4.289062 89.777344 3.109375 C 82.292969 0.753906 73.398438 2.429688 67.796875 8.078125 C 65.164062 10.726562 63.554688 14.09375 62.835938 17.679688 C 61.085938 10.132812 55.25 3.933594 47.53125 1.964844 C 41.230469 0.886719 34.757812 1.355469 28.695312 3.402344 C 22.886719 5.367188 17.59375 8.75 13.292969 13.109375 C 5.742188 20.761719 1.640625 31.371094 2.105469 42.109375 C 2.164062 47.546875 4.371094 52.730469 8.191406 56.589844 C 10.972656 59.402344 14.539062 61.332031 18.363281 62.191406 C 15.410156 62.804688 12.617188 64.019531 10.199219 65.925781 C 7.074219 68.390625 4.894531 71.902344 3.738281 75.683594 C 1.429688 83.230469 3.226562 92.148438 9.015625 97.675781 C 11.597656 100.144531 14.824219 101.683594 18.253906 102.414062 C 15.359375 103.019531 12.625 104.210938 10.25 106.070312 C 7.125 108.515625 4.945312 112.007812 3.773438 115.773438 C 1.433594 123.273438 3.125 132.179688 8.808594 137.765625 C 11.449219 140.363281 14.792969 141.949219 18.351562 142.660156 C 14.539062 143.546875 11.011719 145.472656 8.191406 148.265625 C 4.335938 152.070312 2.160156 157.339844 2.105469 162.742188 C 1.570312 175.316406 7.269531 187.5 17.230469 195.191406 C 25.785156 201.800781 36.742188 204.574219 47.414062 202.902344 C 47.453125 202.902344 47.492188 202.894531 47.53125 202.886719 C 47.574219 202.878906 47.609375 202.867188 47.644531 202.855469 C 55.285156 200.824219 61.09375 194.664062 62.835938 187.152344 C 63.429688 190.078125 64.613281 192.851562 66.488281 195.257812 C 68.917969 198.382812 72.402344 200.566406 76.15625 201.738281 C 83.664062 204.082031 92.558594 202.371094 98.152344 196.695312 C 100.71875 194.089844 102.308594 190.804688 103.050781 187.300781 C 103.660156 190.171875 104.84375 192.894531 106.691406 195.257812 C 109.136719 198.382812 112.628906 200.5625 116.390625 201.738281 C 123.890625 204.078125 132.796875 202.382812 138.378906 196.695312 C 140.941406 194.089844 142.519531 190.796875 143.246094 187.289062 C 143.871094 190.1875 145.074219 192.929688 146.949219 195.308594 C 149.414062 198.433594 152.921875 200.613281 156.703125 201.773438 C 164.25 204.082031 173.164062 202.277344 178.6875 196.488281 C 181.152344 193.910156 182.6875 190.695312 183.421875 187.273438 C 184.019531 190.164062 185.203125 192.898438 187.054688 195.277344 C 189.492188 198.402344 192.980469 200.585938 196.742188 201.753906 C 204.265625 204.085938 213.171875 202.335938 218.75 196.625 C 221.285156 194.027344 222.863281 190.757812 223.605469 187.273438 C 224.214844 190.164062 225.402344 192.898438 227.257812 195.277344 C 229.703125 198.402344 233.199219 200.582031 236.964844 201.753906 C 244.484375 204.085938 253.390625 202.347656 258.960938 196.628906 C 261.503906 194.019531 263.074219 190.734375 263.800781 187.238281 C 264.425781 190.15625 265.632812 192.917969 267.519531 195.308594 C 269.984375 198.433594 273.492188 200.617188 277.273438 201.773438 C 284.820312 204.085938 293.730469 202.277344 299.253906 196.488281 C 301.746094 193.875 303.289062 190.617188 304.011719 187.144531 C 305.714844 194.65625 311.589844 200.820312 319.191406 202.855469 C 319.226562 202.867188 319.261719 202.878906 319.304688 202.882812 C 319.34375 202.894531 319.382812 202.902344 319.417969 202.902344 C 331.886719 204.84375 344.671875 200.601562 353.605469 191.707031 C 361.242188 184.105469 365.351562 173.503906 364.734375 162.742188 C 364.683594 157.300781 362.484375 152.117188 358.65625 148.257812 Z M 358.65625 148.257812 " fill-opacity="1" fill-rule="nonzero"/></g><g clip-path="url(#8360697131)"><g transform="matrix(1, 0, 0, 1, 26, 24)"><g clip-path="url(#46268b4d66)"><g clip-path="url(#ec87476ae2)"><path fill="#f7ffea" d="M 0.441406 0.855469 L 314.652344 0.855469 L 314.652344 156.144531 L 0.441406 156.144531 Z M 0.441406 0.855469 " fill-opacity="1" fill-rule="nonzero"/></g></g></g></g></g></g></svg>