<svg xmlns="http://www.w3.org/2000/svg" xmlns:xlink="http://www.w3.org/1999/xlink" width="486" zoomAndPan="magnify" viewBox="0 0 364.5 205.499994" height="274" preserveAspectRatio="xMidYMid meet" version="1.0"><defs><clipPath id="880e2eda69"><path d="M 0.191406 0 L 363 0 L 363 204 L 0.191406 204 Z M 0.191406 0 " clip-rule="nonzero"/></clipPath><clipPath id="e52963b302"><path d="M 0.191406 1 L 362.910156 1 L 362.910156 203.265625 L 0.191406 203.265625 Z M 0.191406 1 " clip-rule="nonzero"/></clipPath><clipPath id="c08ab54d4f"><path d="M 25.121094 24.925781 L 338.476562 24.925781 L 338.476562 179.835938 L 25.121094 179.835938 Z M 25.121094 24.925781 " clip-rule="nonzero"/></clipPath><clipPath id="40152c3d88"><path d="M 0.121094 0.925781 L 313.476562 0.925781 L 313.476562 155.835938 L 0.121094 155.835938 Z M 0.121094 0.925781 " clip-rule="nonzero"/></clipPath><clipPath id="1cb77d30d4"><rect x="0" width="314" y="0" height="156"/></clipPath><clipPath id="280ee65eba"><rect x="0" width="363" y="0" height="204"/></clipPath></defs><g clip-path="url(#880e2eda69)"><g transform="matrix(1, 0, 0, 1, -0.000000000000000028, 0)"><g clip-path="url(#280ee65eba)"><g clip-path="url(#e52963b302)"><path fill="#a030a7" d="M 356.53125 148.027344 C 353.757812 145.238281 350.21875 143.324219 346.417969 142.441406 C 349.320312 141.863281 352.070312 140.691406 354.460938 138.839844 C 357.578125 136.421875 359.753906 132.957031 360.929688 129.21875 C 363.277344 121.742188 361.597656 112.867188 355.976562 107.257812 C 353.363281 104.652344 350.050781 103.039062 346.511719 102.296875 C 349.402344 101.679688 352.136719 100.480469 354.511719 98.617188 C 357.628906 96.167969 359.804688 92.675781 360.964844 88.910156 C 363.277344 81.394531 361.511719 72.511719 355.773438 66.976562 C 353.160156 64.453125 349.882812 62.890625 346.390625 62.167969 C 350.199219 61.308594 353.71875 59.378906 356.53125 56.585938 C 360.359375 52.78125 362.539062 47.523438 362.59375 42.136719 C 363.332031 29.40625 357.359375 17.246094 347.292969 9.542969 C 338.796875 3.042969 327.820312 0.292969 317.273438 2.089844 C 309.617188 4.054688 303.734375 10.242188 302.023438 17.765625 C 301.414062 14.835938 300.210938 12.0625 298.324219 9.65625 C 295.878906 6.535156 292.386719 4.359375 288.621094 3.195312 C 281.105469 0.875 272.222656 2.648438 266.6875 8.386719 C 264.195312 10.976562 262.640625 14.210938 261.90625 17.65625 C 261.304688 14.78125 260.128906 12.054688 258.285156 9.6875 C 255.855469 6.566406 252.375 4.386719 248.625 3.21875 C 241.136719 0.878906 232.253906 2.582031 226.679688 8.253906 C 224.125 10.851562 222.542969 14.128906 221.808594 17.621094 C 221.199219 14.757812 220.015625 12.046875 218.175781 9.691406 C 215.738281 6.570312 212.253906 4.390625 208.5 3.21875 C 201.019531 0.882812 192.136719 2.574219 186.570312 8.25 C 184.019531 10.851562 182.449219 14.132812 181.722656 17.625 C 181.101562 14.746094 179.910156 12.023438 178.054688 9.660156 C 175.605469 6.539062 172.113281 4.359375 168.347656 3.199219 C 160.832031 0.878906 151.941406 2.652344 146.410156 8.390625 C 143.929688 10.964844 142.382812 14.179688 141.644531 17.605469 C 141.050781 14.757812 139.890625 12.058594 138.074219 9.707031 C 135.65625 6.585938 132.191406 4.40625 128.449219 3.230469 C 120.972656 0.878906 112.09375 2.5625 106.492188 8.1875 C 103.898438 10.789062 102.292969 14.082031 101.546875 17.601562 C 100.945312 14.753906 99.773438 12.054688 97.945312 9.710938 C 95.523438 6.589844 92.050781 4.410156 88.308594 3.234375 C 80.839844 0.882812 71.96875 2.554688 66.378906 8.1875 C 63.753906 10.832031 62.148438 14.191406 61.425781 17.769531 C 59.683594 10.238281 53.863281 4.050781 46.164062 2.089844 C 39.875 1.011719 33.421875 1.484375 27.371094 3.527344 C 21.574219 5.484375 16.296875 8.859375 12.007812 13.207031 C 4.476562 20.84375 0.382812 31.425781 0.84375 42.136719 C 0.90625 47.558594 3.105469 52.734375 6.914062 56.585938 C 9.691406 59.390625 13.25 61.3125 17.066406 62.167969 C 14.117188 62.78125 11.332031 63.996094 8.917969 65.898438 C 5.800781 68.355469 3.628906 71.855469 2.472656 75.628906 C 0.171875 83.160156 1.964844 92.054688 7.738281 97.566406 C 10.316406 100.03125 13.53125 101.566406 16.957031 102.296875 C 14.070312 102.902344 11.339844 104.089844 8.96875 105.945312 C 5.851562 108.382812 3.679688 111.867188 2.507812 115.621094 C 0.175781 123.101562 1.863281 131.988281 7.535156 137.5625 C 10.167969 140.152344 13.503906 141.734375 17.054688 142.445312 C 13.25 143.328125 9.730469 145.25 6.914062 148.035156 C 3.074219 151.832031 0.898438 157.085938 0.84375 162.476562 C 0.3125 175.019531 6 187.175781 15.933594 194.847656 C 24.46875 201.441406 35.402344 204.207031 46.046875 202.539062 C 46.082031 202.539062 46.121094 202.535156 46.164062 202.523438 C 46.203125 202.515625 46.238281 202.507812 46.273438 202.492188 C 53.898438 200.46875 59.691406 194.320312 61.429688 186.828125 C 62.019531 189.746094 63.203125 192.511719 65.070312 194.914062 C 67.5 198.03125 70.972656 200.207031 74.71875 201.378906 C 82.207031 203.71875 91.082031 202.011719 96.660156 196.347656 C 99.21875 193.75 100.804688 190.472656 101.546875 186.972656 C 102.152344 189.839844 103.335938 192.554688 105.179688 194.914062 C 107.617188 198.03125 111.097656 200.207031 114.855469 201.378906 C 122.335938 203.714844 131.21875 202.023438 136.789062 196.347656 C 139.34375 193.746094 140.917969 190.464844 141.644531 186.964844 C 142.265625 189.855469 143.46875 192.589844 145.339844 194.964844 C 147.796875 198.082031 151.296875 200.257812 155.066406 201.414062 C 162.597656 203.71875 171.488281 201.917969 177 196.140625 C 179.457031 193.566406 180.988281 190.363281 181.722656 186.949219 C 182.320312 189.832031 183.5 192.5625 185.347656 194.933594 C 187.777344 198.050781 191.257812 200.230469 195.011719 201.394531 C 202.515625 203.722656 211.402344 201.976562 216.964844 196.277344 C 219.496094 193.683594 221.070312 190.425781 221.808594 186.949219 C 222.414062 189.832031 223.601562 192.5625 225.453125 194.929688 C 227.894531 198.050781 231.378906 200.226562 235.136719 201.394531 C 242.636719 203.71875 251.523438 201.984375 257.078125 196.28125 C 259.613281 193.675781 261.179688 190.402344 261.90625 186.914062 C 262.527344 189.824219 263.734375 192.578125 265.617188 194.964844 C 268.074219 198.082031 271.574219 200.257812 275.347656 201.414062 C 282.875 203.71875 291.765625 201.917969 297.273438 196.140625 C 299.757812 193.535156 301.296875 190.28125 302.019531 186.820312 C 303.71875 194.3125 309.578125 200.460938 317.164062 202.492188 C 317.199219 202.503906 317.234375 202.515625 317.273438 202.523438 C 317.316406 202.53125 317.351562 202.539062 317.390625 202.539062 C 329.828125 204.476562 342.582031 200.246094 351.492188 191.371094 C 359.109375 183.789062 363.210938 173.210938 362.59375 162.476562 C 362.542969 157.046875 360.347656 151.875 356.53125 148.027344 Z M 356.53125 148.027344 " fill-opacity="1" fill-rule="nonzero"/></g><g clip-path="url(#c08ab54d4f)"><g transform="matrix(1, 0, 0, 1, 25, 24)"><g clip-path="url(#1cb77d30d4)"><g clip-path="url(#40152c3d88)"><path fill="#f7ffea" d="M 0.121094 0.925781 L 313.570312 0.925781 L 313.570312 155.835938 L 0.121094 155.835938 Z M 0.121094 0.925781 " fill-opacity="1" fill-rule="nonzero"/></g></g></g></g></g></g></g></svg>